SplineFontDB: 3.2
FontName: nasin-koko
FullName: nasin koko
FamilyName: nasin Koko
Weight: Regular
Copyright: Copyright (c) 2024, neverRare
Version: 000.000
ItalicAngle: 0
UnderlinePosition: 0
UnderlineWidth: 0
Ascent: 1000
Descent: 0
InvalidEm: 0
LayerCount: 2
Layer: 0 0 "Back" 1
Layer: 1 0 "Fore" 0
XUID: [1021 756 1414093791 30187]
FSType: 0
OS2Version: 0
OS2_WeightWidthSlopeOnly: 0
OS2_UseTypoMetrics: 1
CreationTime: 1707897574
ModificationTime: 1707958233
PfmFamily: 33
TTFWeight: 400
TTFWidth: 5
LineGap: 0
VLineGap: 0
OS2TypoAscent: 1000
OS2TypoAOffset: 0
OS2TypoDescent: 0
OS2TypoDOffset: 0
OS2TypoLinegap: 0
OS2WinAscent: 1000
OS2WinAOffset: 0
OS2WinDescent: 386
OS2WinDOffset: 0
HheadAscent: 1000
HheadAOffset: 0
HheadDescent: -386
HheadDOffset: 0
OS2CapHeight: 1000
OS2Vendor: 'PfEd'
MarkAttachClasses: 1
DEI: 91125

StartChar: uF1900
Encoding: 989440 989440 0
Width: 1000
Flags: H
LayerCount: 2
Fore
SplineSet
0 448 m 1
 552 448 l 1
 552 1000 l 1
 0 1000 l 1
 0 448 l 1
246.120117188 633.599609375 m 2
 213.110351562 633.599609375 186.360351562 604.540039062 186.360351562 568.700195312 c 0
 186.360351562 532.860351562 213.110351562 503.809570312 246.120117188 503.809570312 c 0
 279.120117188 503.809570312 305.879882812 532.860351562 305.879882812 568.700195312 c 2
 305.879882812 633.599609375 l 1
 246.120117188 633.599609375 l 2
246.120117188 692 m 1
 246.120117188 692 l 1
 368.240234375 692 l 1
 368.240234375 570 l 1
 368.240234375 570 l 1
 368.240234375 570 l 1
 369.450195312 557.1796875 l 2
 374.23046875 532.33984375 392.610351562 512.780273438 415.959960938 507.700195312 c 2
 428 506.400390625 l 1
 428 448 l 1
 390.059570312 448 356.169921875 465.280273438 333.76953125 492.400390625 c 2
 329.139648438 498.580078125 l 1
 318.4296875 484.76953125 l 2
 297.849609375 462.08984375 269.120117188 448 237.330078125 448 c 0
 174.740234375 448 124 502.620117188 124 570 c 1
 124 570 l 1
 124 633.169921875 172.049804688 685.120117188 233.629882812 691.370117188 c 2
 246.120117188 692 l 1
243 730 m 1
 243 1000 l 1
 308 1000 l 1
 308 730 l 1
 243 730 l 1
EndSplineSet
EndChar

StartChar: uF1901
Encoding: 989441 989441 1
Width: 1000
Flags: H
LayerCount: 2
Fore
SplineSet
0 448 m 1
 552 448 l 1
 552 1000 l 1
 0 1000 l 1
 0 448 l 1
125 955 m 0
 125 979.852539062 145.150390625 1000 170 1000 c 0
 194.849609375 1000 215 979.852539062 215 955 c 0
 215 930.147460938 194.849609375 910 170 910 c 0
 145.150390625 910 125 930.147460938 125 955 c 0
336 955 m 0
 336 979.852539062 356.150390625 1000 381 1000 c 0
 405.849609375 1000 426 979.852539062 426 955 c 0
 426 930.147460938 405.849609375 910 381 910 c 0
 356.150390625 910 336 930.147460938 336 955 c 0
219.3203125 550.821289062 m 1
 222.780273438 541.540039062 l 2
 229 528.08984375 236.599609375 517.63671875 245.5703125 510.1796875 c 0
 254.549804688 502.723632812 264.5703125 498.99609375 275.610351562 498.99609375 c 0
 286.66015625 498.99609375 296.639648438 502.723632812 305.540039062 510.1796875 c 0
 314.440429688 517.63671875 322 528.08984375 328.219726562 541.540039062 c 2
 331.6796875 550.821289062 l 1
 219.3203125 550.821289062 l 1
203.349609375 650.751953125 m 1
 203.330078125 650.313476562 l 1
 207.450195312 600.962890625 l 1
 343.549804688 600.962890625 l 1
 347.669921875 650.313476562 l 1
 347.650390625 650.751953125 l 1
 203.349609375 650.751953125 l 1
207.48046875 751.389648438 m 1
 203.330078125 701.686523438 l 1
 203.349609375 701.248046875 l 1
 347.650390625 701.248046875 l 1
 347.669921875 701.686523438 l 1
 343.51953125 751.389648438 l 1
 207.48046875 751.389648438 l 1
275.379882812 853.002929688 m 0
 264.33984375 853.002929688 254.360351562 849.275390625 245.459960938 841.819335938 c 0
 236.559570312 834.36328125 229 823.909179688 222.780273438 810.458984375 c 2
 219.450195312 801.533203125 l 1
 331.549804688 801.533203125 l 1
 328.219726562 810.458984375 l 2
 322 823.909179688 314.400390625 834.36328125 305.4296875 841.819335938 c 0
 296.450195312 849.275390625 286.4296875 853.002929688 275.379882812 853.002929688 c 0
275.280273438 904 m 0
 296.280273438 904 315.3203125 899.018554688 332.389648438 889.056640625 c 0
 349.450195312 879.094726562 363.889648438 865.12890625 375.709960938 847.159179688 c 0
 381.610351562 838.173828125 386.849609375 828.334960938 391.41015625 817.639648438 c 2
 396.8203125 801.533203125 l 1
 504 801.533203125 l 1
 504 751.389648438 l 1
 408.919921875 751.389648438 l 1
 410.280273438 744.09765625 l 2
 411.879882812 730.572265625 412.6796875 716.483398438 412.6796875 701.833984375 c 2
 412.650390625 701.248046875 l 1
 504 701.248046875 l 1
 504 651.106445312 l 1
 409.549804688 651.106445312 l 1
 412.650390625 650.751953125 l 1
 412.6796875 650.166015625 l 2
 412.6796875 635.515625 411.879882812 621.427734375 410.280273438 607.901367188 c 2
 408.990234375 600.962890625 l 1
 504 600.962890625 l 1
 504 550.821289062 l 1
 396.940429688 550.821289062 l 1
 391.400390625 534.360351562 l 2
 386.849609375 523.665039062 381.610351562 513.825195312 375.709960938 504.83984375 c 0
 363.889648438 486.870117188 349.51953125 472.904296875 332.599609375 462.943359375 c 0
 315.6796875 452.981445312 296.719726562 448 275.719726562 448 c 0
 254.709960938 448 235.6796875 452.981445312 218.610351562 462.943359375 c 0
 201.549804688 472.904296875 187.110351562 486.870117188 175.290039062 504.83984375 c 0
 169.389648438 513.825195312 164.150390625 523.665039062 159.58984375 534.360351562 c 2
 154.059570312 550.821289062 l 1
 47 550.821289062 l 1
 47 600.962890625 l 1
 142.009765625 600.962890625 l 1
 140.719726562 607.901367188 l 2
 139.120117188 621.427734375 138.3203125 635.515625 138.3203125 650.166015625 c 0
 138.330078125 650.361328125 138.33984375 650.555664062 138.349609375 650.751953125 c 2
 139.299804688 651.106445312 l 1
 47 651.106445312 l 1
 47 701.248046875 l 1
 138.349609375 701.248046875 l 1
 138.3203125 701.833984375 l 2
 138.3203125 716.483398438 139.120117188 730.572265625 140.719726562 744.09765625 c 2
 142.080078125 751.389648438 l 1
 47 751.389648438 l 1
 47 801.533203125 l 1
 154.1796875 801.533203125 l 1
 159.58984375 817.639648438 l 2
 164.150390625 828.334960938 169.389648438 838.173828125 175.290039062 847.159179688 c 0
 187.110351562 865.12890625 201.469726562 879.094726562 218.400390625 889.056640625 c 0
 235.309570312 899.018554688 254.280273438 904 275.280273438 904 c 0
EndSplineSet
EndChar

StartChar: uF1902
Encoding: 989442 989442 2
Width: 1000
Flags: H
LayerCount: 2
Fore
SplineSet
0 448 m 1
 552 448 l 1
 552 1000 l 1
 0 1000 l 1
 0 448 l 1
83.6796875 1000 m 1
 276.219726562 772.256835938 l 1
 468.3203125 999.484375 l 1
 516 959.369140625 l 1
 317.01953125 724 l 1
 516 488.630859375 l 1
 468.3203125 448.515625 l 1
 276.219726562 675.743164062 l 1
 83.6796875 448 l 1
 36 488.115234375 l 1
 235.419921875 724 l 1
 36 959.884765625 l 1
 83.6796875 1000 l 1
EndSplineSet
EndChar

StartChar: uF1903
Encoding: 989443 989443 3
Width: 1000
Flags: H
LayerCount: 2
Fore
SplineSet
0 448 m 1
 552 448 l 1
 552 1000 l 1
 0 1000 l 1
 0 448 l 1
117 984 m 1
 196.05078125 984 l 1
 228.55078125 966.6796875 l 1
 246.939453125 954.818359375 l 1
 266.330078125 942.306640625 l 1
 339.931640625 890.020507812 387.575195312 824.729492188 397.857421875 753.201171875 c 1
 483.890625 753.201171875 l 1
 409.380859375 828.71875 l 1
 458.560546875 867 l 1
 570 724.013671875 l 1
 458.560546875 581 l 1
 409.380859375 619.279296875 l 1
 483.890625 694.798828125 l 1
 397.857421875 694.798828125 l 1
 387.575195312 623.271484375 339.931640625 557.979492188 266.330078125 505.693359375 c 1
 246.939453125 493.181640625 l 1
 228.55078125 481.3203125 l 1
 196.05078125 464 l 1
 117 464 l 1
 117 694.798828125 l 1
 0 694.798828125 l 1
 0 753.201171875 l 1
 117 753.201171875 l 1
 117 984 l 1
181.970703125 925.5 m 1
 181.970703125 753.201171875 l 1
 332.025390625 753.201171875 l 1
 319.564453125 820.16015625 264.717773438 880.252929688 182.400390625 925.3125 c 2
 182.029296875 925.5 l 1
 181.970703125 925.5 l 1
181.970703125 694.798828125 m 1
 181.970703125 522.5 l 1
 182.029296875 522.5 l 1
 182.400390625 522.6875 l 2
 264.717773438 567.747070312 319.563476562 627.83984375 332.025390625 694.798828125 c 1
 181.970703125 694.798828125 l 1
EndSplineSet
EndChar

StartChar: uF1904
Encoding: 989444 989444 4
Width: 1000
Flags: H
LayerCount: 2
Fore
SplineSet
0 448 m 1
 552 448 l 1
 552 1000 l 1
 0 1000 l 1
 0 448 l 1
417.658203125 797.619140625 m 0
 399.897460938 797.619140625 382.135742188 790.3828125 368.583984375 775.91015625 c 2
 319.510742188 723.5 l 1
 368.583984375 671.08984375 l 2
 395.686523438 642.143554688 439.62890625 642.143554688 466.731445312 671.08984375 c 0
 493.834960938 700.03515625 493.834960938 746.96484375 466.731445312 775.91015625 c 0
 453.180664062 790.3828125 435.418945312 797.619140625 417.658203125 797.619140625 c 0
134.341796875 797.619140625 m 0
 116.581054688 797.619140625 98.8193359375 790.3828125 85.267578125 775.91015625 c 0
 58.1650390625 746.96484375 58.1650390625 700.03515625 85.267578125 671.08984375 c 0
 112.37109375 642.143554688 156.313476562 642.143554688 183.415039062 671.08984375 c 2
 232.489257812 723.5 l 1
 183.415039062 775.91015625 l 2
 169.864257812 790.3828125 152.102539062 797.619140625 134.341796875 797.619140625 c 0
132.344726562 856 m 0
 166.215820312 856 200.0859375 843.063476562 225.927734375 817.19140625 c 2
 276 767.061523438 l 1
 326.072265625 817.19140625 l 2
 351.9140625 843.063476562 385.784179688 856 419.655273438 856 c 0
 453.525390625 856 487.395507812 843.063476562 513.237304688 817.19140625 c 0
 564.920898438 765.447265625 564.920898438 681.552734375 513.237304688 629.807617188 c 0
 461.552734375 578.064453125 377.755859375 578.064453125 326.072265625 629.807617188 c 2
 276 679.939453125 l 1
 225.927734375 629.807617188 l 2
 174.244140625 578.064453125 90.447265625 578.064453125 38.7626953125 629.807617188 c 0
 -12.9208984375 681.552734375 -12.9208984375 765.447265625 38.7626953125 817.19140625 c 0
 64.60546875 843.063476562 98.474609375 856 132.344726562 856 c 0
EndSplineSet
EndChar

StartChar: uF1905
Encoding: 989445 989445 5
Width: 1000
Flags: H
LayerCount: 2
Fore
SplineSet
552 448 m 1
 552 1000 l 1
 0 1000 l 1
 0 448 l 1
 552 448 l 1
321 551 m 0
 321 526.147460938 300.852539062 506 276 506 c 0
 251.147460938 506 231 526.147460938 231 551 c 0
 231 575.852539062 251.147460938 596 276 596 c 0
 300.852539062 596 321 575.852539062 321 551 c 0
43 898 m 1
 108 898 l 1
 108 711 l 1
 444 711 l 1
 444 898 l 1
 509 898 l 1
 509 711 l 1
 509 653 l 1
 444 653 l 1
 43 653 l 1
 43 711 l 1
 43 898 l 1
EndSplineSet
EndChar

StartChar: uF1906
Encoding: 989446 989446 6
Width: 1000
Flags: H
LayerCount: 2
Fore
SplineSet
0 448 m 1
 552 448 l 1
 552 1000 l 1
 0 1000 l 1
 0 448 l 1
75.80078125 1000 m 1
 276 840.650390625 l 1
 276 840.650390625 l 1
 276 840.650390625 l 1
 476.19921875 1000 l 1
 515 951.231445312 l 1
 276 761 l 1
 37 951.231445312 l 1
 75.80078125 1000 l 1
476.19921875 448 m 1
 276 607.349609375 l 1
 276 607.349609375 l 1
 276 607.349609375 l 1
 75.80078125 448 l 1
 37 496.76953125 l 1
 276 687 l 1
 515 496.76953125 l 1
 476.19921875 448 l 1
EndSplineSet
EndChar

StartChar: uF1907
Encoding: 989447 989447 7
Width: 1000
Flags: H
LayerCount: 2
Fore
SplineSet
0 448 m 1
 552 448 l 1
 552 1000 l 1
 0 1000 l 1
 0 448 l 1
87.966796875 1000 m 1
 276.5 760.959960938 l 1
 465.030273438 1000 l 1
 514 961.3984375 l 1
 308.98046875 701.450195312 l 1
 308.98046875 448 l 1
 244.01953125 448 l 1
 244.01953125 701.450195312 l 1
 39 961.3984375 l 1
 87.966796875 1000 l 1
EndSplineSet
EndChar

StartChar: uF1908
Encoding: 989448 989448 8
Width: 1000
Flags: H
LayerCount: 2
Fore
SplineSet
0 448 m 1
 553 448 l 1
 553 1000 l 1
 0 1000 l 1
 0 448 l 1
242.080078125 972 m 1
 311.009765625 972 l 1
 430.219726562 535.459960938 l 1
 536 535.459960938 l 1
 536 477 l 1
 380.26953125 477 l 1
 276.549804688 882.629882812 l 1
 172.8203125 477 l 1
 17 477 l 1
 17 535.459960938 l 1
 122.870117188 535.459960938 l 1
 122.870117188 535.459960938 l 1
 242.080078125 972 l 1
EndSplineSet
EndChar

StartChar: uF1909
Encoding: 989449 989449 9
Width: 1000
Flags: H
LayerCount: 2
Fore
SplineSet
0 448 m 1
 552 448 l 1
 552 1000 l 1
 0 1000 l 1
 0 448 l 1
44.0703125 1000 m 1
 320 724 l 1
 44.0703125 448 l 1
 0 492.083007812 l 1
 231.860351562 724 l 1
 0 955.916015625 l 1
 44.0703125 1000 l 1
294.0703125 1000 m 1
 570 724 l 1
 294.0703125 448 l 1
 250 492.083007812 l 1
 481.860351562 724 l 1
 250 955.916015625 l 1
 294.0703125 1000 l 1
EndSplineSet
EndChar

StartChar: uF190A
Encoding: 989450 989450 10
Width: 1000
Flags: H
LayerCount: 2
Fore
SplineSet
0 448 m 1
 552 448 l 1
 552 1000 l 1
 0 1000 l 1
 0 448 l 1
243.5 984 m 1
 308.5 984 l 1
 308.5 753.25 l 1
 536 753.25 l 1
 536 694.75 l 1
 308.5 694.75 l 1
 308.5 464 l 1
 243.5 464 l 1
 243.5 694.75 l 1
 16 694.75 l 1
 16 753.25 l 1
 243.5 753.25 l 1
 243.5 984 l 1
EndSplineSet
EndChar

StartChar: uF190B
Encoding: 989451 989451 11
Width: 1000
Flags: H
LayerCount: 2
Fore
SplineSet
0 1000 m 1
 0 447.999023438 l 1
 552 447.999023438 l 1
 552 1000 l 1
 0 1000 l 1
431.4296875 995.998046875 m 0
 453.650390625 995.860351562 474.48046875 989.591796875 491.919921875 979.624023438 c 0
 513.059570312 967.543945312 531.8203125 948.526367188 542.620117188 923.250976562 c 0
 547.75 911.259765625 551.150390625 897.65625 551.860351562 882.72265625 c 0
 552.059570312 878.608398438 552.049804688 874.391601562 551.8203125 870.079101562 c 0
 551.25 859.708984375 549.389648438 848.989257812 546.08984375 838.0390625 c 0
 539.990234375 817.909179688 529.830078125 800.098632812 515.849609375 785.409179688 c 0
 502.610351562 771.489257812 486.629882812 761.119140625 469.030273438 754.008789062 c 0
 452.099609375 747.189453125 433.83984375 743.44921875 415.150390625 742.279296875 c 0
 409.940429688 741.94921875 404.709960938 741.819335938 399.440429688 741.87890625 c 0
 387.0703125 742.008789062 373.559570312 743.21875 359.190429688 745.939453125 c 0
 345.26953125 748.569335938 330.25 751.798828125 314.580078125 755.569335938 c 1
 311.1796875 743.029296875 307.849609375 730.369140625 304.580078125 717.499023438 c 1
 305.889648438 722.659179688 300.719726562 702.30859375 302.040039062 707.46875 c 1
 299.66015625 698.109375 297.23046875 688.5390625 294.719726562 678.909179688 c 1
 330.3203125 667.529296875 364.610351562 652.279296875 396.370117188 633.178710938 c 0
 435.6796875 609.529296875 466.690429688 582.749023438 490.400390625 556.109375 c 0
 513.98046875 529.62890625 528.459960938 505.409179688 537.1796875 488.399414062 c 1
 482.150390625 460.418945312 l 1
 475.389648438 473.888671875 463.9296875 493.71875 444.719726562 515.838867188 c 0
 425.330078125 538.149414062 399.299804688 561.338867188 365.41015625 582.178710938 c 0
 338.530273438 598.71875 309.280273438 612.178710938 278.73046875 622.329101562 c 1
 274.870117188 609.958984375 270.849609375 597.749023438 266.389648438 586.069335938 c 0
 259.0703125 566.859375 250.610351562 548.298828125 240.450195312 531.178710938 c 0
 230.209960938 513.909179688 218.190429688 498.018554688 203.759765625 484.348632812 c 0
 192.969726562 474.208984375 181.219726562 466.55859375 169.049804688 461.178710938 c 0
 156.509765625 455.619140625 143.75 452.548828125 131.330078125 451.458984375 c 0
 127.51953125 451.12890625 123.740234375 450.978515625 120.009765625 450.999023438 c 0
 97.5703125 451.138671875 76.75 457.418945312 59.509765625 467.208984375 c 0
 38.5400390625 479.119140625 19.830078125 497.978515625 9.1103515625 523.319335938 c 0
 4.099609375 535.178710938 0.759765625 548.71875 0.1103515625 563.689453125 c 0
 -0.01953125 566.859375 -0.0400390625 570.109375 0.080078125 573.409179688 c 0
 0.48046875 584.548828125 2.3603515625 596.178710938 5.9697265625 608.178710938 c 0
 12.0703125 628.268554688 22.2099609375 645.978515625 36.4501953125 660.44921875 c 0
 49.8701171875 674.098632812 65.900390625 683.819335938 83.2802734375 690.418945312 c 0
 100.139648438 696.798828125 118.08984375 700.178710938 136.080078125 701.569335938 c 0
 144.530273438 702.21875 153.049804688 702.439453125 161.530273438 702.319335938 c 0
 170.629882812 702.189453125 180.25 701.659179688 190.379882812 700.638671875 c 0
 204.219726562 699.239257812 218 697.088867188 231.73046875 694.569335938 c 1
 234.150390625 704.208984375 236.5703125 713.5390625 239.049804688 723.399414062 c 0
 239.900390625 726.779296875 240.759765625 730.159179688 241.620117188 733.5390625 c 0
 244.919921875 746.489257812 248.48046875 759.69921875 252.209960938 772.94921875 c 1
 230.650390625 779.7890625 208.450195312 787.71875 186.059570312 796.96875 c 0
 145.469726562 813.739257812 109.509765625 832.609375 78.0302734375 852.859375 c 0
 46.7998046875 872.955078125 24.0498046875 891.82421875 8.580078125 905.971679688 c 1
 50.3896484375 951.412109375 l 1
 63.6796875 939.081054688 83.51953125 922.215820312 111.25 903.953125 c 0
 139.25 885.502929688 171.780273438 867.918945312 209.110351562 852.048828125 c 0
 229.620117188 843.329101562 250.059570312 835.819335938 269.969726562 829.2890625 c 1
 272.389648438 836.018554688 274.889648438 842.69921875 277.540039062 849.298828125 c 0
 285.83984375 869.859375 295.440429688 889.879882812 306.879882812 908.702148438 c 0
 318.4296875 927.7109375 331.83984375 945.46484375 347.639648438 961.32421875 c 0
 358.209960938 971.806640625 369.849609375 979.76171875 382.040039062 985.387695312 c 0
 394.490234375 991.133789062 407.280273438 994.349609375 419.83984375 995.50390625 c 0
 423.740234375 995.862304688 427.610351562 996.022460938 431.4296875 995.998046875 c 0
430.98046875 937.494140625 m 0
 429.110351562 937.513671875 427.240234375 937.432617188 425.360351562 937.244140625 c 0
 419.349609375 936.634765625 413.33984375 934.922851562 407.530273438 931.956054688 c 0
 401.879882812 929.063476562 396.259765625 924.881835938 390.959960938 919.076171875 c 0
 379.379882812 906.83203125 369.259765625 892.763671875 360.290039062 877.073242188 c 0
 351.370117188 861.489257812 343.650390625 844.409179688 336.709960938 826.088867188 c 0
 334.9296875 821.388671875 333.33984375 816.518554688 331.66015625 811.69921875 c 1
 345.139648438 808.428710938 358.030273438 805.62890625 370.08984375 803.319335938 c 0
 380.940429688 801.21875 390.919921875 800.369140625 399.790039062 800.37890625 c 0
 403.5703125 800.388671875 407.259765625 800.548828125 410.870117188 800.859375 c 0
 423.919921875 802.018554688 435.450195312 805.138671875 445.150390625 809.739257812 c 0
 455.139648438 814.46875 463.0703125 820.708984375 469.219726562 828.018554688 c 0
 475.650390625 835.678710938 480.599609375 845.079101562 483.879882812 856.529296875 c 0
 485.700195312 862.819335938 486.629882812 868.569335938 486.950195312 873.780273438 c 0
 487.080078125 875.951171875 487.110351562 878.036132812 487.049804688 880.032226562 c 0
 486.849609375 887.198242188 485.5 893.5859375 483.48046875 899.19140625 c 0
 479.200195312 911.037109375 471.209960938 921.096679688 460.849609375 928.0078125 c 0
 452.309570312 933.708007812 441.9296875 937.37109375 430.98046875 937.494140625 c 0
160.969726562 643.819335938 m 0
 154.219726562 643.848632812 147.650390625 643.529296875 141.349609375 642.859375 c 0
 127.809570312 641.399414062 115.969726562 638.369140625 106.0703125 633.939453125 c 0
 96.01953125 629.44921875 88.349609375 623.749023438 82.400390625 616.918945312 c 0
 76.240234375 609.848632812 71.4404296875 600.978515625 68.2001953125 589.668945312 c 0
 66.1796875 582.71875 65.25 576.46875 65 570.918945312 c 0
 64.9296875 569.249023438 64.919921875 567.649414062 64.9599609375 566.109375 c 0
 65.1396484375 558.928710938 66.4697265625 552.619140625 68.41015625 547.168945312 c 0
 72.580078125 535.508789062 80.3603515625 525.678710938 90.5 518.928710938 c 0
 98.83984375 513.37890625 109.209960938 509.638671875 120.490234375 509.499023438 c 0
 122.33984375 509.478515625 124.209960938 509.55859375 126.08984375 509.728515625 c 0
 132.200195312 510.30859375 138.41015625 511.989257812 144.48046875 514.94921875 c 0
 150.33984375 517.798828125 156.209960938 521.939453125 161.790039062 527.678710938 c 0
 171.099609375 537.018554688 179.389648438 548.458984375 186.919921875 562.048828125 c 0
 194.419921875 575.579101562 201 590.939453125 207.049804688 607.978515625 c 0
 210.450195312 617.579101562 213.599609375 627.609375 216.629882812 637.888671875 c 1
 205.969726562 639.768554688 195.259765625 641.418945312 184.5 642.518554688 c 0
 176.059570312 643.37890625 168.209960938 643.7890625 160.969726562 643.819335938 c 0
EndSplineSet
EndChar

StartChar: uF190C
Encoding: 989452 989452 12
Width: 1000
Flags: H
LayerCount: 2
Fore
SplineSet
0 448 m 1
 552 448 l 1
 552 1000 l 1
 0 1000 l 1
 0 448 l 1
275.66015625 941.552734375 m 0
 243.349609375 941.552734375 214.169921875 936.208984375 188.139648438 925.518554688 c 0
 162.111328125 914.830078125 140.006835938 899.84375 121.830078125 880.563476562 c 0
 103.65234375 861.28125 89.6259765625 838.331054688 79.7529296875 811.712890625 c 0
 69.87890625 785.094726562 64.94140625 756.067382812 64.94140625 724.62890625 c 0
 64.94140625 692.771484375 69.87890625 663.534179688 79.7529296875 636.916015625 c 0
 89.6259765625 610.297851562 103.65234375 587.348632812 121.830078125 568.06640625 c 0
 140.006835938 548.784179688 162.111328125 533.693359375 188.139648438 522.794921875 c 0
 214.169921875 511.897460938 243.349609375 506.447265625 275.66015625 506.447265625 c 0
 307.98046875 506.447265625 337.259765625 511.897460938 363.51953125 522.794921875 c 0
 389.780273438 533.693359375 411.990234375 548.784179688 430.169921875 568.06640625 c 0
 448.349609375 587.348632812 462.370117188 610.297851562 472.25 636.916015625 c 0
 482.120117188 663.534179688 487.059570312 692.771484375 487.059570312 724.62890625 c 0
 487.059570312 756.067382812 482.120117188 785.094726562 472.25 811.712890625 c 0
 462.370117188 838.331054688 448.349609375 861.28125 430.169921875 880.563476562 c 0
 411.990234375 899.84375 389.780273438 914.830078125 363.51953125 925.518554688 c 0
 337.259765625 936.208984375 307.98046875 941.552734375 275.66015625 941.552734375 c 0
275.559570312 1000 m 0
 317.8203125 1000 356.120117188 993.219726562 390.450195312 979.659179688 c 0
 424.780273438 966.09765625 453.83984375 947.0859375 477.610351562 922.624023438 c 0
 501.379882812 898.162109375 519.719726562 869.045898438 532.629882812 835.27734375 c 0
 545.540039062 801.5078125 552 764.681640625 552 724.797851562 c 0
 552 684.380859375 545.540039062 647.2890625 532.629882812 613.51953125 c 0
 519.719726562 579.751953125 501.379882812 550.635742188 477.610351562 526.173828125 c 0
 453.83984375 501.7109375 424.780273438 482.56640625 390.450195312 468.740234375 c 0
 356.120117188 454.9140625 317.8203125 448 275.559570312 448 c 0
 233.299804688 448 195.150390625 454.9140625 161.110351562 468.740234375 c 0
 127.068359375 482.56640625 98.1630859375 501.7109375 74.392578125 526.173828125 c 0
 50.6220703125 550.635742188 32.28125 579.751953125 19.369140625 613.51953125 c 0
 6.4560546875 647.2890625 0 684.380859375 0 724.797851562 c 0
 0 764.681640625 6.4560546875 801.5078125 19.369140625 835.27734375 c 0
 32.28125 869.045898438 50.6220703125 898.162109375 74.392578125 922.624023438 c 0
 98.1630859375 947.0859375 127.068359375 966.09765625 161.110351562 979.659179688 c 0
 195.150390625 993.219726562 233.299804688 1000 275.559570312 1000 c 0
EndSplineSet
EndChar

StartChar: uF190D
Encoding: 989453 989453 13
Width: 1000
Flags: H
LayerCount: 2
Fore
SplineSet
0 448 m 1
 552 448 l 1
 552 1000 l 1
 0 1000 l 1
 0 448 l 1
88.6796875 608 m 1
 26 622.360351562 l 1
 36.26953125 659.830078125 l 1
 75.8203125 765.709960938 168.419921875 840 276.330078125 840 c 0
 384.25 840 476.83984375 765.709960938 516.389648438 659.830078125 c 1
 526 624.790039062 l 1
 463.360351562 610.440429688 l 1
 456.530273438 637.0703125 l 1
 426.83984375 721.959960938 357.33984375 781.51953125 276.330078125 781.51953125 c 0
 195.330078125 781.51953125 125.830078125 721.959960938 96.1396484375 637.0703125 c 1
 88.6796875 608 l 1
EndSplineSet
EndChar

StartChar: uF190E
Encoding: 989454 989454 14
Width: 1000
Flags: H
LayerCount: 2
Fore
SplineSet
0 448 m 1
 552 448 l 1
 552 1000 l 1
 0 1000 l 1
 0 448 l 1
308.5 925.52734375 m 1
 308.5 743.33984375 l 1
 471 743.33984375 l 1
 471 925.52734375 l 1
 308.5 925.52734375 l 1
81 925.52734375 m 1
 81 743.33984375 l 1
 243.5 743.33984375 l 1
 243.5 925.52734375 l 1
 81 925.52734375 l 1
16 984 m 1
 536 984 l 1
 536 684.870117188 l 1
 308.5 684.870117188 l 1
 308.5 448 l 1
 243.5 448 l 1
 243.5 684.870117188 l 1
 16 684.870117188 l 1
 16 984 l 1
EndSplineSet
EndChar

StartChar: uF190F
Encoding: 989455 989455 15
Width: 1000
Flags: H
LayerCount: 2
Fore
SplineSet
0 448 m 1
 552 448 l 1
 552 1000 l 1
 0 1000 l 1
 0 448 l 1
231 776 m 0
 231 800.852539062 251.150390625 821 276 821 c 0
 300.849609375 821 321 800.852539062 321 776 c 0
 321 751.147460938 300.849609375 731 276 731 c 0
 251.150390625 731 231 751.147460938 231 776 c 0
16 851 m 1
 81 851 l 1
 81 664.408203125 l 1
 471 664.408203125 l 1
 471 851 l 1
 536 851 l 1
 536 606 l 1
 16 606 l 1
 16 851 l 1
EndSplineSet
EndChar

StartChar: uF1910
Encoding: 989456 989456 16
Width: 1000
Flags: H
LayerCount: 2
Fore
SplineSet
0 1000 m 1
 0 448 l 1
 552 448 l 1
 552 1000 l 1
 0 1000 l 1
223.852539062 979.990234375 m 0
 244.775390625 979.759765625 264.918945312 976.419921875 282.747070312 969.26953125 c 1
 260.948242188 915.009765625 l 1
 245.381835938 921.259765625 205.58203125 923.190429688 174.581054688 915.379882812 c 0
 159.081054688 911.469726562 145.615234375 905.419921875 137.669921875 899.41015625 c 0
 129.725585938 893.389648438 127.899414062 889.469726562 127.594726562 885.16015625 c 0
 127.154296875 878.9296875 128.034179688 865.889648438 130.153320312 849.41015625 c 1
 167.995117188 867.83984375 215.146484375 877.66015625 270.919921875 877.669921875 c 0
 278.75 877.669921875 286.298828125 876.830078125 293.57421875 875.33984375 c 1
 321.674804688 893.879882812 355.887695312 906.450195312 394.959960938 904.799804688 c 0
 445.096679688 902.6796875 480.306640625 865.16015625 500.541015625 824.200195312 c 0
 520.775390625 783.23046875 529.701171875 735.83984375 528.958007812 695.049804688 c 0
 527.713867188 626.830078125 506.513671875 542.440429688 490.431640625 489.540039062 c 1
 434.451171875 506.51953125 l 1
 449.524414062 556.120117188 469.43359375 639.790039062 470.4609375 696.110351562 c 0
 471.021484375 726.849609375 463.09375 767.919921875 448.078125 798.3203125 c 0
 433.061523438 828.73046875 414.625 845.450195312 392.489257812 846.379882812 c 0
 379.709960938 846.919921875 367.6328125 844.9296875 356.22265625 841.309570312 c 1
 362.969726562 834.900390625 369.143554688 828.009765625 374.5703125 820.780273438 c 0
 397.83984375 789.790039062 411.063476562 753.099609375 411.418945312 718.599609375 c 0
 411.728515625 688.41015625 400.934570312 657.150390625 380.422851562 631.200195312 c 0
 382.787109375 628.6796875 385.095703125 626.08984375 387.288085938 623.360351562 c 0
 402.5703125 604.33984375 411.676757812 574.290039062 400.622070312 546.900390625 c 0
 384.594726562 507.190429688 346.959960938 486.360351562 309.981445312 476.16015625 c 0
 273.002929688 465.969726562 234.134765625 465.08984375 202.588867188 469.5703125 c 0
 112.387695312 482.389648438 35.3828125 551.330078125 25.3359375 649.209960938 c 0
 19.0673828125 710.280273438 34.703125 768.830078125 75.818359375 810.830078125 c 1
 70.021484375 842.120117188 67.8486328125 869.66015625 69.2333984375 889.280273438 c 0
 70.9365234375 913.419921875 85.390625 933.16015625 102.338867188 946 c 0
 119.286132812 958.830078125 139.321289062 966.790039062 160.274414062 972.0703125 c 0
 181.2265625 977.349609375 202.930664062 980.23046875 223.852539062 979.990234375 c 0
234.297851562 817.26953125 m 1
 194.657226562 813.33984375 164.095703125 803.150390625 141.391601562 788.849609375 c 1
 145.825195312 770.240234375 151.24609375 751.0703125 158.022460938 733 c 0
 169.3359375 702.83984375 183.973632812 675.110351562 199.912109375 656.709960938 c 0
 215.849609375 638.290039062 230.810546875 629.91015625 247.870117188 629.830078125 c 0
 260.658203125 629.780273438 271.965820312 631.169921875 282.143554688 633.530273438 c 1
 268.329101562 643.16015625 254.255859375 653.33984375 241.356445312 665.5703125 c 0
 222.986328125 682.969726562 206.110351562 705.690429688 203.913085938 735.01953125 c 0
 202.508789062 753.740234375 208.190429688 769.809570312 216.768554688 787.669921875 c 0
 221.447265625 797.41015625 227.364257812 807.379882812 234.297851562 817.26953125 c 1
303.697265625 808.860351562 m 0
 301.375976562 806.610351562 299.04296875 804.370117188 296.864257812 802.009765625 c 0
 284.81640625 788.969726562 275.380859375 774.580078125 269.513671875 762.370117188 c 0
 263.6484375 750.169921875 262.274414062 739.16015625 262.256835938 739.379882812 c 1
 262.938476562 730.290039062 268.640625 720.280273438 281.623046875 707.969726562 c 0
 294.60546875 695.66015625 313.58984375 682.790039062 332.900390625 669.400390625 c 0
 334.046875 668.599609375 335.1953125 667.780273438 336.345703125 666.98046875 c 0
 348.083007812 682.709960938 353.087890625 701.23046875 352.916015625 718 c 0
 352.7265625 736.450195312 343.432617188 764.83984375 327.7734375 785.690429688 c 0
 320.521484375 795.349609375 312.424804688 803.16015625 303.697265625 808.860351562 c 0
94.7529296875 736.8203125 m 1
 84.1015625 713.809570312 80.3115234375 686.58984375 83.5380859375 655.169921875 c 0
 90.82421875 584.190429688 144.224609375 536.91015625 210.830078125 527.440429688 c 0
 234.051757812 524.139648438 267.323242188 525.040039062 294.416992188 532.509765625 c 0
 321.510742188 539.98046875 339.880859375 552.709960938 346.360351562 568.759765625 c 0
 349.66015625 576.940429688 349.116210938 577.5 341.6640625 586.76953125 c 0
 340.083007812 588.740234375 337.9296875 590.91015625 335.633789062 593.139648438 c 0
 311.478515625 579.540039062 282.033203125 571.23046875 247.620117188 571.379882812 c 0
 210.08984375 571.540039062 178.587890625 591.98046875 155.6640625 618.459960938 c 0
 132.739257812 644.940429688 116.114257812 678.16015625 103.239257812 712.48046875 c 0
 100.193359375 720.599609375 97.38671875 728.73046875 94.7529296875 736.8203125 c 1
EndSplineSet
EndChar

StartChar: uF1911
Encoding: 989457 989457 17
Width: 1000
Flags: H
LayerCount: 2
Fore
SplineSet
0 448 m 1
 552 448 l 1
 552 1000 l 1
 0 1000 l 1
 0 448 l 1
276.23046875 941.549804688 m 0
 250.58984375 941.549804688 227.440429688 937.280273438 206.780273438 928.73046875 c 0
 186.129882812 920.169921875 168.5859375 908.190429688 154.162109375 892.759765625 c 0
 139.737304688 877.33984375 128.608398438 858.98046875 120.772460938 837.6796875 c 0
 112.936523438 816.389648438 109.018554688 793.16015625 109.018554688 768.009765625 c 0
 109.018554688 742.530273438 112.936523438 719.139648438 120.772460938 697.83984375 c 0
 128.608398438 676.549804688 139.737304688 658.190429688 154.162109375 642.759765625 c 0
 168.5859375 627.33984375 186.129882812 615.26953125 206.780273438 606.549804688 c 0
 227.440429688 597.830078125 250.58984375 593.469726562 276.23046875 593.469726562 c 0
 301.879882812 593.469726562 325.110351562 597.830078125 345.950195312 606.549804688 c 0
 366.780273438 615.26953125 384.41015625 627.33984375 398.83984375 642.759765625 c 0
 413.259765625 658.190429688 424.389648438 676.549804688 432.23046875 697.83984375 c 0
 440.059570312 719.139648438 443.98046875 742.530273438 443.98046875 768.009765625 c 0
 443.98046875 793.16015625 440.059570312 816.389648438 432.23046875 837.6796875 c 0
 424.389648438 858.98046875 413.259765625 877.33984375 398.83984375 892.759765625 c 0
 384.41015625 908.190429688 366.780273438 920.169921875 345.950195312 928.73046875 c 0
 325.110351562 937.280273438 301.879882812 941.549804688 276.23046875 941.549804688 c 0
276.129882812 1000 m 0
 311.709960938 1000 343.959960938 994.290039062 372.870117188 982.870117188 c 0
 401.780273438 971.440429688 426.240234375 955.4296875 446.259765625 934.8203125 c 0
 466.26953125 914.219726562 481.719726562 889.690429688 492.58984375 861.25 c 0
 503.459960938 832.799804688 508.900390625 801.780273438 508.900390625 768.1796875 c 0
 508.900390625 734.139648438 503.459960938 702.889648438 492.58984375 674.450195312 c 0
 481.719726562 646 466.26953125 621.48046875 446.259765625 600.870117188 c 2
 436.580078125 592.879882812 l 1
 520 486.48046875 l 1
 470.969726562 448 l 1
 384.349609375 558.469726562 l 1
 372.870117188 552.490234375 l 2
 343.959960938 540.83984375 311.709960938 535.01953125 276.129882812 535.01953125 c 0
 240.549804688 535.01953125 208.419921875 540.83984375 179.760742188 552.490234375 c 2
 168.561523438 558.360351562 l 1
 82.0341796875 448 l 1
 33 486.48046875 l 1
 116.413085938 592.860351562 l 1
 106.744140625 600.870117188 l 2
 86.7275390625 621.48046875 71.28515625 646 60.4130859375 674.450195312 c 0
 49.5400390625 702.889648438 44.103515625 734.139648438 44.103515625 768.1796875 c 0
 44.103515625 801.780273438 49.5400390625 832.799804688 60.4130859375 861.25 c 0
 71.28515625 889.690429688 86.7275390625 914.219726562 106.744140625 934.8203125 c 0
 126.758789062 955.4296875 151.09765625 971.440429688 179.760742188 982.870117188 c 0
 208.419921875 994.290039062 240.549804688 1000 276.129882812 1000 c 0
EndSplineSet
EndChar

StartChar: uF1912
Encoding: 989458 989458 18
Width: 1000
Flags: H
LayerCount: 2
Fore
SplineSet
0 448 m 1
 553 448 l 1
 553 1000 l 1
 0 1000 l 1
 0 448 l 1
284.490234375 662.849609375 m 1
 276.280273438 662.150390625 l 1
 268.490234375 662.8203125 l 1
 168.389648438 519.849609375 l 1
 384.610351562 519.849609375 l 1
 384.610351562 519.849609375 l 1
 384.610351562 519.849609375 l 1
 284.490234375 662.849609375 l 1
276.379882812 876.450195312 m 0
 264.650390625 876.450195312 254.0703125 874.509765625 244.620117188 870.620117188 c 0
 235.1796875 866.719726562 227.16015625 861.26953125 220.559570312 854.240234375 c 0
 213.959960938 847.219726562 208.879882812 838.860351562 205.290039062 829.169921875 c 0
 201.709960938 819.48046875 199.919921875 808.900390625 199.919921875 797.459960938 c 0
 199.919921875 785.849609375 201.709960938 775.209960938 205.290039062 765.509765625 c 0
 208.879882812 755.8203125 213.959960938 747.459960938 220.559570312 740.440429688 c 0
 227.16015625 733.419921875 235.1796875 727.919921875 244.620117188 723.950195312 c 0
 254.0703125 719.98046875 264.650390625 718 276.379882812 718 c 0
 288.099609375 718 298.73046875 719.98046875 308.259765625 723.950195312 c 0
 317.780273438 727.919921875 325.83984375 733.419921875 332.440429688 740.440429688 c 0
 339.040039062 747.459960938 344.120117188 755.8203125 347.709960938 765.509765625 c 0
 351.290039062 775.209960938 353.080078125 785.849609375 353.080078125 797.459960938 c 0
 353.080078125 808.900390625 351.290039062 819.48046875 347.709960938 829.169921875 c 0
 344.120117188 838.860351562 339.040039062 847.219726562 332.440429688 854.240234375 c 0
 325.83984375 861.26953125 317.780273438 866.719726562 308.259765625 870.620117188 c 0
 298.73046875 874.509765625 288.099609375 876.450195312 276.379882812 876.450195312 c 0
244.049804688 999 m 1
 308.950195312 999 l 1
 308.950195312 928.940429688 l 1
 332.48046875 922.349609375 l 2
 349.26953125 915.709960938 363.48046875 906.41015625 375.110351562 894.440429688 c 0
 386.73046875 882.459960938 395.700195312 868.209960938 402.01953125 851.690429688 c 2
 408.940429688 826.450195312 l 1
 506 826.450195312 l 1
 506 768 l 1
 408.799804688 768 l 1
 402.01953125 743.16015625 l 2
 395.700195312 726.629882812 386.73046875 712.379882812 375.110351562 700.41015625 c 0
 369.290039062 694.419921875 362.830078125 689.08984375 355.73046875 684.400390625 c 2
 347.91015625 680.330078125 l 1
 494.580078125 464 l 1
 58.419921875 464 l 1
 205.0703125 680.290039062 l 1
 197.219726562 684.400390625 l 2
 190.150390625 689.08984375 183.709960938 694.419921875 177.889648438 700.41015625 c 0
 166.26953125 712.379882812 157.299804688 726.629882812 150.98046875 743.16015625 c 2
 144.190429688 768 l 1
 47 768 l 1
 47 826.450195312 l 1
 144.059570312 826.450195312 l 1
 150.98046875 851.690429688 l 2
 157.299804688 868.209960938 166.26953125 882.459960938 177.889648438 894.440429688 c 0
 189.51953125 906.41015625 203.66015625 915.709960938 220.309570312 922.349609375 c 2
 244.049804688 929.040039062 l 1
 244.049804688 999 l 1
EndSplineSet
EndChar

StartChar: uF1913
Encoding: 989459 989459 19
Width: 1000
Flags: H
LayerCount: 2
Fore
SplineSet
0 448 m 1
 552 448 l 1
 552 1000 l 1
 0 1000 l 1
 0 448 l 1
288.379882812 941.549804688 m 0
 279.33984375 941.549804688 271.1796875 939.940429688 263.900390625 936.719726562 c 0
 256.629882812 933.5 250.440429688 928.98046875 245.360351562 923.16015625 c 0
 240.280273438 917.349609375 236.360351562 910.4296875 233.599609375 902.41015625 c 0
 230.83984375 894.379882812 229.450195312 885.629882812 229.450195312 876.150390625 c 0
 229.450195312 866.549804688 230.83984375 857.73046875 233.599609375 849.709960938 c 0
 236.360351562 841.6796875 240.280273438 834.759765625 245.360351562 828.950195312 c 0
 250.440429688 823.139648438 256.629882812 818.58984375 263.900390625 815.299804688 c 0
 271.1796875 812.009765625 279.33984375 810.370117188 288.379882812 810.370117188 c 0
 297.41015625 810.370117188 305.599609375 812.009765625 312.940429688 815.299804688 c 0
 320.280273438 818.58984375 326.5 823.139648438 331.580078125 828.950195312 c 0
 336.66015625 834.759765625 340.580078125 841.6796875 343.33984375 849.709960938 c 0
 346.099609375 857.73046875 347.48046875 866.549804688 347.48046875 876.150390625 c 0
 347.48046875 885.629882812 346.099609375 894.379882812 343.33984375 902.41015625 c 0
 340.580078125 910.4296875 336.66015625 917.349609375 331.580078125 923.16015625 c 0
 326.5 928.98046875 320.280273438 933.5 312.940429688 936.719726562 c 0
 305.599609375 939.940429688 297.41015625 941.549804688 288.379882812 941.549804688 c 0
288.26953125 1000 m 0
 307.240234375 1000 324.419921875 996.950195312 339.830078125 990.860351562 c 0
 355.240234375 984.759765625 368.280273438 976.219726562 378.950195312 965.23046875 c 0
 389.620117188 954.23046875 397.849609375 941.150390625 403.639648438 925.969726562 c 0
 409.440429688 910.799804688 412.33984375 894.25 412.33984375 876.3203125 c 0
 412.33984375 858.16015625 409.440429688 841.490234375 403.639648438 826.309570312 c 0
 397.849609375 811.139648438 389.620117188 798.049804688 378.950195312 787.059570312 c 0
 368.280273438 776.059570312 355.240234375 767.459960938 339.830078125 761.25 c 0
 324.419921875 755.030273438 307.240234375 751.919921875 288.26953125 751.919921875 c 0
 269.309570312 751.919921875 252.190429688 755.030273438 236.91015625 761.25 c 0
 229.26953125 764.349609375 222.209960938 768.059570312 215.719726562 772.360351562 c 2
 202.309570312 783.469726562 l 1
 182.830078125 766.650390625 l 2
 170.379882812 753.240234375 160.76953125 737.280273438 154 718.76953125 c 0
 147.23046875 700.25 143.849609375 680.059570312 143.849609375 658.200195312 c 0
 143.849609375 636.040039062 147.23046875 615.700195312 154 597.190429688 c 0
 160.76953125 578.6796875 170.379882812 562.719726562 182.830078125 549.299804688 c 0
 195.290039062 535.889648438 210.4296875 525.400390625 228.26953125 517.8203125 c 0
 237.190429688 514.030273438 246.650390625 511.1796875 256.639648438 509.290039062 c 2
 288.290039062 506.46484375 l 1
 314.540039062 509.290039062 l 2
 322.860351562 511.1796875 330.759765625 514.030273438 338.219726562 517.8203125 c 0
 353.150390625 525.400390625 365.76953125 535.889648438 376.110351562 549.299804688 c 0
 386.440429688 562.719726562 394.41015625 578.6796875 400.030273438 597.190429688 c 2
 403.860351562 614.889648438 l 1
 233.91015625 614.889648438 l 1
 233.91015625 673.33984375 l 1
 471.889648438 673.33984375 l 1
 473 658.370117188 l 1
 469.809570312 614.889648438 l 1
 469.759765625 614.190429688 l 2
 467.599609375 600.08984375 464.370117188 586.629882812 460.049804688 573.799804688 c 0
 451.419921875 548.129882812 439.150390625 526 423.259765625 507.41015625 c 0
 407.370117188 488.8203125 387.950195312 474.26953125 364.990234375 463.759765625 c 0
 353.509765625 458.509765625 341.370117188 454.5703125 328.5703125 451.940429688 c 2
 289.120117188 448.08984375 l 1
 289.120117188 448.080078125 l 1
 288.469726562 448.030273438 l 1
 288.1796875 448 l 1
 288.16015625 448 l 1
 288.139648438 448 l 2
 256.059570312 448 227.110351562 453.25 201.26953125 463.759765625 c 0
 175.440429688 474.26953125 153.5 488.8203125 135.459960938 507.41015625 c 0
 117.419921875 526 103.5 548.129882812 93.7001953125 573.799804688 c 0
 83.900390625 599.459960938 79 627.650390625 79 658.370117188 c 0
 79 688.6796875 83.900390625 716.669921875 93.7001953125 742.330078125 c 0
 103.5 768 117.419921875 790.120117188 135.459960938 808.709960938 c 0
 144.48046875 818.009765625 154.469726562 826.26953125 165.440429688 833.490234375 c 2
 170.610351562 836.169921875 l 1
 166.780273438 850.200195312 l 2
 165.330078125 858.530273438 164.599609375 867.240234375 164.599609375 876.3203125 c 0
 164.599609375 894.25 167.5 910.799804688 173.299804688 925.969726562 c 0
 179.08984375 941.150390625 187.3203125 954.23046875 197.990234375 965.23046875 c 0
 208.66015625 976.219726562 221.629882812 984.759765625 236.91015625 990.860351562 c 0
 252.190429688 996.950195312 269.309570312 1000 288.26953125 1000 c 0
EndSplineSet
EndChar

StartChar: uF1914
Encoding: 989460 989460 20
Width: 1000
Flags: H
LayerCount: 2
Fore
SplineSet
0 448 m 1
 552 448 l 1
 552 1000 l 1
 0 1000 l 1
 0 448 l 1
365.5703125 823.540039062 m 1
 297.799804688 823.540039062 233.540039062 793.809570312 175.940429688 740.58984375 c 1
 159.3203125 723.5 l 1
 175.940429688 706.41015625 l 1
 233.540039062 653.190429688 297.799804688 623.459960938 365.5703125 623.459960938 c 1
 366.219726562 623.530273438 l 1
 366.219726562 623.459960938 l 1
 390.83984375 625.5 l 1
 446.5 634.8203125 488.379882812 675.16015625 488.379882812 723.5 c 0
 488.379882812 771.83984375 446.5 812.1796875 390.83984375 821.5 c 1
 366.219726562 823.540039062 l 1
 366.219726562 823.469726562 l 1
 365.5703125 823.540039062 l 1
365.5703125 882 m 1
 366.219726562 881.940429688 l 1
 366.219726562 882 l 1
 468.8203125 882 552 811.040039062 552 723.5 c 0
 552 635.959960938 468.8203125 565 366.219726562 565 c 1
 366.219726562 565.059570312 l 1
 365.5703125 565 l 1
 294.639648438 565 227.080078125 591.48046875 165.620117188 639.379882812 c 1
 120.830078125 679.129882812 l 1
 110.209960938 665.849609375 l 2
 99.8603515625 651.639648438 89.8203125 636.599609375 80.1298828125 620.759765625 c 2
 51.830078125 569.879882812 l 1
 0 600.049804688 l 1
 2.33984375 604.790039062 l 2
 25.580078125 647.610351562 51.0302734375 686.33984375 78.3603515625 720.360351562 c 2
 81.169921875 723.5 l 1
 78.3603515625 726.639648438 l 2
 51.0302734375 760.66015625 25.580078125 799.389648438 2.33984375 842.209960938 c 2
 0 846.950195312 l 1
 51.830078125 877.120117188 l 1
 80.1298828125 826.240234375 l 2
 89.8203125 810.400390625 99.8603515625 795.360351562 110.209960938 781.150390625 c 2
 120.830078125 767.870117188 l 1
 165.620117188 807.620117188 l 1
 227.080078125 855.51953125 294.639648438 882 365.5703125 882 c 1
EndSplineSet
EndChar

StartChar: uF1915
Encoding: 989461 989461 21
Width: 1000
Flags: H
LayerCount: 2
Fore
SplineSet
0 448 m 1
 552 448 l 1
 552 1000 l 1
 0 1000 l 1
 0 448 l 1
243 791 m 1
 243 952 l 1
 308 952 l 1
 308 791 l 1
 243 791 l 1
449.700195312 945.328125 m 1
 503.709960938 914.147460938 l 1
 423.16015625 774.627929688 l 1
 369.150390625 805.809570312 l 1
 449.700195312 945.328125 l 1
47.740234375 914.147460938 m 1
 101.75 945.328125 l 1
 182.299804688 805.809570312 l 1
 128.290039062 774.627929688 l 1
 47.740234375 914.147460938 l 1
128.549804688 669.088867188 m 1
 138.849609375 646.7578125 l 2
 172.110351562 582.904296875 221.219726562 542.51171875 276 542.51171875 c 0
 330.780273438 542.51171875 379.889648438 582.904296875 413.150390625 646.7578125 c 2
 423.450195312 669.088867188 l 1
 128.549804688 669.088867188 l 1
50 725 m 1
 78.9501953125 725 l 1
 109.440429688 725 l 1
 442.559570312 725 l 1
 455.080078125 725 l 1
 502 725 l 1
 497.639648438 703.9765625 l 1
 461.120117188 574.706054688 375.639648438 484 276 484 c 0
 176.360351562 484 90.8701171875 574.706054688 54.3603515625 703.9765625 c 1
 50 725 l 1
EndSplineSet
EndChar

StartChar: uF1916
Encoding: 989462 989462 22
Width: 1000
Flags: H
LayerCount: 2
Fore
SplineSet
0 448 m 1
 552 448 l 1
 552 1000 l 1
 0 1000 l 1
 0 448 l 1
261.240234375 1000 m 1
 321.299804688 1000 l 1
 552 464 l 1
 315.709960938 464 l 1
 315.709960938 522.462890625 l 1
 458.91015625 522.462890625 l 1
 297.799804688 909.9609375 l 1
 195.91015625 464 l 1
 17 464 l 1
 17 522.462890625 l 1
 145.83984375 522.462890625 l 1
 261.240234375 1000 l 1
EndSplineSet
EndChar

StartChar: uF1919
Encoding: 989465 989465 23
Width: 1000
Flags: H
LayerCount: 2
Fore
SplineSet
0 448 m 1
 552 448 l 1
 552 1000 l 1
 0 1000 l 1
 0 448 l 1
94.3701171875 984 m 1
 282.700195312 984 l 1
 347.659179688 984 l 1
 535.999023438 984 l 1
 535.999023438 784.94921875 l 1
 347.659179688 784.94921875 l 1
 347.659179688 731.119140625 l 1
 353.979492188 730.580078125 l 2
 366.370117188 728.390625 378.12890625 725.099609375 389.239257812 720.69921875 c 0
 411.458984375 711.918945312 430.26953125 699.609375 445.649414062 683.76953125 c 0
 461.040039062 667.9296875 472.911132812 649.069335938 481.270507812 627.19921875 c 0
 489.62109375 605.33984375 493.799804688 581.490234375 493.799804688 555.66015625 c 2
 493.409179688 550.91015625 l 1
 493.799804688 550.91015625 l 1
 493.799804688 470 l 1
 474.510742188 470 l 1
 428.870117188 470 l 1
 428.870117188 550.91015625 l 1
 428.479492188 550.91015625 l 1
 428.838867188 555.490234375 l 2
 428.838867188 572.870117188 426.180664062 588.909179688 420.860351562 603.619140625 c 0
 415.55078125 618.329101562 407.990234375 631.020507812 398.200195312 641.669921875 c 0
 388.41015625 652.330078125 376.439453125 660.609375 362.299804688 666.51953125 c 0
 348.16015625 672.4296875 332.379882812 675.37890625 314.979492188 675.37890625 c 0
 297.569335938 675.37890625 281.858398438 672.4296875 267.838867188 666.51953125 c 0
 253.819335938 660.609375 241.91015625 652.330078125 232.120117188 641.669921875 c 0
 222.330078125 631.020507812 214.770507812 618.329101562 209.450195312 603.619140625 c 0
 204.140625 588.909179688 201.479492188 572.870117188 201.479492188 555.490234375 c 2
 201.838867188 550.91015625 l 1
 201.499023438 550.91015625 l 1
 201.499023438 470 l 1
 127.999023438 470 l 1
 1.9990234375 629.859375 l 1
 50.9697265625 668.490234375 l 1
 95.6181640625 611.84375 l 1
 143.442382812 527.298828125 l 1
 137.629882812 568.94140625 l 1
 139.649414062 592.919921875 l 2
 141.739257812 604.83984375 144.870117188 616.26953125 149.049804688 627.19921875 c 0
 157.41015625 649.069335938 169.279296875 667.9296875 184.668945312 683.76953125 c 0
 200.048828125 699.609375 218.759765625 711.918945312 240.799804688 720.69921875 c 0
 251.809570312 725.099609375 263.489257812 728.390625 275.838867188 730.580078125 c 2
 282.700195312 731.16015625 l 1
 282.700195312 784.94921875 l 1
 94.3701171875 784.94921875 l 1
 94.3701171875 984 l 1
159.280273438 925.419921875 m 1
 159.280273438 843.529296875 l 1
 282.700195312 843.529296875 l 1
 282.700195312 925.419921875 l 1
 159.280273438 925.419921875 l 1
347.659179688 925.419921875 m 1
 347.659179688 843.529296875 l 1
 471.088867188 843.529296875 l 1
 471.088867188 925.419921875 l 1
 347.659179688 925.419921875 l 1
EndSplineSet
EndChar

StartChar: uF191A
Encoding: 989466 989466 24
Width: 1000
Flags: H
LayerCount: 2
Fore
SplineSet
552.000976562 1000 m 1
 0.0009765625 1000 l 1
 0.0009765625 448 l 1
 552.000976562 448 l 1
 552.000976562 1000 l 1
138.19140625 862.075195312 m 2
 137.090820312 862.053710938 l 2
 105.571289062 862.032226562 75.30078125 832.862304688 69.6005859375 799.586914062 c 2
 69.470703125 798.89453125 l 2
 66.94140625 785.750976562 65.5009765625 772.30078125 65.041015625 758.67578125 c 2
 65.111328125 756.375 l 1
 65.041015625 755.7109375 l 2
 64.5712890625 742.607421875 65.060546875 729.333984375 66.4013671875 716.017578125 c 2
 71.9912109375 681.147460938 l 1
 72.810546875 675.861328125 l 2
 75.701171875 662.053710938 79.310546875 648.33203125 83.5107421875 634.82421875 c 2
 83.541015625 634.7265625 l 2
 100.831054688 578.53125 145.55078125 531.220703125 199.541015625 516.805664062 c 2
 199.741210938 516.752929688 l 2
 259.180664062 500.473632812 323.901367188 502.379882812 378.78125 527.196289062 c 1
 378.831054688 527.213867188 l 1
 432.28125 551.287109375 467.291015625 611.19140625 478.651367188 674.198242188 c 2
 479.661132812 681.146484375 l 1
 484.571289062 713.552734375 l 2
 486.021484375 726.435546875 486.850585938 739.114257812 486.771484375 751.404296875 c 2
 486.670898438 752.45703125 l 1
 486.771484375 754.198242188 l 2
 486.600585938 779.756835938 482.78125 803.70703125 472.9609375 824.548828125 c 0
 458.901367188 854.110351562 418.731445312 869.153320312 387.430664062 858.791015625 c 2
 386.53125 858.508789062 l 2
 352.250976562 848.288085938 320.430664062 830.502929688 301.420898438 804.993164062 c 1
 300.94140625 804.989257812 l 1
 275.30078125 777.853515625 l 1
 249.53125 805.130859375 l 1
 249.970703125 805.130859375 l 1
 229.890625 825.706054688 l 2
 206.720703125 844.8046875 176.821289062 857.436523438 146.731445312 861.786132812 c 0
 143.731445312 862.046875 140.850585938 862.170898438 138.19140625 862.075195312 c 2
243.87109375 1000 m 1
 308.821289062 1000 l 1
 308.821289062 876.52734375 l 1
 320.161132812 885.521484375 l 2
 335.831054688 896.370117188 352.05078125 904.72265625 368.010742188 911.192382812 c 0
 383.321289062 917.986328125 399.250976562 920.943359375 415.010742188 920.211914062 c 1
 414.361328125 920.2109375 l 1
 415.010742188 920.244140625 l 2
 462.560546875 918.673828125 508.571289062 893.313476562 531.081054688 847.735351562 c 2
 531.12109375 847.651367188 l 2
 561.560546875 785.561523438 552.581054688 718.4453125 542.37109375 662.706054688 c 2
 542.350585938 662.580078125 l 2
 527.981445312 585.831054688 483.571289062 507.85546875 404.600585938 473.643554688 c 0
 334.041015625 442.962890625 255.021484375 441.489257812 183.361328125 460.338867188 c 0
 105.430664062 480.376953125 45.6513671875 542.323242188 21.8310546875 616.71875 c 0
 2.7109375 675.90234375 -7.0185546875 741.6640625 5.8408203125 806.614257812 c 0
 17.041015625 868.909179688 70.53125 919.673828125 136.651367188 919.924804688 c 2
 141.430664062 919.772460938 l 1
 136.651367188 919.763671875 l 1
 142.380859375 919.997070312 147.930664062 919.704101562 153.260742188 919.01953125 c 2
 154.630859375 918.80078125 l 2
 176.291015625 914.709960938 197.94140625 906.5859375 218.470703125 894.305664062 c 2
 243.87109375 875.952148438 l 1
 243.87109375 1000 l 1
EndSplineSet
EndChar

StartChar: uF191B
Encoding: 989467 989467 25
Width: 1000
Flags: H
LayerCount: 2
Fore
SplineSet
16 448 m 1
 568 448 l 1
 568 1000 l 1
 16 1000 l 1
 16 448 l 1
184.764648438 892.509765625 m 1
 83.9482421875 772.08984375 l 1
 83.9482421875 772.08984375 l 1
 292 557.610351562 l 1
 500.051757812 772.08984375 l 1
 500.052734375 772.08984375 l 1
 399.235351562 892.509765625 l 1
 399.235351562 892.509765625 l 1
 184.764648438 892.509765625 l 1
152.358398438 951 m 1
 431.641601562 951 l 1
 584 769.01953125 l 1
 292 468 l 1
 0 769.01953125 l 1
 152.358398438 951 l 1
EndSplineSet
EndChar

StartChar: uF191C
Encoding: 989468 989468 26
Width: 1000
Flags: H
LayerCount: 2
Fore
SplineSet
0 1000 m 1
 0 447.998046875 l 1
 551.99609375 447.998046875 l 1
 551.99609375 1000 l 1
 0 1000 l 1
173.069335938 902.369140625 m 1
 173.404296875 881.8515625 178.588867188 861.528320312 177.150390625 840.91796875 c 0
 175.291015625 796.618164062 133.62109375 772.557617188 101.184570312 750.158203125 c 0
 75.2138671875 735.927734375 56.0078125 703.227539062 68.6328125 674.108398438 c 1
 98.9150390625 632.158203125 157.120117188 615.948242188 177.93359375 565.887695312 c 0
 188.74609375 543.09765625 193.15625 502.248046875 228.305664062 510.73828125 c 0
 276.465820312 517.877929688 304.896484375 566.34765625 351.986328125 577.09765625 c 0
 384.56640625 588.087890625 416.276367188 571.198242188 448.215820312 567.828125 c 0
 478.805664062 567.98828125 493.356445312 601.557617188 485.715820312 628.047851562 c 0
 473.465820312 663.158203125 444.685546875 689.328125 427.616210938 722.0078125 c 0
 407.965820312 752.127929688 407.396484375 790.498046875 421.786132812 822.837890625 c 0
 431.42578125 844.358398438 440.286132812 873.111328125 419.116210938 891.153320312 c 0
 382.385742188 925.330078125 329.625976562 935.771484375 280.935546875 937.461914062 c 0
 243.326171875 936.813476562 198.475585938 933.939453125 173.069335938 902.369140625 c 1
124.96484375 935.240234375 m 0
 138.037109375 954.481445312 157.578125 968.487304688 178.765625 977.57421875 c 0
 244.5859375 1003.40136719 319.576171875 1000.14648438 386.396484375 979.76171875 c 0
 435.786132812 964.338867188 487.736328125 930.268554688 496.366210938 875.334960938 c 0
 503.185546875 839.748046875 481.856445312 807.998046875 476.225585938 774.198242188 c 1
 484.625976562 730.547851562 522.545898438 700.797851562 541.0859375 661.717773438 c 0
 565.475585938 613.078125 548.276367188 544.908203125 496.696289062 521.717773438 c 0
 465.385742188 503.627929688 427.74609375 508.84765625 395.116210938 520.137695312 c 0
 367.42578125 529.677734375 345.15625 505.73828125 324.375976562 491.578125 c 0
 283.975585938 460.108398438 227.366210938 439.307617188 177.748046875 460.797851562 c 0
 142.602539062 476.198242188 131.514648438 515.377929688 116.612304688 547.198242188 c 1
 87.3720703125 585.3984375 36.34375 602.227539062 12.0654296875 645.087890625 c 0
 -17.1064453125 697.208007812 9.8154296875 765.807617188 58.6572265625 795.528320312 c 1
 76.458984375 811.5078125 108.081054688 820.677734375 112.638671875 846.477539062 c 1
 108.641601562 876.193359375 103.21484375 910.49609375 124.96484375 935.240234375 c 0
EndSplineSet
EndChar

StartChar: uF191D
Encoding: 989469 989469 27
Width: 1000
Flags: H
LayerCount: 2
Fore
SplineSet
0 1000 m 1
 0 447.998046875 l 1
 553 447.998046875 l 1
 553 1000 l 1
 0 1000 l 1
235.450195312 978.940429688 m 1
 255.0703125 922.23046875 l 1
 255.0703125 922.23046875 255.389648438 922.345703125 255.0703125 922.23046875 c 1
 243.959960938 918.245117188 228.259765625 911.733398438 213.799804688 902.112304688 c 0
 203.620117188 895.338867188 195.25 887.833007812 188.669921875 879.484375 c 0
 182.419921875 871.578125 178.01953125 863.217773438 174.950195312 854.3984375 c 0
 171.400390625 844.198242188 169.76953125 833.767578125 169.0703125 823.948242188 c 0
 168.900390625 821.608398438 168.830078125 819.448242188 168.8203125 817.458007812 c 0
 168.780273438 811.087890625 169.41015625 805.688476562 170.3203125 801.068359375 c 0
 171.669921875 794.217773438 173.870117188 788.087890625 176.580078125 782.41796875 c 0
 179.540039062 776.23828125 183.309570312 770.1484375 187.889648438 763.818359375 c 0
 192.490234375 757.458007812 197.599609375 751.248046875 203.900390625 743.778320312 c 0
 215.719726562 729.788085938 230.190429688 713.328125 240.959960938 692.908203125 c 0
 246.219726562 682.938476562 251.049804688 671.217773438 254.209960938 657.448242188 c 0
 256.530273438 647.297851562 258.009765625 635.828125 258 622.887695312 c 0
 257.990234375 620.23828125 257.9296875 617.467773438 257.790039062 614.608398438 c 0
 257.040039062 599.028320312 253.379882812 581.498046875 245.120117188 563.34765625 c 0
 238.009765625 547.748046875 228.139648438 533.127929688 215.990234375 520.118164062 c 0
 200.639648438 503.708007812 183.209960938 491.48828125 166.110351562 482.887695312 c 0
 149.120117188 474.34765625 134.139648438 470.208007812 124.349609375 468.028320312 c 1
 124.009765625 467.958007812 124.349609375 468.028320312 124.349609375 468.028320312 c 1
 110.719726562 526.477539062 l 1
 110.719726562 526.477539062 110.490234375 526.41796875 110.719726562 526.477539062 c 1
 117.099609375 528.078125 126.879882812 531.158203125 137.860351562 537.208007812 c 0
 148.969726562 543.307617188 160 551.727539062 169.4296875 562.547851562 c 0
 176.889648438 571.09765625 182.549804688 580.248046875 186.440429688 589.438476562 c 0
 190.919921875 600.038085938 192.650390625 609.658203125 193.040039062 617.73828125 c 0
 193.129882812 619.608398438 193.169921875 621.377929688 193.1796875 623.057617188 c 0
 193.219726562 631.127929688 192.4296875 637.8984375 191.26953125 643.608398438 c 0
 189.709960938 651.358398438 187.290039062 658.16796875 184.41015625 664.328125 c 0
 178.16015625 677.688476562 169.200195312 689.3984375 156.889648438 703.98828125 c 0
 150.799804688 711.177734375 144.459960938 718.467773438 138.370117188 726.227539062 c 0
 132.209960938 734.078125 125.8203125 743.0078125 120.299804688 753.198242188 c 0
 115.129882812 762.717773438 110.349609375 774.038085938 107.309570312 787.377929688 c 0
 105.280273438 796.337890625 103.990234375 806.377929688 104 817.59765625 c 0
 104.009765625 821.057617188 104.129882812 824.708007812 104.400390625 828.557617188 c 0
 105.41015625 842.6484375 108.169921875 859.3984375 114.75 876.655273438 c 0
 120.530273438 891.853515625 128.849609375 906.340820312 140.200195312 919.676757812 c 0
 152.030273438 933.580078125 165.950195312 944.814453125 180.809570312 953.994140625 c 0
 201.440429688 966.747070312 222.41015625 974.552734375 235.450195312 978.940429688 c 1
 235.849609375 979.073242188 235.450195312 978.940429688 235.450195312 978.940429688 c 1
317.549804688 468.057617188 m 1
 297.9296875 524.767578125 l 1
 297.9296875 524.767578125 297.599609375 524.6484375 297.9296875 524.767578125 c 1
 309.040039062 528.7578125 324.740234375 535.267578125 339.200195312 544.887695312 c 0
 349.379882812 551.658203125 357.75 559.16796875 364.33984375 567.517578125 c 0
 370.5703125 575.427734375 374.969726562 583.788085938 378.049804688 592.608398438 c 0
 381.610351562 602.797851562 383.23046875 613.227539062 383.9296875 623.057617188 c 0
 384.099609375 625.3984375 384.169921875 627.547851562 384.1796875 629.538085938 c 0
 384.209960938 635.908203125 383.58984375 641.318359375 382.690429688 645.927734375 c 0
 381.330078125 652.778320312 379.129882812 658.908203125 376.419921875 664.587890625 c 0
 373.469726562 670.767578125 369.690429688 676.84765625 365.099609375 683.177734375 c 0
 360.509765625 689.538085938 355.41015625 695.7578125 349.099609375 703.227539062 c 0
 337.290039062 717.208007812 322.799804688 733.66796875 312.030273438 754.087890625 c 0
 306.780273438 764.057617188 301.950195312 775.788085938 298.790039062 789.547851562 c 0
 296.459960938 799.708007812 294.990234375 811.16796875 295 824.118164062 c 0
 295 826.7578125 295.0703125 829.528320312 295.209960938 832.387695312 c 0
 295.959960938 847.977539062 299.610351562 865.498046875 307.879882812 883.649414062 c 0
 314.990234375 899.249023438 324.849609375 913.874023438 337.01953125 926.881835938 c 0
 352.360351562 943.296875 369.790039062 955.508789062 386.889648438 964.10546875 c 0
 403.879882812 972.646484375 418.870117188 976.7890625 428.650390625 978.96484375 c 1
 428.990234375 979.041992188 428.650390625 978.96484375 428.650390625 978.96484375 c 1
 442.280273438 920.525390625 l 1
 442.280273438 920.525390625 442.5 920.581054688 442.280273438 920.525390625 c 1
 435.900390625 918.921875 426.129882812 915.834960938 415.139648438 909.795898438 c 0
 404.030273438 903.689453125 393 895.274414062 383.559570312 884.452148438 c 0
 376.110351562 875.900390625 370.450195312 866.748046875 366.559570312 857.557617188 c 0
 362.0703125 846.967773438 360.360351562 837.337890625 359.969726562 829.2578125 c 0
 359.879882812 827.387695312 359.830078125 825.618164062 359.8203125 823.948242188 c 0
 359.780273438 815.877929688 360.5703125 809.09765625 361.719726562 803.387695312 c 0
 363.290039062 795.637695312 365.709960938 788.828125 368.599609375 782.677734375 c 0
 374.83984375 769.307617188 383.799804688 757.59765625 396.120117188 743.017578125 c 0
 402.190429688 735.828125 408.549804688 728.538085938 414.639648438 720.778320312 c 0
 420.799804688 712.927734375 427.1796875 703.998046875 432.709960938 693.797851562 c 0
 437.860351562 684.278320312 442.66015625 672.967773438 445.700195312 659.618164062 c 0
 447.73046875 650.658203125 449.009765625 640.627929688 449 629.3984375 c 0
 449 625.938476562 448.879882812 622.288085938 448.599609375 618.438476562 c 0
 447.58984375 604.34765625 444.83984375 587.59765625 438.259765625 570.337890625 c 0
 432.48046875 555.137695312 424.150390625 540.658203125 412.799804688 527.328125 c 0
 400.969726562 513.41796875 387.059570312 502.188476562 372.200195312 493.0078125 c 0
 351.559570312 480.2578125 330.58984375 472.448242188 317.549804688 468.057617188 c 1
 317.150390625 467.91796875 317.549804688 468.057617188 317.549804688 468.057617188 c 1
EndSplineSet
EndChar

StartChar: uF191E
Encoding: 989470 989470 28
Width: 1000
Flags: H
LayerCount: 2
Fore
SplineSet
16 448 m 1
 568 448 l 1
 568 1000 l 1
 16 1000 l 1
 16 448 l 1
180.620117188 670.080078125 m 1
 105.833007812 540.51953125 l 1
 477.166992188 540.51953125 l 1
 477.166992188 540.51953125 l 1
 477.166992188 540.51953125 l 1
 402.37890625 670.080078125 l 1
 180.620117188 670.080078125 l 1
291.5 869.969726562 m 1
 208.391601562 725.990234375 l 1
 374.608398438 725.990234375 l 1
 291.5 869.969726562 l 1
291.499023438 869.969726562 m 1024
291.5 987 m 1
 440.659179688 728.58984375 l 1
 567.76171875 728.58984375 l 1
 567.76171875 670.080078125 l 1
 474.434570312 670.080078125 l 1
 583 482 l 1
 0 482 l 1
 108.564453125 670.080078125 l 1
 15.2373046875 670.080078125 l 1
 15.2373046875 728.58984375 l 1
 142.33984375 728.58984375 l 1
 291.5 987 l 1
EndSplineSet
EndChar

StartChar: uF191F
Encoding: 989471 989471 29
Width: 1000
Flags: H
LayerCount: 2
Fore
SplineSet
0 448 m 1
 552 448 l 1
 552 1000 l 1
 0 1000 l 1
 0 448 l 1
276.400390625 926.943359375 m 0
 266.919921875 926.943359375 258.360351562 925.260742188 250.719726562 921.8984375 c 0
 243.08984375 918.53515625 236.599609375 913.821289062 231.26953125 907.754882812 c 0
 225.9296875 901.689453125 221.8203125 894.46875 218.919921875 886.094726562 c 0
 216.01953125 877.719726562 214.580078125 868.58984375 214.580078125 858.700195312 c 0
 214.580078125 848.6796875 216.01953125 839.48046875 218.919921875 831.099609375 c 0
 221.8203125 822.73046875 225.9296875 815.509765625 231.26953125 809.440429688 c 0
 236.599609375 803.379882812 243.08984375 798.629882812 250.719726562 795.200195312 c 0
 258.360351562 791.76953125 266.919921875 790.059570312 276.400390625 790.059570312 c 0
 285.879882812 790.059570312 294.48046875 791.76953125 302.1796875 795.200195312 c 0
 309.879882812 798.629882812 316.400390625 803.379882812 321.73046875 809.440429688 c 0
 327.0703125 815.509765625 331.1796875 822.73046875 334.080078125 831.099609375 c 0
 336.98046875 839.48046875 338.419921875 848.6796875 338.419921875 858.700195312 c 0
 338.419921875 868.58984375 336.98046875 877.719726562 334.080078125 886.094726562 c 0
 331.1796875 894.46875 327.0703125 901.689453125 321.73046875 907.754882812 c 0
 316.400390625 913.821289062 309.879882812 918.53515625 302.1796875 921.8984375 c 0
 294.48046875 925.260742188 285.879882812 926.943359375 276.400390625 926.943359375 c 0
276.299804688 983 m 0
 295.360351562 983 312.639648438 979.942382812 328.129882812 973.82421875 c 0
 343.610351562 967.70703125 356.719726562 959.130859375 367.440429688 948.096679688 c 0
 378.169921875 937.061523438 386.440429688 923.928710938 392.259765625 908.696289062 c 0
 398.08984375 893.462890625 401 876.850585938 401 858.860351562 c 0
 401 840.629882812 398.08984375 823.900390625 392.259765625 808.66015625 c 0
 386.440429688 793.4296875 378.169921875 780.299804688 367.440429688 769.259765625 c 0
 356.719726562 758.23046875 343.610351562 749.58984375 328.129882812 743.360351562 c 0
 312.639648438 737.120117188 295.360351562 734 276.299804688 734 c 0
 257.240234375 734 240.030273438 737.120117188 224.6796875 743.360351562 c 0
 209.3203125 749.58984375 196.280273438 758.23046875 185.559570312 769.259765625 c 0
 174.83984375 780.299804688 166.559570312 793.4296875 160.740234375 808.66015625 c 0
 154.91015625 823.900390625 152 840.629882812 152 858.860351562 c 0
 152 876.850585938 154.91015625 893.462890625 160.740234375 908.696289062 c 0
 166.559570312 923.928710938 174.83984375 937.061523438 185.559570312 948.096679688 c 0
 196.280273438 959.130859375 209.3203125 967.70703125 224.6796875 973.82421875 c 0
 240.030273438 979.942382812 257.240234375 983 276.299804688 983 c 0
123.900390625 657.169921875 m 0
 114.459960938 657.169921875 105.9296875 655.490234375 98.330078125 652.139648438 c 0
 90.7197265625 648.790039062 84.259765625 644.099609375 78.9501953125 638.059570312 c 0
 73.6396484375 632.01953125 69.5400390625 624.8203125 66.650390625 616.48046875 c 0
 63.76953125 608.139648438 62.3203125 599.049804688 62.3203125 589.200195312 c 0
 62.3203125 579.209960938 63.76953125 570.049804688 66.650390625 561.709960938 c 0
 69.5400390625 553.370117188 73.6396484375 546.1796875 78.9501953125 540.139648438 c 0
 84.259765625 534.099609375 90.7197265625 529.370117188 98.330078125 525.950195312 c 0
 105.9296875 522.540039062 114.459960938 520.830078125 123.900390625 520.830078125 c 0
 133.33984375 520.830078125 141.900390625 522.540039062 149.5703125 525.950195312 c 0
 157.25 529.370117188 163.740234375 534.099609375 169.049804688 540.139648438 c 0
 174.360351562 546.1796875 178.459960938 553.370117188 181.349609375 561.709960938 c 0
 184.23046875 570.049804688 185.6796875 579.209960938 185.6796875 589.200195312 c 0
 185.6796875 599.049804688 184.23046875 608.139648438 181.349609375 616.48046875 c 0
 178.459960938 624.8203125 174.360351562 632.01953125 169.049804688 638.059570312 c 0
 163.740234375 644.099609375 157.25 648.790039062 149.5703125 652.139648438 c 0
 141.900390625 655.490234375 133.33984375 657.169921875 123.900390625 657.169921875 c 0
123.799804688 713 m 0
 142.790039062 713 159.990234375 709.950195312 175.419921875 703.860351562 c 0
 190.849609375 697.76953125 203.900390625 689.23046875 214.580078125 678.240234375 c 0
 225.259765625 667.25 233.5 654.169921875 239.299804688 638.990234375 c 0
 245.099609375 623.8203125 248 607.280273438 248 589.360351562 c 0
 248 571.200195312 245.099609375 554.540039062 239.299804688 539.360351562 c 0
 233.5 524.190429688 225.259765625 511.110351562 214.580078125 500.120117188 c 0
 203.900390625 489.129882812 190.849609375 480.530273438 175.419921875 474.3203125 c 0
 159.990234375 468.110351562 142.790039062 465 123.799804688 465 c 0
 104.8203125 465 87.6796875 468.110351562 72.3798828125 474.3203125 c 0
 57.08984375 480.530273438 44.099609375 489.129882812 33.419921875 500.120117188 c 0
 22.740234375 511.110351562 14.5 524.190429688 8.7001953125 539.360351562 c 0
 2.900390625 554.540039062 0 571.200195312 0 589.360351562 c 0
 0 607.280273438 2.900390625 623.8203125 8.7001953125 638.990234375 c 0
 14.5 654.169921875 22.740234375 667.25 33.419921875 678.240234375 c 0
 44.099609375 689.23046875 57.08984375 697.76953125 72.3798828125 703.860351562 c 0
 87.6796875 709.950195312 104.8203125 713 123.799804688 713 c 0
428.900390625 657.169921875 m 0
 419.459960938 657.169921875 410.9296875 655.490234375 403.330078125 652.139648438 c 0
 395.719726562 648.790039062 389.259765625 644.099609375 383.950195312 638.059570312 c 0
 378.639648438 632.01953125 374.540039062 624.8203125 371.650390625 616.48046875 c 0
 368.76953125 608.139648438 367.3203125 599.049804688 367.3203125 589.200195312 c 0
 367.3203125 579.209960938 368.76953125 570.049804688 371.650390625 561.709960938 c 0
 374.540039062 553.370117188 378.639648438 546.1796875 383.950195312 540.139648438 c 0
 389.259765625 534.099609375 395.719726562 529.370117188 403.330078125 525.950195312 c 0
 410.9296875 522.540039062 419.459960938 520.830078125 428.900390625 520.830078125 c 0
 438.33984375 520.830078125 446.900390625 522.540039062 454.580078125 525.950195312 c 0
 462.25 529.370117188 468.740234375 534.099609375 474.049804688 540.139648438 c 0
 479.360351562 546.1796875 483.459960938 553.370117188 486.349609375 561.709960938 c 0
 489.23046875 570.049804688 490.6796875 579.209960938 490.6796875 589.200195312 c 0
 490.6796875 599.049804688 489.23046875 608.139648438 486.349609375 616.48046875 c 0
 483.459960938 624.8203125 479.360351562 632.01953125 474.049804688 638.059570312 c 0
 468.740234375 644.099609375 462.25 648.790039062 454.580078125 652.139648438 c 0
 446.900390625 655.490234375 438.33984375 657.169921875 428.900390625 657.169921875 c 0
428.799804688 713 m 0
 447.790039062 713 464.990234375 709.950195312 480.419921875 703.860351562 c 0
 495.849609375 697.76953125 508.900390625 689.23046875 519.580078125 678.240234375 c 0
 530.259765625 667.25 538.5 654.169921875 544.299804688 638.990234375 c 0
 550.099609375 623.8203125 553 607.280273438 553 589.360351562 c 0
 553 571.200195312 550.099609375 554.540039062 544.299804688 539.360351562 c 0
 538.5 524.190429688 530.259765625 511.110351562 519.580078125 500.120117188 c 0
 508.900390625 489.129882812 495.849609375 480.530273438 480.419921875 474.3203125 c 0
 464.990234375 468.110351562 447.790039062 465 428.799804688 465 c 0
 409.8203125 465 392.6796875 468.110351562 377.379882812 474.3203125 c 0
 362.08984375 480.530273438 349.099609375 489.129882812 338.419921875 500.120117188 c 0
 327.740234375 511.110351562 319.5 524.190429688 313.700195312 539.360351562 c 0
 307.900390625 554.540039062 305 571.200195312 305 589.360351562 c 0
 305 607.280273438 307.900390625 623.8203125 313.700195312 638.990234375 c 0
 319.5 654.169921875 327.740234375 667.25 338.419921875 678.240234375 c 0
 349.099609375 689.23046875 362.08984375 697.76953125 377.379882812 703.860351562 c 0
 392.6796875 709.950195312 409.8203125 713 428.799804688 713 c 0
EndSplineSet
EndChar

StartChar: uF1920
Encoding: 989472 989472 30
Width: 1000
Flags: H
LayerCount: 2
Fore
SplineSet
0 1000 m 1
 0 448 l 1
 552 448 l 1
 552 1000 l 1
 0 1000 l 1
164.740234375 864.540039062 m 1
 126.059570312 912.639648438 l 1
 126.059570312 912.639648438 125.9296875 912.540039062 126.059570312 912.639648438 c 1
 132.009765625 917.309570312 142.440429688 925.950195312 157.599609375 937.719726562 c 0
 168.190429688 945.940429688 181.780273438 956.049804688 197.040039062 965.349609375 c 0
 211.5 974.150390625 227.559570312 982.309570312 245.3203125 988.389648438 c 0
 264.26953125 994.870117188 283.51953125 998.4296875 303.25 998.940429688 c 0
 304.280273438 998.959960938 305.299804688 998.98046875 306.309570312 998.990234375 c 0
 324.01953125 999.150390625 340.549804688 996.690429688 355.6796875 991.440429688 c 0
 371.610351562 985.91015625 385.459960938 977.459960938 397 966.540039062 c 0
 408.509765625 955.629882812 417.25 942.700195312 423.440429688 928.780273438 c 0
 429.700195312 914.700195312 433.33984375 899.690429688 434.780273438 884.650390625 c 0
 435.620117188 875.4296875 436.009765625 866.129882812 436 856.809570312 c 0
 435.950195312 828.360351562 432.099609375 797.73046875 424.030273438 765.440429688 c 0
 414.040039062 725.490234375 398.1796875 685.290039062 377.790039062 646.6796875 c 0
 351.559570312 596.990234375 320.129882812 554.219726562 289.049804688 519.799804688 c 0
 258.099609375 485.540039062 230.080078125 462.389648438 211.200195312 448.16015625 c 1
 210.73046875 447.809570312 211.200195312 448.16015625 211.200195312 448.16015625 c 1
 173.860351562 497.3203125 l 1
 173.860351562 497.3203125 173.450195312 497 173.860351562 497.3203125 c 1
 190.200195312 509.8203125 214.889648438 530.629882812 242.280273438 561.599609375 c 0
 269.91015625 592.8203125 297.799804688 631.620117188 320.950195312 676.379882812 c 0
 338.959960938 711.16015625 352.580078125 746.639648438 361.030273438 781.040039062 c 0
 367.83984375 808.799804688 370.91015625 834.23046875 371.01953125 857.01953125 c 0
 371.059570312 864.469726562 370.780273438 871.799804688 370.1796875 878.990234375 c 0
 369.490234375 888.240234375 367.719726562 896.719726562 364.919921875 904.169921875 c 0
 362.1796875 911.459960938 358.459960938 917.759765625 353.75 922.9296875 c 0
 349.080078125 928.049804688 343.0703125 932.450195312 335.26953125 935.580078125 c 0
 327.76953125 938.58984375 318.330078125 940.530273438 306.639648438 940.51953125 c 0
 305.969726562 940.51953125 305.299804688 940.51953125 304.610351562 940.5 c 0
 291.240234375 940.240234375 277.990234375 937.76953125 264.610351562 933 c 0
 251.969726562 928.5 239.969726562 922.219726562 228.490234375 914.879882812 c 0
 216.259765625 907.059570312 205.030273438 898.290039062 195.41015625 890.379882812 c 0
 185.8203125 882.509765625 174.3203125 872.41015625 164.740234375 864.540039062 c 1
 164.599609375 864.419921875 164.740234375 864.540039062 164.740234375 864.540039062 c 1
229.419921875 799 m 1
 291 783.900390625 l 1
 278.219726562 731.740234375 257.51953125 690.709960938 226.309570312 650 c 1
 176 688.58984375 l 1
 203.26953125 724.150390625 218.459960938 754.23046875 229.419921875 799 c 1
EndSplineSet
EndChar

StartChar: uF1921
Encoding: 989473 989473 31
Width: 1000
Flags: H
LayerCount: 2
Fore
SplineSet
0 439 m 1
 552 439 l 1
 552 991 l 1
 0 991 l 1
 0 439 l 1
220.259765625 1000 m 1
 225.0703125 996.860351562 l 1
 325.740234375 924.73046875 388 825.0703125 388 715 c 0
 388 604.9296875 325.740234375 505.26953125 225.0703125 433.139648438 c 1
 220.259765625 430 l 1
 185 479.169921875 l 1
 195.5 486.26953125 l 1
 274.8203125 546.6796875 323.169921875 626.9296875 323.169921875 715 c 0
 323.169921875 797.200195312 281.049804688 872.58984375 210.950195312 931.389648438 c 1
 185.150390625 951.040039062 l 1
 220.259765625 1000 l 1
EndSplineSet
EndChar

StartChar: uF1922
Encoding: 989474 989474 32
Width: 1000
Flags: H
LayerCount: 2
Fore
SplineSet
0 448 m 1
 552 448 l 1
 552 1000 l 1
 0 1000 l 1
 0 448 l 1
403.799804688 813.5 m 0
 391.0703125 813.5 379.580078125 811.299804688 369.330078125 806.900390625 c 0
 359.080078125 802.509765625 350.370117188 796.33984375 343.209960938 788.41015625 c 0
 336.059570312 780.48046875 330.530273438 771.030273438 326.639648438 760.080078125 c 0
 322.75 749.129882812 320.809570312 737.190429688 320.809570312 724.259765625 c 0
 320.809570312 711.150390625 322.75 699.120117188 326.639648438 688.169921875 c 0
 330.530273438 677.219726562 336.059570312 667.780273438 343.209960938 659.849609375 c 0
 350.370117188 651.919921875 359.080078125 645.709960938 369.330078125 641.23046875 c 0
 379.580078125 636.740234375 391.0703125 634.5 403.799804688 634.5 c 0
 416.530273438 634.5 428.059570312 636.740234375 438.400390625 641.23046875 c 0
 448.740234375 645.709960938 457.490234375 651.919921875 464.650390625 659.849609375 c 0
 471.809570312 667.780273438 477.33984375 677.219726562 481.23046875 688.169921875 c 0
 485.110351562 699.120117188 487.059570312 711.150390625 487.059570312 724.259765625 c 0
 487.059570312 737.190429688 485.110351562 749.129882812 481.23046875 760.080078125 c 0
 477.33984375 771.030273438 471.809570312 780.48046875 464.650390625 788.41015625 c 0
 457.490234375 796.33984375 448.740234375 802.509765625 438.400390625 806.900390625 c 0
 428.059570312 811.299804688 416.530273438 813.5 403.799804688 813.5 c 0
403.700195312 872 m 0
 426.370117188 872 446.91015625 868.360351562 465.330078125 861.08984375 c 0
 483.75 853.8203125 499.33984375 843.629882812 512.08984375 830.509765625 c 0
 524.83984375 817.389648438 534.6796875 801.780273438 541.610351562 783.669921875 c 0
 548.540039062 765.559570312 552 745.8203125 552 724.4296875 c 0
 552 702.759765625 548.540039062 682.870117188 541.610351562 664.759765625 c 0
 534.6796875 646.650390625 524.83984375 631.040039062 512.08984375 617.919921875 c 0
 499.33984375 604.799804688 483.75 594.540039062 465.330078125 587.120117188 c 0
 446.91015625 579.709960938 426.370117188 576 403.700195312 576 c 0
 381.030273438 576 360.559570312 579.709960938 342.299804688 587.120117188 c 0
 324.040039062 594.540039062 308.530273438 604.799804688 295.780273438 617.919921875 c 0
 283.030273438 631.040039062 273.190429688 646.650390625 266.259765625 664.759765625 c 0
 262.799804688 673.809570312 260.200195312 683.309570312 258.469726562 693.259765625 c 2
 258.33984375 694.8203125 l 1
 0 694.8203125 l 1
 0 753.1796875 l 1
 258.290039062 753.1796875 l 1
 258.469726562 755.280273438 l 2
 260.200195312 765.150390625 262.799804688 774.620117188 266.259765625 783.669921875 c 0
 273.190429688 801.780273438 283.030273438 817.389648438 295.780273438 830.509765625 c 0
 308.530273438 843.629882812 324.040039062 853.8203125 342.299804688 861.08984375 c 0
 360.559570312 868.360351562 381.030273438 872 403.700195312 872 c 0
EndSplineSet
EndChar

StartChar: uF1924
Encoding: 989476 989476 33
Width: 1000
Flags: H
LayerCount: 2
Fore
SplineSet
0 448 m 1
 552 448 l 1
 552 1000 l 1
 0 1000 l 1
 0 448 l 1
67.080078125 761.41015625 m 1
 64.9404296875 724.629882812 l 2
 64.9404296875 692.76953125 68.4501953125 663.530273438 75.4697265625 636.919921875 c 0
 82.490234375 610.299804688 92.4599609375 587.349609375 105.379882812 568.0703125 c 0
 118.299804688 548.780273438 134.009765625 533.690429688 152.509765625 522.799804688 c 0
 171.009765625 511.900390625 191.75 506.450195312 214.719726562 506.450195312 c 0
 237.6796875 506.450195312 258.5 511.900390625 277.16015625 522.799804688 c 0
 295.8203125 533.690429688 311.620117188 548.780273438 324.540039062 568.0703125 c 0
 337.459960938 587.349609375 347.419921875 610.299804688 354.440429688 636.919921875 c 0
 361.459960938 663.530273438 364.969726562 692.76953125 364.969726562 724.629882812 c 2
 362.83984375 761.41015625 l 1
 67.080078125 761.41015625 l 1
214.719726562 941.549804688 m 0
 191.75 941.549804688 171.009765625 936.209960938 152.509765625 925.51953125 c 0
 134.009765625 914.830078125 118.299804688 899.83984375 105.379882812 880.559570312 c 0
 98.919921875 870.919921875 93.1904296875 860.360351562 88.2099609375 848.889648438 c 2
 77.3701171875 817.25 l 1
 352.540039062 817.25 l 1
 341.700195312 848.889648438 l 2
 336.719726562 860.360351562 330.990234375 870.919921875 324.540039062 880.559570312 c 0
 311.620117188 899.83984375 295.8203125 914.830078125 277.16015625 925.51953125 c 0
 258.5 936.209960938 237.6796875 941.549804688 214.719726562 941.549804688 c 0
214.610351562 1000 m 0
 247.51953125 1000 277.349609375 993.219726562 304.08984375 979.66015625 c 0
 330.830078125 966.099609375 353.459960938 947.08984375 371.969726562 922.620117188 c 0
 390.490234375 898.16015625 404.76953125 869.049804688 414.830078125 835.280273438 c 2
 418.120117188 819.849609375 l 1
 552 819.849609375 l 1
 552 761.41015625 l 1
 427.509765625 761.41015625 l 1
 429.91015625 724.799804688 l 2
 429.91015625 684.379882812 424.879882812 647.290039062 414.830078125 613.51953125 c 0
 404.76953125 579.75 390.490234375 550.639648438 371.969726562 526.169921875 c 0
 353.459960938 501.709960938 330.830078125 482.5703125 304.08984375 468.740234375 c 0
 277.349609375 454.91015625 247.51953125 448 214.610351562 448 c 0
 181.700195312 448 151.990234375 454.91015625 125.48046875 468.740234375 c 0
 98.9599609375 482.5703125 76.4501953125 501.709960938 57.9404296875 526.169921875 c 0
 39.4296875 550.639648438 25.1396484375 579.75 15.080078125 613.51953125 c 0
 5.0302734375 647.290039062 0 684.379882812 0 724.799804688 c 0
 0 764.6796875 5.0302734375 801.509765625 15.080078125 835.280273438 c 0
 25.1396484375 869.049804688 39.4296875 898.16015625 57.9404296875 922.620117188 c 0
 76.4501953125 947.08984375 98.9599609375 966.099609375 125.48046875 979.66015625 c 0
 151.990234375 993.219726562 181.700195312 1000 214.610351562 1000 c 0
EndSplineSet
EndChar

StartChar: uF1925
Encoding: 989477 989477 34
Width: 1000
Flags: H
LayerCount: 2
Fore
SplineSet
0 448 m 1
 552 448 l 1
 552 1000 l 1
 0 1000 l 1
 0 448 l 1
113.860351562 925.51953125 m 1
 113.860351562 636.120117188 l 1
 437.6796875 636.120117188 l 1
 437.6796875 925.51953125 l 1
 113.860351562 925.51953125 l 1
49 984 m 1
 503 984 l 1
 502.530273438 464 l 1
 437.6796875 464 l 1
 437.6796875 577.639648438 l 1
 308.4296875 577.639648438 l 1
 308.4296875 464 l 1
 243.5703125 464 l 1
 243.5703125 577.639648438 l 1
 113.860351562 577.639648438 l 1
 113.860351562 464 l 1
 49 464 l 1
 49 983.809570312 l 1
 49 984 l 1
EndSplineSet
EndChar

StartChar: uF1927
Encoding: 989479 989479 35
Width: 1000
Flags: H
LayerCount: 2
Fore
SplineSet
0 448 m 1
 553 448 l 1
 553 1000 l 1
 0 1000 l 1
 0 448 l 1
127.969726562 1000 m 1
 459 724 l 1
 127.969726562 448 l 1
 88 495.870117188 l 1
 361.620117188 724 l 1
 88 952.129882812 l 1
 127.969726562 1000 l 1
EndSplineSet
EndChar

StartChar: uF1928
Encoding: 989480 989480 36
Width: 1000
Flags: H
LayerCount: 2
Fore
SplineSet
0 448 m 1
 552 448 l 1
 552 1000 l 1
 0 1000 l 1
 0 448 l 1
363.690429688 802 m 1
 405 760.654296875 l 1
 275.450195312 631 l 1
 275.450195312 631 l 1
 275.450195312 631 l 1
 146 760.551757812 l 1
 187.309570312 801.8984375 l 1
 275.450195312 713.693359375 l 1
 363.690429688 802 l 1
EndSplineSet
EndChar

StartChar: uF1929
Encoding: 989481 989481 37
Width: 1000
Flags: H
LayerCount: 2
Fore
SplineSet
552 1000 m 1
 0 1000 l 1
 0 448 l 1
 552 448 l 1
 552 1000 l 1
17.76953125 788.919921875 m 1
 79.259765625 804.509765625 l 1
 79.259765625 804.509765625 79.16015625 804.900390625 79.259765625 804.509765625 c 1
 82.91015625 789.709960938 88.8603515625 768.51953125 98.099609375 748.809570312 c 0
 104.639648438 734.889648438 111.969726562 723.490234375 120.099609375 714.669921875 c 0
 127.780273438 706.349609375 135.759765625 700.740234375 143.969726562 697 c 0
 153.530273438 692.66015625 163.450195312 690.849609375 172.860351562 690.4296875 c 0
 174.240234375 690.370117188 175.540039062 690.360351562 176.780273438 690.370117188 c 0
 183.799804688 690.469726562 189.639648438 691.709960938 194.639648438 693.440429688 c 0
 201.280273438 695.76953125 207.360351562 699.3203125 213.169921875 703.700195312 c 0
 219.419921875 708.41015625 225.559570312 714.209960938 232 720.98046875 c 0
 238.5703125 727.879882812 244.58984375 734.830078125 252.349609375 743.51953125 c 0
 259.75 751.83984375 267.419921875 760.25 275.76953125 768.330078125 c 0
 284.169921875 776.450195312 293.690429688 784.66015625 304.490234375 791.889648438 c 0
 314.709960938 798.740234375 326.759765625 805.169921875 340.849609375 809.669921875 c 0
 352.849609375 813.509765625 366.580078125 816.030273438 382.290039062 816.08984375 c 0
 383.259765625 816.08984375 384.23046875 816.08984375 385.23046875 816.0703125 c 0
 401.469726562 815.809570312 419.709960938 812.040039062 438.5703125 802.25 c 0
 454.5703125 793.950195312 469.3203125 782.16015625 482.330078125 767.58984375 c 0
 498.650390625 749.280273438 510.690429688 728.290039062 519.120117188 707.73046875 c 0
 527.5 687.309570312 531.599609375 669.120117188 533.690429688 657.290039062 c 1
 533.759765625 656.919921875 533.690429688 657.290039062 533.690429688 657.290039062 c 1
 471.099609375 646.940429688 l 1
 471.099609375 646.940429688 471.139648438 646.650390625 471.099609375 646.940429688 c 1
 469.690429688 656 467 669.709960938 461.23046875 685.059570312 c 0
 455.400390625 700.5703125 447.219726562 715.629882812 436.66015625 728.25 c 0
 428.290039062 738.240234375 419.41015625 745.530273438 410.73046875 750.3203125 c 0
 400.690429688 755.870117188 391.700195312 757.709960938 384.360351562 757.799804688 c 0
 383.759765625 757.809570312 383.169921875 757.809570312 382.58984375 757.809570312 c 0
 373.360351562 757.740234375 365.790039062 756.150390625 359.440429688 753.9296875 c 0
 351.900390625 751.290039062 345.139648438 747.419921875 338.860351562 742.809570312 c 0
 332.150390625 737.91015625 325.6796875 731.950195312 319.099609375 725.169921875 c 0
 312.41015625 718.309570312 306.120117188 711.139648438 298.599609375 702.709960938 c 0
 291.200195312 694.400390625 283.73046875 686.16015625 275.700195312 678.25 c 0
 267.599609375 670.259765625 258.419921875 662.169921875 248.0703125 655.0703125 c 0
 238.330078125 648.400390625 226.709960938 642.030273438 213.040039062 637.700195312 c 0
 202.629882812 634.41015625 190.809570312 632.23046875 177.440429688 632.099609375 c 0
 175.120117188 632.0703125 172.73046875 632.110351562 170.240234375 632.219726562 c 0
 155.799804688 632.879882812 138.400390625 635.419921875 120.370117188 643.009765625 c 0
 104.610351562 649.639648438 89.849609375 659.5 76.4501953125 673.099609375 c 0
 62.5595703125 687.169921875 51.4404296875 703.91015625 42.41015625 721.849609375 c 0
 29.8095703125 746.830078125 22.0703125 772.639648438 17.76953125 788.919921875 c 1
 17.650390625 789.370117188 17.76953125 788.919921875 17.76953125 788.919921875 c 1
EndSplineSet
EndChar

StartChar: uF192A
Encoding: 989482 989482 38
Width: 1000
Flags: H
LayerCount: 2
Fore
SplineSet
0 448 m 1
 552 448 l 1
 552 1000 l 1
 0 1000 l 1
 0 448 l 1
113.923828125 925.521484375 m 1
 113.923828125 522.478515625 l 1
 438.076171875 522.478515625 l 1
 438.076171875 925.521484375 l 1
 113.923828125 925.521484375 l 1
49 984 m 1
 503 984 l 1
 503 983.814453125 l 1
 503 464 l 1
 49 464 l 1
 49 983.814453125 l 1
 49 984 l 1
EndSplineSet
EndChar

StartChar: uF192B
Encoding: 989483 989483 39
Width: 1000
Flags: H
LayerCount: 2
Fore
SplineSet
0 448 m 1
 552 448 l 1
 552 1000 l 1
 0 1000 l 1
 0 448 l 1
142.591796875 928.08984375 m 1
 142.590820312 928.08984375 l 1
 160.724609375 891.129882812 l 1
 190.459960938 841.129882812 231.540039062 810.209960938 276.91015625 810.209960938 c 0
 322.290039062 810.209960938 363.370117188 841.129882812 393.099609375 891.129882812 c 1
 411.240234375 928.08984375 l 1
 142.591796875 928.08984375 l 1
62 984 m 1
 490 984 l 1
 484.25 956.690429688 l 1
 473.73046875 928.08984375 l 1
 463.419921875 900.040039062 l 1
 422.799804688 811.330078125 354.01953125 753 276 753 c 0
 197.98046875 753 129.200195312 811.330078125 88.583984375 900.040039062 c 1
 78.2646484375 928.08984375 l 1
 67.7451171875 956.690429688 l 1
 62 984 l 1
276.5 680.709960938 m 1
 168.188476562 525.969726562 l 1
 384.809570312 525.969726562 l 1
 276.5 680.709960938 l 1
230.580078125 724 m 1
 322.419921875 724 l 1
 335.059570312 705.9296875 l 1
 457.059570312 525.969726562 l 1
 495 470 l 1
 423.990234375 470 l 1
 129.012695312 470 l 1
 58 470 l 1
 95.9404296875 525.969726562 l 1
 217.91015625 705.900390625 l 1
 230.580078125 724 l 1
EndSplineSet
EndChar

StartChar: uF192C
Encoding: 989484 989484 40
Width: 1000
Flags: H
LayerCount: 2
Fore
SplineSet
0 448 m 1
 552 448 l 1
 552 1000 l 1
 0 1000 l 1
 0 448 l 1
58 629 m 1
 58 687 l 1
 494 687 l 1
 494 629 l 1
 58 629 l 1
231 795 m 0
 231 819.849609375 251.147460938 840 276 840 c 0
 300.852539062 840 321 819.849609375 321 795 c 0
 321 770.150390625 300.852539062 750 276 750 c 0
 251.147460938 750 231 770.150390625 231 795 c 0
EndSplineSet
EndChar

StartChar: uF192D
Encoding: 989485 989485 41
Width: 1000
Flags: H
LayerCount: 2
Fore
SplineSet
0 448 m 1
 552 448 l 1
 552 1000 l 1
 0 1000 l 1
 0 448 l 1
334.958984375 956 m 2
 334.958984375 956 l 2
 365.692382812 956 393.541992188 951.069335938 418.51171875 941.19921875 c 0
 443.481445312 931.329101562 464.611328125 917.499023438 481.8984375 899.69921875 c 0
 499.185546875 881.909179688 512.524414062 860.720703125 521.9140625 836.150390625 c 0
 526.609375 823.870117188 530.131835938 811.029296875 532.478515625 797.62890625 c 2
 535.935546875 756.548828125 l 1
 536 756.548828125 l 1
 536 755.76953125 l 1
 536 492 l 1
 471.04296875 492 l 1
 471.04296875 755.599609375 l 1
 471.04296875 756.548828125 l 1
 470.966796875 756.548828125 l 1
 468.66015625 785.26953125 l 2
 467.072265625 794.76953125 464.689453125 803.870117188 461.513671875 812.5703125 c 0
 455.162109375 829.990234375 446.141601562 844.999023438 434.44921875 857.609375 c 0
 422.756835938 870.229492188 408.465820312 880.029296875 391.576171875 887.01953125 c 0
 374.688476562 894.01953125 355.849609375 897.509765625 335.0625 897.509765625 c 0
 314.275390625 897.509765625 295.510742188 894.01953125 278.765625 887.01953125 c 0
 262.020507812 880.029296875 247.80078125 870.229492188 236.109375 857.609375 c 0
 224.416015625 844.999023438 215.393554688 829.990234375 209.04296875 812.5703125 c 0
 205.8671875 803.870117188 203.486328125 794.76953125 201.8984375 785.26953125 c 2
 199.591796875 756.548828125 l 1
 199.515625 756.548828125 l 1
 199.515625 755.599609375 l 1
 199.515625 492 l 1
 186.90234375 492 l 1
 126.509765625 492 l 1
 0 652.490234375 l 1
 48.966796875 691.119140625 l 1
 93.9765625 634.01953125 l 1
 93.19140625 634.6015625 l 1
 141.443359375 549.298828125 l 1
 134.556640625 598.63671875 l 1
 134.556640625 755.76953125 l 1
 134.556640625 756.548828125 l 1
 134.623046875 756.548828125 l 1
 138.080078125 797.62890625 l 2
 140.427734375 811.029296875 143.94921875 823.870117188 148.64453125 836.150390625 c 0
 158.03515625 860.720703125 171.372070312 881.909179688 188.66015625 899.69921875 c 0
 205.9453125 917.499023438 226.96875 931.329101562 251.7265625 941.19921875 c 0
 276.482421875 951.069335938 304.2265625 956 334.958984375 956 c 2
EndSplineSet
EndChar

StartChar: uF192E
Encoding: 989486 989486 42
Width: 1000
Flags: H
LayerCount: 2
Fore
SplineSet
0 448 m 1
 552 448 l 1
 552 1000 l 1
 0 1000 l 1
 0 448 l 1
321 724 m 0
 321 699.147460938 300.852539062 679 276 679 c 0
 251.147460938 679 231 699.147460938 231 724 c 0
 231 748.852539062 251.147460938 769 276 769 c 0
 300.852539062 769 321 748.852539062 321 724 c 0
275.66015625 830.540039062 m 0
 243.349609375 830.540039062 214.169921875 827.919921875 188.139648438 822.6796875 c 0
 162.110351562 817.450195312 140.009765625 810.110351562 121.830078125 800.669921875 c 0
 103.650390625 791.23046875 89.6298828125 779.990234375 79.75 766.950195312 c 0
 69.8798828125 753.919921875 64.9404296875 739.700195312 64.9404296875 724.309570312 c 0
 64.9404296875 708.709960938 69.8798828125 694.389648438 79.75 681.349609375 c 0
 89.6298828125 668.3203125 103.650390625 657.080078125 121.830078125 647.639648438 c 0
 140.009765625 638.200195312 162.110351562 630.809570312 188.139648438 625.469726562 c 0
 214.169921875 620.129882812 243.349609375 617.459960938 275.66015625 617.459960938 c 0
 307.98046875 617.459960938 337.259765625 620.129882812 363.51953125 625.469726562 c 0
 389.780273438 630.809570312 411.990234375 638.200195312 430.169921875 647.639648438 c 0
 448.349609375 657.080078125 462.370117188 668.3203125 472.25 681.349609375 c 0
 482.120117188 694.389648438 487.059570312 708.709960938 487.059570312 724.309570312 c 0
 487.059570312 739.700195312 482.120117188 753.919921875 472.25 766.950195312 c 0
 462.370117188 779.990234375 448.349609375 791.23046875 430.169921875 800.669921875 c 0
 411.990234375 810.110351562 389.780273438 817.450195312 363.51953125 822.6796875 c 0
 337.259765625 827.919921875 307.98046875 830.540039062 275.66015625 830.540039062 c 0
275.559570312 889 m 0
 317.8203125 889 356.110351562 884.950195312 390.450195312 876.83984375 c 0
 424.780273438 868.73046875 453.83984375 857.370117188 477.610351562 842.740234375 c 0
 501.379882812 828.120117188 519.719726562 810.709960938 532.629882812 790.51953125 c 0
 545.540039062 770.33984375 552 748.3203125 552 724.48046875 c 0
 552 700.3203125 545.540039062 678.139648438 532.629882812 657.950195312 c 0
 519.719726562 637.759765625 501.379882812 620.360351562 477.610351562 605.73046875 c 0
 453.83984375 591.110351562 424.780273438 579.66015625 390.450195312 571.400390625 c 0
 356.110351562 563.129882812 317.8203125 559 275.559570312 559 c 0
 233.299804688 559 195.150390625 563.129882812 161.110351562 571.400390625 c 0
 127.0703125 579.66015625 98.16015625 591.110351562 74.3896484375 605.73046875 c 0
 50.6201171875 620.360351562 32.2802734375 637.759765625 19.3701171875 657.950195312 c 0
 6.4599609375 678.139648438 0 700.3203125 0 724.48046875 c 0
 0 748.3203125 6.4599609375 770.33984375 19.3701171875 790.51953125 c 0
 32.2802734375 810.709960938 50.6201171875 828.120117188 74.3896484375 842.740234375 c 0
 98.16015625 857.370117188 127.0703125 868.73046875 161.110351562 876.83984375 c 0
 195.150390625 884.950195312 233.299804688 889 275.559570312 889 c 0
EndSplineSet
EndChar

StartChar: uF192F
Encoding: 989487 989487 43
Width: 1000
Flags: H
LayerCount: 2
Fore
SplineSet
0 448 m 1
 552 448 l 1
 552 1000 l 1
 0 1000 l 1
 0 448 l 1
49 985 m 1
 113.860351562 985 l 1
 113.860351562 716.709960938 l 1
 113.860351562 716.709960938 l 1
 113.860351562 716.66015625 l 2
 113.860351562 685.91015625 117.650390625 657.690429688 125.240234375 632 c 0
 132.8203125 606.309570312 143.599609375 584.16015625 157.559570312 565.540039062 c 0
 171.530273438 546.9296875 188.509765625 532.370117188 208.509765625 521.849609375 c 0
 228.5 511.330078125 250.919921875 506.0703125 275.740234375 506.0703125 c 0
 300.5703125 506.0703125 323.0703125 511.330078125 343.240234375 521.849609375 c 0
 363.41015625 532.370117188 380.48046875 546.9296875 394.440429688 565.540039062 c 0
 408.400390625 584.16015625 419.1796875 606.309570312 426.759765625 632 c 0
 430.559570312 644.849609375 433.400390625 658.3203125 435.299804688 672.440429688 c 2
 438.139648438 716.66015625 l 1
 438.139648438 716.669921875 l 1
 438.139648438 716.709960938 l 1
 438.139648438 716.709960938 l 1
 438.139648438 985 l 1
 503 985 l 1
 503 715.849609375 l 1
 502.900390625 715.849609375 l 1
 499.01953125 660.719726562 l 2
 496.360351562 642.6796875 492.379882812 625.450195312 487.0703125 609.01953125 c 0
 476.450195312 576.169921875 461.370117188 547.849609375 441.8203125 524.049804688 c 0
 422.26953125 500.25 398.370117188 481.629882812 370.129882812 468.1796875 c 0
 341.889648438 454.73046875 310.389648438 448 275.639648438 448 c 0
 240.879882812 448 209.509765625 454.73046875 181.509765625 468.1796875 c 0
 153.509765625 481.629882812 129.740234375 500.25 110.190429688 524.049804688 c 0
 90.6396484375 547.849609375 75.5498046875 576.169921875 64.9296875 609.01953125 c 0
 59.6201171875 625.450195312 55.6396484375 642.6796875 52.98046875 660.719726562 c 2
 49.099609375 715.849609375 l 1
 49 715.849609375 l 1
 49 985 l 1
EndSplineSet
EndChar

StartChar: uF1930
Encoding: 989488 989488 44
Width: 1000
Flags: H
LayerCount: 2
Fore
SplineSet
0 448 m 1
 552 448 l 1
 552 1000 l 1
 0 1000 l 1
 0 448 l 1
305.219726562 696.080078125 m 1
 305.219726562 509.059570312 l 1
 321.860351562 510.530273438 l 2
 336.509765625 513.259765625 350.389648438 517.349609375 363.51953125 522.799804688 c 0
 389.780273438 533.690429688 411.990234375 548.780273438 430.169921875 568.0703125 c 0
 448.349609375 587.349609375 462.370117188 610.299804688 472.25 636.919921875 c 0
 477.190429688 650.219726562 480.889648438 664.190429688 483.360351562 678.809570312 c 2
 484.75 696.080078125 l 1
 305.219726562 696.080078125 l 1
67.25 696.080078125 m 1
 68.6396484375 678.809570312 l 2
 71.1103515625 664.190429688 74.8203125 650.219726562 79.75 636.919921875 c 0
 89.6298828125 610.299804688 103.650390625 587.349609375 121.830078125 568.0703125 c 0
 140.009765625 548.780273438 162.110351562 533.690429688 188.139648438 522.799804688 c 0
 201.16015625 517.349609375 214.959960938 513.259765625 229.549804688 510.530273438 c 2
 246.780273438 509.009765625 l 1
 246.780273438 696.080078125 l 1
 67.25 696.080078125 l 1
305.219726562 938.98828125 m 1
 305.219726562 751.919921875 l 1
 484.830078125 751.919921875 l 1
 483.360351562 769.98046875 l 2
 480.889648438 784.490234375 477.190429688 798.400390625 472.25 811.709960938 c 0
 462.370117188 838.330078125 448.349609375 861.280273438 430.169921875 880.563476562 c 0
 411.990234375 899.84375 389.780273438 914.830078125 363.51953125 925.518554688 c 0
 350.389648438 930.864257812 336.509765625 934.872070312 321.860351562 937.544921875 c 2
 305.219726562 938.98828125 l 1
246.780273438 939.041992188 m 1
 229.549804688 937.544921875 l 2
 214.959960938 934.872070312 201.16015625 930.864257812 188.139648438 925.518554688 c 0
 162.110351562 914.830078125 140.009765625 899.84375 121.830078125 880.563476562 c 0
 103.650390625 861.280273438 89.6298828125 838.330078125 79.75 811.709960938 c 0
 74.8203125 798.400390625 71.1103515625 784.490234375 68.6396484375 769.98046875 c 2
 67.169921875 751.919921875 l 1
 246.780273438 751.919921875 l 1
 246.780273438 939.041992188 l 1
275.559570312 1000 m 0
 317.8203125 1000 356.110351562 993.219726562 390.450195312 979.659179688 c 0
 424.780273438 966.09765625 453.83984375 947.0859375 477.610351562 922.624023438 c 0
 501.379882812 898.162109375 519.719726562 869.049804688 532.629882812 835.280273438 c 0
 545.540039062 801.509765625 552 764.6796875 552 724.799804688 c 0
 552 684.379882812 545.540039062 647.290039062 532.629882812 613.51953125 c 0
 519.719726562 579.75 501.379882812 550.639648438 477.610351562 526.169921875 c 0
 453.83984375 501.709960938 424.780273438 482.5703125 390.450195312 468.740234375 c 0
 356.110351562 454.91015625 317.8203125 448 275.559570312 448 c 0
 233.299804688 448 195.150390625 454.91015625 161.110351562 468.740234375 c 0
 127.0703125 482.5703125 98.16015625 501.709960938 74.3896484375 526.169921875 c 0
 50.6201171875 550.639648438 32.2802734375 579.75 19.3701171875 613.51953125 c 0
 6.4599609375 647.290039062 0 684.379882812 0 724.799804688 c 0
 0 764.6796875 6.4599609375 801.509765625 19.3701171875 835.280273438 c 0
 32.2802734375 869.049804688 50.6201171875 898.162109375 74.3896484375 922.624023438 c 0
 98.16015625 947.0859375 127.0703125 966.09765625 161.110351562 979.659179688 c 0
 195.150390625 993.219726562 233.299804688 1000 275.559570312 1000 c 0
EndSplineSet
EndChar

StartChar: uF1931
Encoding: 989489 989489 45
Width: 1000
Flags: H
LayerCount: 2
Fore
SplineSet
0 448 m 1
 552 448 l 1
 552 1000 l 1
 0 1000 l 1
 0 448 l 1
275.919921875 606.459960938 m 0
 267.959960938 606.459960938 260.780273438 605.129882812 254.370117188 602.48046875 c 0
 247.969726562 599.83984375 242.51953125 596.120117188 238.049804688 591.349609375 c 0
 233.580078125 586.5703125 230.120117188 580.879882812 227.690429688 574.290039062 c 0
 225.259765625 567.690429688 224.049804688 560.5 224.049804688 552.709960938 c 0
 224.049804688 544.8203125 225.259765625 537.5703125 227.690429688 530.98046875 c 0
 230.120117188 524.379882812 233.580078125 518.700195312 238.049804688 513.919921875 c 0
 242.51953125 509.139648438 247.969726562 505.400390625 254.370117188 502.700195312 c 0
 260.780273438 500 267.959960938 498.650390625 275.919921875 498.650390625 c 0
 283.870117188 498.650390625 291.080078125 500 297.540039062 502.700195312 c 0
 304.009765625 505.400390625 309.48046875 509.139648438 313.950195312 513.919921875 c 0
 318.4296875 518.700195312 321.879882812 524.379882812 324.309570312 530.98046875 c 0
 326.740234375 537.5703125 327.950195312 544.8203125 327.950195312 552.709960938 c 0
 327.950195312 560.5 326.740234375 567.690429688 324.309570312 574.290039062 c 0
 321.879882812 580.879882812 318.4296875 586.5703125 313.950195312 591.349609375 c 0
 309.48046875 596.120117188 304.009765625 599.83984375 297.540039062 602.48046875 c 0
 291.080078125 605.129882812 283.870117188 606.459960938 275.919921875 606.459960938 c 0
275.740234375 941.552734375 m 0
 251.080078125 941.552734375 228.8203125 938.155273438 208.959960938 931.358398438 c 0
 189.08984375 924.561523438 172.224609375 915.034179688 158.353515625 902.774414062 c 0
 144.483398438 890.513671875 133.780273438 875.921875 126.245117188 859 c 0
 118.709960938 842.0703125 114.942382812 823.620117188 114.942382812 803.629882812 c 0
 114.942382812 783.370117188 118.709960938 764.780273438 126.245117188 747.860351562 c 0
 133.780273438 730.9296875 144.483398438 716.33984375 158.353515625 704.080078125 c 0
 172.224609375 691.8203125 189.08984375 682.23046875 208.959960938 675.299804688 c 0
 228.8203125 668.370117188 251.080078125 664.900390625 275.740234375 664.900390625 c 0
 300.400390625 664.900390625 322.75 668.370117188 342.790039062 675.299804688 c 0
 362.8203125 682.23046875 379.780273438 691.8203125 393.650390625 704.080078125 c 0
 407.51953125 716.33984375 418.219726562 730.9296875 425.75 747.860351562 c 0
 433.290039062 764.780273438 437.059570312 783.370117188 437.059570312 803.629882812 c 0
 437.059570312 823.620117188 433.290039062 842.0703125 425.75 859 c 0
 418.219726562 875.921875 407.51953125 890.513671875 393.650390625 902.774414062 c 0
 379.780273438 915.034179688 362.8203125 924.561523438 342.790039062 931.358398438 c 0
 322.75 938.155273438 300.400390625 941.552734375 275.740234375 941.552734375 c 0
275.639648438 1000 m 0
 310.240234375 1000 341.599609375 995.166015625 369.719726562 985.498046875 c 0
 397.830078125 975.830078125 421.620117188 962.276367188 441.080078125 944.8359375 c 0
 460.549804688 927.39453125 475.5703125 906.637695312 486.139648438 882.561523438 c 0
 496.709960938 858.490234375 502 832.23046875 502 803.799804688 c 0
 502 774.98046875 496.709960938 748.540039062 486.139648438 724.459960938 c 0
 475.5703125 700.389648438 460.549804688 679.629882812 441.080078125 662.190429688 c 0
 421.620117188 644.75 397.830078125 631.099609375 369.719726562 621.240234375 c 2
 355.66015625 617.75 l 1
 367.629882812 603.849609375 l 2
 371.240234375 598.629882812 374.309570312 592.990234375 376.83984375 586.9296875 c 0
 381.919921875 574.8203125 384.450195312 561.599609375 384.450195312 547.299804688 c 0
 384.450195312 532.799804688 381.919921875 519.490234375 376.83984375 507.379882812 c 0
 371.76953125 495.259765625 364.559570312 484.8203125 355.219726562 476.040039062 c 0
 345.879882812 467.26953125 334.459960938 460.400390625 320.969726562 455.440429688 c 0
 307.48046875 450.48046875 292.4296875 448 275.830078125 448 c 0
 259.219726562 448 244.23046875 450.48046875 230.849609375 455.440429688 c 0
 217.48046875 460.400390625 206.120117188 467.26953125 196.780273438 476.040039062 c 0
 187.440429688 484.8203125 180.231445312 495.259765625 175.157226562 507.379882812 c 0
 170.083007812 519.490234375 167.545898438 532.799804688 167.545898438 547.299804688 c 0
 167.545898438 561.599609375 170.083007812 574.8203125 175.157226562 586.9296875 c 0
 177.694335938 592.990234375 180.763671875 598.629882812 184.370117188 603.849609375 c 2
 196.259765625 617.66015625 l 1
 181.922851562 621.240234375 l 2
 154.048828125 631.099609375 130.379882812 644.75 110.916015625 662.190429688 c 0
 91.451171875 679.629882812 76.4326171875 700.389648438 65.8603515625 724.459960938 c 0
 55.287109375 748.540039062 50 774.98046875 50 803.799804688 c 0
 50 832.23046875 55.287109375 858.490234375 65.8603515625 882.561523438 c 0
 76.4326171875 906.637695312 91.451171875 927.39453125 110.916015625 944.8359375 c 0
 130.379882812 962.276367188 154.048828125 975.830078125 181.922851562 985.498046875 c 0
 209.799804688 995.166015625 241.040039062 1000 275.639648438 1000 c 0
EndSplineSet
EndChar

StartChar: uF1932
Encoding: 989490 989490 46
Width: 1000
Flags: H
LayerCount: 2
Fore
SplineSet
0 448 m 1
 553 448 l 1
 553 1000 l 1
 0 1000 l 1
 0 448 l 1
276.23046875 854.530273438 m 0
 250.530273438 854.530273438 227.330078125 850.259765625 206.629882812 841.700195312 c 0
 185.9296875 833.150390625 168.349609375 821.16015625 153.889648438 805.740234375 c 0
 139.4296875 790.309570312 128.280273438 771.950195312 120.4296875 750.66015625 c 0
 112.5703125 729.370117188 108.650390625 706.139648438 108.650390625 680.990234375 c 0
 108.650390625 655.509765625 112.5703125 632.120117188 120.4296875 610.8203125 c 0
 128.280273438 589.530273438 139.4296875 571.169921875 153.889648438 555.740234375 c 0
 168.349609375 540.3203125 185.9296875 528.240234375 206.629882812 519.530273438 c 0
 227.330078125 510.809570312 250.530273438 506.450195312 276.23046875 506.450195312 c 0
 301.9296875 506.450195312 325.219726562 510.809570312 346.099609375 519.530273438 c 0
 366.98046875 528.240234375 384.650390625 540.3203125 399.110351562 555.740234375 c 0
 413.5703125 571.169921875 424.719726562 589.530273438 432.5703125 610.8203125 c 0
 440.4296875 632.120117188 444.349609375 655.509765625 444.349609375 680.990234375 c 0
 444.349609375 706.139648438 440.4296875 729.370117188 432.5703125 750.66015625 c 0
 424.719726562 771.950195312 413.5703125 790.309570312 399.110351562 805.740234375 c 0
 384.650390625 821.16015625 366.98046875 833.150390625 346.099609375 841.700195312 c 0
 325.219726562 850.259765625 301.9296875 854.530273438 276.23046875 854.530273438 c 0
487.940429688 1000 m 1
 553 1000 l 1
 553 937.458984375 525.799804688 880.467773438 481.169921875 837.5703125 c 2
 465.330078125 824.049804688 l 1
 473.280273438 813.950195312 l 2
 481.01953125 801.690429688 487.620117188 788.450195312 493.0703125 774.219726562 c 0
 503.959960938 745.780273438 509.41015625 714.759765625 509.41015625 681.16015625 c 0
 509.41015625 647.120117188 503.959960938 615.870117188 493.0703125 587.4296875 c 0
 482.169921875 558.98046875 466.690429688 534.459960938 446.629882812 513.849609375 c 0
 426.5703125 493.240234375 402.059570312 477.120117188 373.080078125 465.469726562 c 0
 344.110351562 453.8203125 311.790039062 448 276.129882812 448 c 0
 240.469726562 448 208.26953125 453.8203125 179.549804688 465.469726562 c 0
 150.8203125 477.120117188 126.4296875 493.240234375 106.370117188 513.849609375 c 0
 86.3095703125 534.459960938 70.830078125 558.98046875 59.9296875 587.4296875 c 0
 49.0400390625 615.870117188 43.58984375 647.120117188 43.58984375 681.16015625 c 0
 43.58984375 714.759765625 49.0400390625 745.780273438 59.9296875 774.219726562 c 0
 65.3798828125 788.450195312 71.98046875 801.690429688 79.7099609375 813.950195312 c 2
 87.669921875 824.049804688 l 1
 71.830078125 837.5703125 l 2
 27.2001953125 880.466796875 0 937.458007812 0 1000 c 1
 65.0595703125 1000 l 1
 65.0595703125 952.588867188 85.8603515625 909.385742188 119.990234375 876.864257812 c 1
 131.3203125 868.360351562 l 1
 139.709960938 875.265625 l 2
 151.900390625 883.274414062 165.1796875 890.1328125 179.549804688 895.84375 c 0
 208.26953125 907.267578125 240.469726562 912.978515625 276.129882812 912.978515625 c 0
 311.790039062 912.978515625 344.110351562 907.267578125 373.080078125 895.84375 c 0
 387.5703125 890.1328125 400.940429688 883.274414062 413.200195312 875.265625 c 2
 421.639648438 868.330078125 l 1
 433.009765625 876.865234375 l 1
 467.139648438 909.38671875 487.940429688 952.588867188 487.940429688 1000 c 1
EndSplineSet
EndChar

StartChar: uF1933
Encoding: 989491 989491 47
Width: 1000
Flags: H
LayerCount: 2
Fore
SplineSet
0 448 m 1
 552 448 l 1
 552 1000 l 1
 0 1000 l 1
 0 448 l 1
275.849609375 784.650390625 m 0
 261.790039062 784.650390625 249.08984375 782.16015625 237.759765625 777.190429688 c 0
 226.4296875 772.219726562 216.809570312 765.259765625 208.900390625 756.290039062 c 0
 200.990234375 747.330078125 194.889648438 736.66015625 190.58984375 724.280273438 c 0
 186.290039062 711.900390625 184.150390625 698.41015625 184.150390625 683.790039062 c 0
 184.150390625 668.98046875 186.290039062 655.389648438 190.58984375 643.009765625 c 0
 194.889648438 630.639648438 200.990234375 619.969726562 208.900390625 611 c 0
 216.809570312 602.040039062 226.4296875 595.01953125 237.759765625 589.950195312 c 0
 249.08984375 584.889648438 261.790039062 582.349609375 275.849609375 582.349609375 c 0
 289.919921875 582.349609375 302.66015625 584.889648438 314.08984375 589.950195312 c 0
 325.51953125 595.01953125 335.190429688 602.040039062 343.099609375 611 c 0
 351.009765625 619.969726562 357.110351562 630.639648438 361.41015625 643.009765625 c 0
 365.709960938 655.389648438 367.849609375 668.98046875 367.849609375 683.790039062 c 0
 367.849609375 698.41015625 365.709960938 711.900390625 361.41015625 724.280273438 c 0
 357.110351562 736.66015625 351.009765625 747.330078125 343.099609375 756.290039062 c 0
 335.190429688 765.259765625 325.51953125 772.219726562 314.08984375 777.190429688 c 0
 302.66015625 782.16015625 289.919921875 784.650390625 275.849609375 784.650390625 c 0
275.75 843 m 0
 299.790039062 843 321.5703125 839.080078125 341.099609375 831.240234375 c 0
 360.629882812 823.41015625 377.16015625 812.419921875 390.6796875 798.290039062 c 0
 404.200195312 784.150390625 414.639648438 767.3203125 421.98046875 747.809570312 c 0
 429.330078125 728.290039062 433 707.009765625 433 683.959960938 c 0
 433 660.599609375 429.330078125 639.169921875 421.98046875 619.650390625 c 0
 414.639648438 600.139648438 404.200195312 583.309570312 390.6796875 569.1796875 c 0
 377.16015625 555.040039062 360.629882812 543.98046875 341.099609375 535.990234375 c 0
 321.5703125 528 299.790039062 524 275.75 524 c 0
 251.709960938 524 230.009765625 528 210.650390625 535.990234375 c 0
 191.280273438 543.98046875 174.83984375 555.040039062 161.3203125 569.1796875 c 0
 147.799804688 583.309570312 137.360351562 600.139648438 130.01953125 619.650390625 c 0
 122.669921875 639.169921875 119 660.599609375 119 683.959960938 c 0
 119 707.009765625 122.669921875 728.290039062 130.01953125 747.809570312 c 0
 137.360351562 767.3203125 147.799804688 784.150390625 161.3203125 798.290039062 c 0
 174.83984375 812.419921875 191.280273438 823.41015625 210.650390625 831.240234375 c 0
 230.009765625 839.080078125 251.709960938 843 275.75 843 c 0
275.080078125 948 m 0
 314.969726562 948 351.120117188 941.485351562 383.51953125 928.455078125 c 0
 415.9296875 915.424804688 443.349609375 897.158203125 465.790039062 873.654296875 c 0
 488.219726562 850.150390625 505.530273438 822.169921875 517.719726562 789.73046875 c 0
 529.91015625 757.280273438 536 721.889648438 536 683.5703125 c 2
 535.940429688 682.799804688 l 1
 536 682.799804688 l 1
 536 530 l 1
 471.040039062 530 l 1
 471.040039062 682.799804688 l 1
 470.990234375 682.799804688 l 1
 471.040039062 683.400390625 l 2
 471.040039062 713.26953125 466.459960938 740.849609375 457.3203125 766.139648438 c 0
 448.169921875 791.4296875 435.169921875 813.23046875 418.330078125 831.549804688 c 0
 401.490234375 849.870117188 380.91015625 864.110351562 356.580078125 874.266601562 c 0
 332.259765625 884.422851562 305.129882812 889.500976562 275.190429688 889.500976562 c 0
 245.25 889.500976562 218.219726562 884.422851562 194.099609375 874.266601562 c 0
 169.990234375 864.110351562 149.509765625 849.870117188 132.669921875 831.549804688 c 0
 115.830078125 813.23046875 102.830078125 791.4296875 93.6904296875 766.139648438 c 0
 84.5400390625 740.849609375 79.9599609375 713.26953125 79.9599609375 683.400390625 c 2
 80.009765625 682.799804688 l 1
 79.9599609375 682.799804688 l 1
 79.9599609375 530 l 1
 15 530 l 1
 15 682.799804688 l 1
 15.0595703125 682.799804688 l 1
 15 683.5703125 l 2
 15 721.889648438 21.08984375 757.280273438 33.2802734375 789.73046875 c 0
 45.4697265625 822.169921875 62.7802734375 850.150390625 85.2197265625 873.654296875 c 0
 107.650390625 897.158203125 134.9296875 915.424804688 167.059570312 928.455078125 c 0
 199.190429688 941.485351562 235.200195312 948 275.080078125 948 c 0
EndSplineSet
EndChar

StartChar: uF1934
Encoding: 989492 989492 48
Width: 1000
Flags: H
LayerCount: 2
Fore
SplineSet
0 1000 m 1
 0 448 l 1
 552 448 l 1
 552 1000 l 1
 0 1000 l 1
294.397460938 939.049804688 m 0
 282.532226562 939.049804688 271.822265625 936.990234375 262.263671875 932.860351562 c 0
 252.706054688 928.740234375 244.591796875 922.959960938 237.91796875 915.51953125 c 0
 231.244140625 908.08984375 226.09375 899.23046875 222.469726562 888.969726562 c 0
 218.84375 878.700195312 217.03125 867.509765625 217.03125 855.379882812 c 0
 217.03125 843.08984375 218.84375 831.809570312 222.469726562 821.559570312 c 0
 226.09375 811.290039062 231.244140625 802.440429688 237.91796875 794.990234375 c 0
 244.591796875 787.559570312 252.706054688 781.740234375 262.263671875 777.530273438 c 0
 271.822265625 773.330078125 282.532226562 771.23046875 294.397460938 771.23046875 c 0
 306.260742188 771.23046875 317.012695312 773.330078125 326.653320312 777.530273438 c 0
 336.29296875 781.740234375 344.450195312 787.559570312 351.124023438 794.990234375 c 0
 357.796875 802.440429688 362.947265625 811.290039062 366.571289062 821.559570312 c 0
 370.197265625 831.809570312 372.009765625 843.08984375 372.009765625 855.379882812 c 0
 372.009765625 867.509765625 370.197265625 878.700195312 366.571289062 888.969726562 c 0
 362.947265625 899.23046875 357.796875 908.08984375 351.124023438 915.51953125 c 0
 344.450195312 922.959960938 336.29296875 928.740234375 326.653320312 932.860351562 c 0
 317.012695312 936.990234375 306.260742188 939.049804688 294.397460938 939.049804688 c 0
294.28515625 996.780273438 m 0
 316.106445312 996.780273438 335.880859375 993.280273438 353.610351562 986.290039062 c 0
 371.338867188 979.290039062 386.340820312 969.48046875 398.615234375 956.860351562 c 0
 410.889648438 944.240234375 420.360351562 929.219726562 427.028320312 911.799804688 c 0
 430.361328125 903.08984375 432.862304688 893.990234375 434.529296875 884.490234375 c 2
 436.971679688 855.490234375 l 1
 437.029296875 855.030273438 l 1
 437.017578125 854.940429688 l 1
 437.029296875 854.809570312 l 1
 436.995117188 854.400390625 l 1
 434.649414062 825.08984375 l 2
 433.064453125 815.599609375 430.684570312 806.549804688 427.514648438 797.91015625 c 0
 421.172851562 780.650390625 412.165039062 765.759765625 400.490234375 753.25 c 0
 388.817382812 740.75 374.547851562 730.959960938 357.684570312 723.889648438 c 0
 340.822265625 716.8203125 322.012695312 713.290039062 301.258789062 713.290039062 c 0
 280.504882812 713.290039062 261.767578125 716.8203125 245.049804688 723.889648438 c 0
 228.330078125 730.959960938 214.133789062 740.75 202.459960938 753.25 c 2
 201.651367188 754.3203125 l 1
 201.15625 723.919921875 l 2
 201.4765625 708.690429688 202.389648438 691.509765625 204.288085938 672.5 c 0
 208.26171875 632.709960938 215.715820312 593.330078125 225.81640625 555.200195312 c 0
 235.581054688 518.33984375 246.13671875 489.099609375 252.094726562 473.360351562 c 1
 192.935546875 450.780273438 l 1
 186.439453125 467.620117188 174.850585938 498.969726562 164.051757812 538.629882812 c 0
 152.885742188 579.650390625 144.477539062 622.389648438 139.904296875 665.91015625 c 0
 137.716796875 686.709960938 136.625 705.620117188 136.220703125 722.450195312 c 0
 135.405273438 756.360351562 137.177734375 790.0703125 141.76953125 823.190429688 c 0
 146.299804688 855.860351562 152.647460938 881.08984375 155.16015625 888.575195312 c 2
 161.997070312 911.799804688 l 2
 168.665039062 929.219726562 178.134765625 944.240234375 190.41015625 956.860351562 c 0
 202.68359375 969.48046875 217.610351562 979.290039062 235.188476562 986.290039062 c 0
 252.764648438 993.280273438 272.463867188 996.780273438 294.28515625 996.780273438 c 0
EndSplineSet
EndChar

StartChar: uF1935
Encoding: 989493 989493 49
Width: 1000
Flags: H
LayerCount: 2
Fore
SplineSet
0 448 m 1
 552 448 l 1
 552 1000 l 1
 0 1000 l 1
 0 448 l 1
275.639648438 1000 m 1
 275.639648438 1000 l 1
 309.879882812 1000 340.899414062 994.510742188 368.719726562 983.53125 c 0
 396.540039062 972.552734375 420.071289062 957.16015625 439.331054688 937.35546875 c 0
 458.590820312 917.549804688 473.44921875 893.9765625 483.909179688 866.640625 c 0
 494.369140625 839.30078125 499.600585938 809.479492188 499.600585938 777.189453125 c 0
 499.600585938 744.469726562 494.369140625 714.439453125 483.909179688 687.099609375 c 0
 474.236328125 661.818359375 460.75390625 639.795898438 443.557617188 620.9609375 c 1
 443.479492188 621.1171875 l 1
 416.874023438 609.41015625 l 1
 446.471679688 611.55078125 l 1
 536.000976562 611.55078125 l 1
 536.000976562 464 l 1
 471.000976562 464 l 1
 471.000976562 553.08984375 l 1
 81.0009765625 553.08984375 l 1
 81.0009765625 464 l 1
 16.0009765625 464 l 1
 16.0009765625 611.55078125 l 1
 105.141601562 611.55078125 l 1
 134.737304688 609.41015625 l 1
 108.411132812 620.99609375 l 1
 91.2294921875 639.823242188 77.7568359375 661.833984375 68.0908203125 687.099609375 c 0
 57.630859375 714.439453125 52.3994140625 744.469726562 52.3994140625 777.189453125 c 0
 52.3994140625 809.479492188 57.630859375 839.30078125 68.0908203125 866.640625 c 0
 78.55078125 893.9765625 93.4111328125 917.549804688 112.670898438 937.35546875 c 0
 131.930664062 957.16015625 155.340820312 972.552734375 182.920898438 983.53125 c 0
 210.500976562 994.510742188 241.41015625 1000 275.639648438 1000 c 1
275.750976562 941.537109375 m 0
 251.4609375 941.537109375 229.5390625 937.483398438 209.979492188 929.376953125 c 0
 190.419921875 921.271484375 173.809570312 909.904296875 160.149414062 895.28125 c 0
 146.489257812 880.657226562 135.950195312 863.25 128.530273438 843.0703125 c 0
 121.110351562 822.879882812 117.399414062 800.859375 117.399414062 777.01953125 c 0
 117.399414062 752.859375 121.110351562 730.6796875 128.530273438 710.5 c 0
 135.950195312 690.309570312 146.489257812 672.909179688 160.149414062 658.279296875 c 0
 173.809570312 643.659179688 190.419921875 632.208984375 209.979492188 623.94921875 c 0
 229.5390625 615.6796875 251.4609375 611.55078125 275.750976562 611.55078125 c 0
 300.03125 611.55078125 322.040039062 615.6796875 341.770507812 623.94921875 c 0
 361.500976562 632.208984375 378.190429688 643.659179688 391.850585938 658.279296875 c 0
 405.510742188 672.909179688 416.049804688 690.309570312 423.469726562 710.5 c 0
 430.889648438 730.6796875 434.600585938 752.859375 434.600585938 777.01953125 c 0
 434.600585938 800.859375 430.889648438 822.879882812 423.469726562 843.0703125 c 0
 416.049804688 863.25 405.510742188 880.657226562 391.850585938 895.28125 c 0
 378.190429688 909.904296875 361.500976562 921.271484375 341.770507812 929.376953125 c 0
 322.040039062 937.483398438 300.03125 941.537109375 275.750976562 941.537109375 c 0
EndSplineSet
EndChar

StartChar: uF1936
Encoding: 989494 989494 50
Width: 1000
Flags: H
LayerCount: 2
Fore
SplineSet
0 448 m 1
 552 448 l 1
 552 1000 l 1
 0 1000 l 1
 0 448 l 1
181.58984375 928.08984375 m 1
 181.58984375 928.08984375 l 1
 199.73046875 891.129882812 l 1
 229.459960938 841.129882812 270.540039062 810.209960938 315.91015625 810.209960938 c 0
 361.290039062 810.209960938 402.370117188 841.129882812 432.099609375 891.129882812 c 1
 450.240234375 928.08984375 l 1
 181.58984375 928.08984375 l 1
101 984 m 1
 529 984 l 1
 523.25 956.689453125 l 1
 512.73046875 928.08984375 l 1
 502.419921875 900.040039062 l 1
 461.799804688 811.330078125 393.01953125 753 315 753 c 0
 236.98046875 753 168.200195312 811.330078125 127.580078125 900.040039062 c 1
 117.26953125 928.08984375 l 1
 106.75 956.689453125 l 1
 101 984 l 1
314.999023438 734 m 0
 342.359375 734 367.16015625 729.610351562 389.389648438 720.8203125 c 0
 411.629882812 712.040039062 430.439453125 699.719726562 445.829101562 683.869140625 c 0
 461.21875 668.01953125 473.099609375 649.159179688 481.459960938 627.279296875 c 0
 489.8203125 605.399414062 493.999023438 581.5390625 493.999023438 555.69921875 c 2
 493.600585938 550.939453125 l 1
 493.999023438 550.939453125 l 1
 493.999023438 470 l 1
 474.700195312 470 l 1
 429.040039062 470 l 1
 429.040039062 550.939453125 l 1
 428.650390625 550.939453125 l 1
 429.010742188 555.529296875 l 2
 429.010742188 572.909179688 426.349609375 588.959960938 421.030273438 603.6796875 c 0
 415.709960938 618.399414062 408.151367188 631.08984375 398.361328125 641.75 c 0
 388.560546875 652.419921875 376.590820312 660.69921875 362.44140625 666.609375 c 0
 348.30078125 672.51953125 332.521484375 675.48046875 315.100585938 675.48046875 c 0
 297.69140625 675.48046875 281.970703125 672.51953125 267.94140625 666.609375 c 0
 253.920898438 660.69921875 242.009765625 652.419921875 232.209960938 641.75 c 0
 222.419921875 631.08984375 214.860351562 618.399414062 209.540039062 603.6796875 c 0
 204.219726562 588.959960938 201.559570312 572.909179688 201.559570312 555.529296875 c 2
 201.918945312 550.939453125 l 1
 201.579101562 550.939453125 l 1
 201.579101562 470 l 1
 128.049804688 470 l 1
 1.9990234375 629.9296875 l 1
 50.9892578125 668.58984375 l 1
 95.3759765625 612.2734375 l 1
 143.443359375 527.298828125 l 1
 137.665039062 568.705078125 l 1
 139.700195312 592.96875 l 2
 141.790039062 604.899414062 144.930664062 616.33984375 149.111328125 627.279296875 c 0
 157.470703125 649.159179688 169.348632812 668.01953125 184.739257812 683.869140625 c 0
 200.12890625 699.719726562 218.849609375 712.040039062 240.889648438 720.8203125 c 0
 262.9296875 729.610351562 287.638671875 734 314.999023438 734 c 0
EndSplineSet
EndChar

StartChar: uF1937
Encoding: 989495 989495 51
Width: 1000
Flags: H
LayerCount: 2
Fore
SplineSet
0 448 m 1
 552 448 l 1
 552 1000 l 1
 0 1000 l 1
 0 448 l 1
275.66015625 941.552734375 m 0
 243.349609375 941.552734375 214.169921875 936.208984375 188.139648438 925.518554688 c 0
 162.110351562 914.830078125 140.009765625 899.84375 121.830078125 880.563476562 c 0
 103.650390625 861.280273438 89.6298828125 838.330078125 79.75 811.709960938 c 0
 69.8798828125 785.08984375 64.9404296875 756.0703125 64.9404296875 724.629882812 c 0
 64.9404296875 692.76953125 69.8798828125 663.530273438 79.75 636.919921875 c 0
 89.6298828125 610.299804688 103.650390625 587.349609375 121.830078125 568.0703125 c 0
 140.009765625 548.780273438 162.110351562 533.690429688 188.139648438 522.799804688 c 0
 214.169921875 511.900390625 243.349609375 506.450195312 275.66015625 506.450195312 c 0
 307.98046875 506.450195312 337.259765625 511.900390625 363.51953125 522.799804688 c 0
 389.780273438 533.690429688 411.990234375 548.780273438 430.169921875 568.0703125 c 0
 448.349609375 587.349609375 462.370117188 610.299804688 472.25 636.919921875 c 0
 482.120117188 663.530273438 487.059570312 692.76953125 487.059570312 724.629882812 c 0
 487.059570312 756.0703125 482.120117188 785.08984375 472.25 811.709960938 c 0
 462.370117188 838.330078125 448.349609375 861.280273438 430.169921875 880.563476562 c 0
 411.990234375 899.84375 389.780273438 914.830078125 363.51953125 925.518554688 c 0
 337.259765625 936.208984375 307.98046875 941.552734375 275.66015625 941.552734375 c 0
275.559570312 1000 m 0
 317.8203125 1000 356.110351562 993.219726562 390.450195312 979.659179688 c 0
 424.780273438 966.09765625 453.83984375 947.0859375 477.610351562 922.624023438 c 0
 501.379882812 898.162109375 519.719726562 869.049804688 532.629882812 835.280273438 c 0
 545.540039062 801.509765625 552 764.6796875 552 724.799804688 c 0
 552 684.379882812 545.540039062 647.290039062 532.629882812 613.51953125 c 0
 519.719726562 579.75 501.379882812 550.639648438 477.610351562 526.169921875 c 0
 453.83984375 501.709960938 424.780273438 482.5703125 390.450195312 468.740234375 c 0
 356.110351562 454.91015625 317.8203125 448 275.559570312 448 c 0
 233.299804688 448 195.150390625 454.91015625 161.110351562 468.740234375 c 0
 127.0703125 482.5703125 98.16015625 501.709960938 74.3896484375 526.169921875 c 0
 50.6201171875 550.639648438 32.2802734375 579.75 19.3701171875 613.51953125 c 0
 6.4599609375 647.290039062 0 684.379882812 0 724.799804688 c 0
 0 764.6796875 6.4599609375 801.509765625 19.3701171875 835.280273438 c 0
 32.2802734375 869.049804688 50.6201171875 898.162109375 74.3896484375 922.624023438 c 0
 98.16015625 947.0859375 127.0703125 966.09765625 161.110351562 979.659179688 c 0
 195.150390625 993.219726562 233.299804688 1000 275.559570312 1000 c 0
135.759765625 809.099609375 m 1
 184.4296875 760.4296875 l 1
 233.099609375 809.099609375 l 1
 269.709960938 772.48046875 l 1
 221.040039062 723.809570312 l 1
 269.709960938 675.139648438 l 1
 233.099609375 638.530273438 l 1
 184.4296875 687.200195312 l 1
 135.759765625 638.530273438 l 1
 99.150390625 675.139648438 l 1
 147.8203125 723.809570312 l 1
 99.150390625 772.48046875 l 1
 135.759765625 809.099609375 l 1
319.08984375 809.099609375 m 1
 367.759765625 760.4296875 l 1
 416.4296875 809.099609375 l 1
 453.040039062 772.48046875 l 1
 404.370117188 723.809570312 l 1
 453.040039062 675.139648438 l 1
 416.4296875 638.530273438 l 1
 367.759765625 687.200195312 l 1
 319.08984375 638.530273438 l 1
 282.48046875 675.139648438 l 1
 331.150390625 723.809570312 l 1
 282.48046875 772.48046875 l 1
 319.08984375 809.099609375 l 1
EndSplineSet
EndChar

StartChar: uF1938
Encoding: 989496 989496 52
Width: 1000
Flags: H
LayerCount: 2
Fore
SplineSet
552 448 m 1
 552 1000 l 1
 0 1000 l 1
 0 448 l 1
 552 448 l 1
145 724 m 0
 145 699.147460938 124.852539062 679 100 679 c 0
 75.1474609375 679 55 699.147460938 55 724 c 0
 55 748.852539062 75.1474609375 769 100 769 c 0
 124.852539062 769 145 748.852539062 145 724 c 0
451 984 m 1
 451 925.5 l 1
 270.079101562 925.5 l 1
 270.079101562 522.5 l 1
 451 522.5 l 1
 451 464 l 1
 205 464 l 1
 205 464 l 1
 205 984 l 1
 451 984 l 1
EndSplineSet
EndChar

StartChar: uF193B
Encoding: 989499 989499 53
Width: 1000
Flags: H
LayerCount: 2
Fore
SplineSet
0 448 m 1
 552 448 l 1
 552 1000 l 1
 0 1000 l 1
 0 448 l 1
435.01953125 941.549804688 m 0
 426.669921875 941.549804688 419.129882812 940.120117188 412.400390625 937.25 c 0
 405.669921875 934.370117188 399.959960938 930.349609375 395.259765625 925.169921875 c 0
 390.559570312 919.990234375 386.940429688 913.8203125 384.379882812 906.669921875 c 0
 381.830078125 899.51953125 380.559570312 891.719726562 380.559570312 883.26953125 c 0
 380.559570312 874.719726562 381.830078125 866.860351562 384.379882812 859.709960938 c 0
 386.940429688 852.559570312 390.559570312 846.389648438 395.259765625 841.209960938 c 0
 399.959960938 836.030273438 405.669921875 831.98046875 412.400390625 829.049804688 c 0
 419.129882812 826.120117188 426.669921875 824.66015625 435.01953125 824.66015625 c 0
 443.370117188 824.66015625 450.940429688 826.120117188 457.73046875 829.049804688 c 0
 464.509765625 831.98046875 470.25 836.030273438 474.950195312 841.209960938 c 0
 479.650390625 846.389648438 483.280273438 852.559570312 485.830078125 859.709960938 c 0
 488.379882812 866.860351562 489.66015625 874.719726562 489.66015625 883.26953125 c 0
 489.66015625 891.719726562 488.379882812 899.51953125 485.830078125 906.669921875 c 0
 483.280273438 913.8203125 479.650390625 919.990234375 474.950195312 925.169921875 c 0
 470.25 930.349609375 464.509765625 934.370117188 457.73046875 937.25 c 0
 450.940429688 940.120117188 443.370117188 941.549804688 435.01953125 941.549804688 c 0
116.809570312 941.549804688 m 0
 108.459960938 941.549804688 100.91015625 940.120117188 94.1904296875 937.25 c 0
 87.4599609375 934.370117188 81.75 930.349609375 77.0498046875 925.169921875 c 0
 72.349609375 919.990234375 68.7197265625 913.8203125 66.169921875 906.669921875 c 0
 63.6201171875 899.51953125 62.33984375 891.719726562 62.33984375 883.26953125 c 0
 62.33984375 874.719726562 63.6201171875 866.860351562 66.169921875 859.709960938 c 0
 68.7197265625 852.559570312 72.349609375 846.389648438 77.0498046875 841.209960938 c 0
 81.75 836.030273438 87.4599609375 831.98046875 94.1904296875 829.049804688 c 0
 100.91015625 826.120117188 108.459960938 824.66015625 116.809570312 824.66015625 c 0
 125.16015625 824.66015625 132.73046875 826.120117188 139.509765625 829.049804688 c 0
 146.299804688 831.98046875 152.040039062 836.030273438 156.740234375 841.209960938 c 0
 161.440429688 846.389648438 165.059570312 852.559570312 167.620117188 859.709960938 c 0
 170.169921875 866.860351562 171.440429688 874.719726562 171.440429688 883.26953125 c 0
 171.440429688 891.719726562 170.169921875 899.51953125 167.620117188 906.669921875 c 0
 165.059570312 913.8203125 161.440429688 919.990234375 156.740234375 925.169921875 c 0
 152.040039062 930.349609375 146.299804688 934.370117188 139.509765625 937.25 c 0
 132.73046875 940.120117188 125.16015625 941.549804688 116.809570312 941.549804688 c 0
116.709960938 1000 m 0
 134.599609375 1000 150.830078125 997.129882812 165.370117188 991.389648438 c 0
 179.91015625 985.639648438 192.209960938 977.58984375 202.280273438 967.23046875 c 0
 212.349609375 956.870117188 220.120117188 944.540039062 225.58984375 930.240234375 c 0
 231.049804688 915.9296875 233.790039062 900.33984375 233.790039062 883.440429688 c 0
 233.790039062 866.330078125 231.049804688 850.620117188 225.58984375 836.309570312 c 0
 220.120117188 822.009765625 212.349609375 809.6796875 202.280273438 799.3203125 c 0
 192.209960938 788.959960938 179.91015625 780.849609375 165.370117188 775 c 2
 150.009765625 770.610351562 l 1
 150.009765625 639.309570312 l 1
 150.009765625 638.9296875 l 1
 150.040039062 638.9296875 l 1
 152.219726562 611.41015625 l 2
 153.700195312 602.5 155.91015625 594 158.860351562 585.900390625 c 0
 164.75 569.690429688 173.120117188 555.709960938 183.969726562 543.969726562 c 0
 194.8203125 532.23046875 208.01953125 523.040039062 223.559570312 516.400390625 c 0
 239.08984375 509.76953125 256.509765625 506.450195312 275.799804688 506.450195312 c 0
 295.08984375 506.450195312 312.5703125 509.76953125 328.240234375 516.400390625 c 0
 343.919921875 523.040039062 357.1796875 532.23046875 368.030273438 543.969726562 c 0
 378.879882812 555.709960938 387.25 569.690429688 393.139648438 585.900390625 c 0
 396.08984375 594 398.299804688 602.5 399.780273438 611.41015625 c 2
 401.959960938 638.9296875 l 1
 401.990234375 638.9296875 l 1
 401.990234375 639.309570312 l 1
 401.990234375 770.530273438 l 1
 386.450195312 775 l 2
 372.030273438 780.849609375 359.790039062 788.959960938 349.719726562 799.3203125 c 0
 339.650390625 809.6796875 331.879882812 822.009765625 326.419921875 836.309570312 c 0
 320.950195312 850.620117188 318.209960938 866.330078125 318.209960938 883.440429688 c 0
 318.209960938 900.33984375 320.950195312 915.9296875 326.419921875 930.240234375 c 0
 331.879882812 944.540039062 339.650390625 956.870117188 349.719726562 967.23046875 c 0
 359.790039062 977.58984375 372.030273438 985.639648438 386.450195312 991.389648438 c 0
 400.860351562 997.129882812 417.01953125 1000 434.919921875 1000 c 0
 452.8203125 1000 469.040039062 997.129882812 483.580078125 991.389648438 c 0
 498.120117188 985.639648438 510.4296875 977.58984375 520.490234375 967.23046875 c 0
 530.559570312 956.870117188 538.330078125 944.540039062 543.799804688 930.240234375 c 0
 549.26953125 915.9296875 552 900.33984375 552 883.440429688 c 0
 552 866.330078125 549.26953125 850.620117188 543.799804688 836.309570312 c 0
 538.330078125 822.009765625 530.559570312 809.6796875 520.490234375 799.3203125 c 0
 510.4296875 788.959960938 498.120117188 780.849609375 483.580078125 775 c 2
 466.9296875 770.240234375 l 1
 466.9296875 639.48046875 l 1
 466.9296875 638.9296875 l 1
 466.879882812 638.9296875 l 1
 463.580078125 599.26953125 l 2
 461.33984375 586.440429688 457.990234375 574.1796875 453.530273438 562.5 c 0
 444.599609375 539.139648438 431.91015625 519 415.459960938 502.080078125 c 0
 399.01953125 485.16015625 378.919921875 471.91015625 355.169921875 462.349609375 c 0
 331.419921875 452.780273438 304.9296875 448 275.700195312 448 c 0
 246.459960938 448 220.0703125 452.780273438 196.51953125 462.349609375 c 0
 172.969726562 471.91015625 152.98046875 485.16015625 136.540039062 502.080078125 c 0
 120.08984375 519 107.400390625 539.139648438 98.4697265625 562.5 c 0
 94.009765625 574.1796875 90.66015625 586.440429688 88.419921875 599.26953125 c 2
 85.1201171875 638.9296875 l 1
 85.0703125 638.9296875 l 1
 85.0703125 639.48046875 l 1
 85.0703125 770.16015625 l 1
 68.23046875 775 l 2
 53.8203125 780.849609375 41.5703125 788.959960938 31.509765625 799.3203125 c 0
 21.4404296875 809.6796875 13.669921875 822.009765625 8.2001953125 836.309570312 c 0
 2.73046875 850.620117188 -0 866.330078125 -0 883.440429688 c 0
 -0 900.33984375 2.73046875 915.9296875 8.2001953125 930.240234375 c 0
 13.669921875 944.540039062 21.4404296875 956.870117188 31.509765625 967.23046875 c 0
 41.5703125 977.58984375 53.8203125 985.639648438 68.23046875 991.389648438 c 0
 82.650390625 997.129882812 98.8095703125 1000 116.709960938 1000 c 0
EndSplineSet
EndChar

StartChar: uF193C
Encoding: 989500 989500 54
Width: 1000
Flags: H
LayerCount: 2
Fore
SplineSet
0 448 m 1
 552 448 l 1
 552 1000 l 1
 0 1000 l 1
 0 448 l 1
404.038085938 539.5 m 1
 404.038085938 908.5 l 1
 468.961914062 908.5 l 1
 468.961914062 539.5 l 1
 404.038085938 539.5 l 1
83.0380859375 539.5 m 1
 83.0380859375 908.5 l 1
 147.961914062 908.5 l 1
 147.961914062 539.5 l 1
 83.0380859375 539.5 l 1
243.538085938 539.5 m 1
 243.538085938 908.5 l 1
 308.461914062 908.5 l 1
 308.461914062 539.5 l 1
 243.538085938 539.5 l 1
EndSplineSet
EndChar

StartChar: uF193D
Encoding: 989501 989501 55
Width: 1000
Flags: H
LayerCount: 2
Fore
SplineSet
0 448 m 1
 552 448 l 1
 552 1000 l 1
 0 1000 l 1
 0 448 l 1
204.19140625 799.759765625 m 1
 204.19140625 647.6796875 l 1
 349.005859375 647.6796875 l 1
 349.005859375 799.759765625 l 1
 204.19140625 799.759765625 l 1
349.005859375 988 m 1
 414.005859375 988 l 1
 414.005859375 858.23046875 l 1
 536 858.23046875 l 1
 536 799.759765625 l 1
 414.005859375 799.759765625 l 1
 414.005859375 647.6796875 l 1
 536 647.6796875 l 1
 536 589.209960938 l 1
 414.005859375 589.209960938 l 1
 414.005859375 468.299804688 l 1
 349.005859375 468.299804688 l 1
 349.005859375 589.209960938 l 1
 204.19140625 589.209960938 l 1
 204.19140625 464 l 1
 139.19140625 464 l 1
 139.19140625 589.209960938 l 1
 16 589.209960938 l 1
 16 647.6796875 l 1
 139.19140625 647.6796875 l 1
 139.19140625 799.759765625 l 1
 16 799.759765625 l 1
 16 858.23046875 l 1
 139.19140625 858.23046875 l 1
 139.19140625 983.703125 l 1
 204.19140625 983.703125 l 1
 204.19140625 858.23046875 l 1
 349.005859375 858.23046875 l 1
 349.005859375 988 l 1
EndSplineSet
EndChar

StartChar: uF193E
Encoding: 989502 989502 56
Width: 1000
Flags: H
LayerCount: 2
Fore
SplineSet
0 448 m 1
 552 448 l 1
 552 1000 l 1
 0 1000 l 1
 0 448 l 1
348.500976562 656.965820312 m 1
 349.413085938 597.985351562 l 1
 349.413085938 597.985351562 349.607421875 597.99609375 349.413085938 597.985351562 c 1
 339.224609375 597.649414062 321.360351562 597.78515625 298.846679688 602.545898438 c 0
 282.890625 605.919921875 264.450195312 611.71875 246.836914062 621.358398438 c 0
 230.186523438 630.471679688 214.283203125 643.034179688 202.463867188 659.938476562 c 0
 196.3125 668.737304688 191.5390625 678.333984375 188.314453125 688.616210938 c 0
 184.963867188 699.302734375 183.478515625 710.133789062 183.478515625 720.809570312 c 0
 183.478515625 721.31640625 183.479492188 721.82421875 183.489257812 722.333007812 c 0
 183.8125 745.668945312 190.63671875 766.379882812 202.120117188 783.552734375 c 0
 213.8203125 801.05078125 229.92578125 814.290039062 248.079101562 823.649414062 c 0
 265.926757812 832.8515625 286.380859375 838.646484375 308.314453125 841.131835938 c 0
 317.723632812 842.197265625 327.52734375 842.668945312 337.655273438 842.505859375 c 0
 350.138671875 842.305664062 363.169921875 841.139648438 376.6015625 838.873046875 c 0
 399.612304688 834.993164062 421.796875 827.311523438 441.881835938 815.155273438 c 0
 461.692382812 803.165039062 478.958984375 787.110351562 492.553710938 767.084960938 c 0
 506.274414062 746.875 515.73828125 723.380859375 520.668945312 697.379882812 c 0
 523.591796875 681.971679688 524.893554688 665.845703125 524.631835938 649.168945312 c 0
 524.438476562 636.8203125 523.387695312 624.1328125 521.505859375 611.1484375 c 0
 516.698242188 577.904296875 504.950195312 549.02734375 487.353515625 525.200195312 c 0
 469.512695312 501.044921875 446.194335938 482.78515625 419.298828125 470.1640625 c 0
 392.594726562 457.633789062 362.264648438 450.594726562 329.555664062 448.59765625 c 0
 322.030273438 448.137695312 314.35546875 447.944335938 306.541015625 448.013671875 c 0
 280.758789062 448.244140625 253.510742188 451.350585938 225.21484375 457.372070312 c 0
 185.643554688 465.814453125 150.298828125 484.232421875 120.78125 509.59375 c 0
 91.392578125 534.844726562 67.8515625 566.912109375 51.58984375 602.751953125 c 0
 35.58984375 638.012695312 26.5654296875 677.084960938 26.0595703125 717.083007812 c 0
 26.0517578125 717.717773438 26.0419921875 718.353515625 26.0419921875 718.989257812 c 0
 25.8134765625 757.897460938 33.6611328125 799.734375 53.0966796875 840.430664062 c 0
 72.2158203125 880.4765625 100.443359375 912.572265625 133.793945312 937.022460938 c 0
 169.309570312 963.059570312 209.072265625 979.34375 247.478515625 988.73828125 c 0
 283.134765625 997.459960938 317.01171875 1000.13671875 345.993164062 999.995117188 c 0
 356.147460938 999.9453125 366.224609375 999.543945312 376.192382812 998.8125 c 0
 405.198242188 996.68359375 431.490234375 991.890625 454.420898438 985.962890625 c 0
 477.047851562 980.114257812 494.786132812 973.567382812 505.79296875 969.125 c 1
 506.282226562 968.927734375 505.79296875 969.125 505.79296875 969.125 c 1
 483.201171875 912.959960938 l 1
 483.201171875 912.959960938 483.618164062 912.786132812 483.201171875 912.959960938 c 1
 473.83984375 916.853515625 458.709960938 922.767578125 439.287109375 928.110351562 c 0
 419.603515625 933.525390625 396.877929688 937.982421875 371.815429688 939.942382812 c 0
 363.205078125 940.616210938 354.50390625 940.979492188 345.75390625 941.0078125 c 0
 320.688476562 941.08984375 291.818359375 938.385742188 261.958984375 930.525390625 c 0
 229.708007812 922.036132812 197.9296875 907.92578125 170.591796875 886.958984375 c 0
 145.11328125 867.41796875 124.563476562 842.737304688 110.859375 812.848632812 c 0
 96.4462890625 781.427734375 90.779296875 749.334960938 90.96484375 719.385742188 c 0
 90.9677734375 718.895507812 90.96875 718.405273438 90.978515625 717.916015625 c 0
 91.3662109375 687.048828125 97.94921875 656.673828125 109.846679688 629.044921875 c 0
 121.942382812 600.954101562 139.428710938 575.943359375 161.124023438 556.30859375 c 0
 182.830078125 536.663085938 208.748046875 522.390625 237.859375 515.6796875 c 0
 262.536132812 510.012695312 285.72265625 507.18359375 307.052734375 506.999023438 c 0
 313.505859375 506.942382812 319.766601562 507.127929688 325.828125 507.54296875 c 0
 352.299804688 509.352539062 374.842773438 515.506835938 393.193359375 524.856445312 c 0
 411.513671875 534.190429688 425.9375 546.831054688 436.512695312 562.291015625 c 0
 446.920898438 577.508789062 454.369140625 596.577148438 457.467773438 620.204101562 c 0
 458.853515625 630.725585938 459.580078125 640.711914062 459.715820312 650.1640625 c 0
 459.8984375 662.9296875 459 674.736328125 457.1328125 685.591796875 c 0
 453.999023438 703.814453125 448.151367188 719.260742188 440.172851562 732.094726562 c 0
 432.28125 744.787109375 422.11328125 755.233398438 409.916015625 763.322265625 c 0
 397.469726562 771.576171875 382.83984375 777.4140625 366.469726562 780.487304688 c 0
 356.053710938 782.430664062 346.111328125 783.400390625 336.7890625 783.525390625 c 0
 329.225585938 783.626953125 322.090820312 783.171875 315.436523438 782.260742188 c 0
 299.802734375 780.120117188 286.911132812 775.479492188 276.982421875 769.572265625 c 0
 266.912109375 763.58203125 259.995117188 756.4609375 255.4609375 748.6875 c 0
 251.209960938 741.400390625 248.512695312 732.521484375 248.405273438 721.506835938 c 0
 248.405273438 721.28125 248.404296875 721.057617188 248.405273438 720.834960938 c 0
 248.416015625 716.202148438 249.01171875 711.940429688 250.169921875 707.96875 c 0
 251.28125 704.15625 252.96484375 700.423828125 255.3515625 696.743164062 c 0
 260.029296875 689.528320312 267.39453125 682.573242188 277.620117188 676.37890625 c 0
 288.442382812 669.825195312 300.772460938 665.153320312 312.4765625 662.076171875 c 0
 328.706054688 657.809570312 341.912109375 657.030273438 348.500976562 656.965820312 c 1
 348.631835938 656.965820312 348.500976562 656.965820312 348.500976562 656.965820312 c 1
EndSplineSet
EndChar

StartChar: uF193F
Encoding: 989503 989503 57
Width: 1000
Flags: H
LayerCount: 2
Fore
SplineSet
0 448 m 1
 553 448 l 1
 553 1000 l 1
 0 1000 l 1
 0 448 l 1
245.038085938 999.5 m 1
 309.961914062 999.5 l 1
 309.961914062 821.650390625 l 1
 456.817382812 667.802734375 l 1
 412.184570312 625.19921875 l 1
 309.961914062 742.52734375 l 1
 309.961914062 447.330078125 l 1
 245.038085938 447.330078125 l 1
 245.038085938 743.0859375 l 1
 141.817382812 625.19921875 l 1
 97.1845703125 667.802734375 l 1
 245.038085938 822.697265625 l 1
 245.038085938 999.5 l 1
EndSplineSet
EndChar

StartChar: uF1940
Encoding: 989504 989504 58
Width: 1000
Flags: H
LayerCount: 2
Fore
SplineSet
0 448 m 1
 552 448 l 1
 552 1000 l 1
 0 1000 l 1
 0 448 l 1
275.639648438 1000 m 0
 310.389648438 1000 341.889648438 994.415039062 370.129882812 983.244140625 c 0
 398.370117188 972.07421875 422.259765625 956.412109375 441.809570312 936.26171875 c 0
 461.370117188 916.111328125 476.450195312 892.126953125 487.0703125 864.309570312 c 0
 497.690429688 836.490234375 503 806.16015625 503 773.299804688 c 2
 502.950195312 772.650390625 l 1
 503 772.650390625 l 1
 503 464 l 1
 438.139648438 464 l 1
 438.139648438 772.650390625 l 1
 438.099609375 772.650390625 l 1
 438.139648438 773.129882812 l 2
 438.139648438 797.540039062 434.349609375 820.080078125 426.759765625 840.740234375 c 0
 419.1796875 861.400390625 408.400390625 879.219726562 394.440429688 894.189453125 c 0
 380.469726562 909.158203125 363.41015625 920.791992188 343.240234375 929.08984375 c 0
 323.0703125 937.387695312 300.5703125 941.537109375 275.740234375 941.537109375 c 0
 250.919921875 941.537109375 228.5 937.387695312 208.509765625 929.08984375 c 0
 188.509765625 920.791992188 171.530273438 909.158203125 157.559570312 894.189453125 c 0
 143.599609375 879.219726562 132.8203125 861.400390625 125.240234375 840.740234375 c 0
 117.650390625 820.080078125 113.860351562 797.540039062 113.860351562 773.129882812 c 2
 113.900390625 772.650390625 l 1
 113.860351562 772.650390625 l 1
 113.860351562 464 l 1
 49 464 l 1
 49 772.650390625 l 1
 49.0498046875 772.650390625 l 1
 49 773.299804688 l 2
 49 806.16015625 54.3095703125 836.490234375 64.9296875 864.309570312 c 0
 75.5498046875 892.126953125 90.6298828125 916.111328125 110.190429688 936.26171875 c 0
 129.740234375 956.412109375 153.509765625 972.07421875 181.509765625 983.244140625 c 0
 209.5 994.415039062 240.879882812 1000 275.639648438 1000 c 0
EndSplineSet
EndChar

StartChar: uF1941
Encoding: 989505 989505 59
Width: 1000
Flags: H
LayerCount: 2
Fore
SplineSet
0 448 m 1
 552 448 l 1
 552 1000 l 1
 0 1000 l 1
 0 448 l 1
244.037109375 999.5 m 1
 308.9609375 999.5 l 1
 308.9609375 540.5390625 l 1
 411.18359375 660.982421875 l 1
 455.81640625 618.37890625 l 1
 276 430 l 1
 96.18359375 618.37890625 l 1
 140.81640625 660.982421875 l 1
 244.037109375 540.572265625 l 1
 244.037109375 999.5 l 1
EndSplineSet
EndChar

StartChar: uF1942
Encoding: 989506 989506 60
Width: 1000
Flags: H
LayerCount: 2
Fore
SplineSet
0 448 m 1
 552 448 l 1
 552 1000 l 1
 0 1000 l 1
 0 448 l 1
132.248046875 818.459960938 m 2
 103.944335938 818.459960938 81 795.5 81 767.1796875 c 2
 81 679.8203125 l 2
 81 651.5 103.944335938 628.540039062 132.248046875 628.540039062 c 2
 419.751953125 628.540039062 l 2
 448.055664062 628.540039062 471 651.5 471 679.8203125 c 2
 471 767.1796875 l 2
 471 795.5 448.055664062 818.459960938 419.751953125 818.459960938 c 2
 132.248046875 818.459960938 l 2
132.198242188 877 m 2
 419.801757812 877 l 2
 483.975585938 877 536 824.940429688 536 760.73046875 c 2
 536 686.26953125 l 2
 536 622.059570312 483.975585938 570 419.801757812 570 c 2
 132.198242188 570 l 2
 68.0244140625 570 16 622.059570312 16 686.26953125 c 2
 16 760.73046875 l 2
 16 824.940429688 68.0244140625 877 132.198242188 877 c 2
EndSplineSet
EndChar

StartChar: uF1943
Encoding: 989507 989507 61
Width: 1000
Flags: H
LayerCount: 2
Fore
SplineSet
0 448 m 1
 552 448 l 1
 552 1000 l 1
 0 1000 l 1
 0 448 l 1
68.576171875 937.6640625 m 1
 133.501953125 937.6640625 l 1
 133.501953125 568.814453125 l 1
 307.921875 568.814453125 l 1
 307.921875 568.814453125 307.920898438 568.814453125 307.921875 568.814453125 c 1
 307.921875 568.814453125 l 1
 324.782226562 568.826171875 340.069335938 570.50390625 353.775390625 573.853515625 c 0
 367.529296875 577.21484375 379.171875 581.87109375 388.6953125 587.818359375 c 0
 398.21875 593.765625 405.565429688 600.842773438 410.73828125 609.052734375 c 0
 415.91015625 617.262695312 418.5 626.28125 418.5 636.107421875 c 0
 418.5 645.8046875 415.91015625 654.758789062 410.73828125 662.96875 c 0
 405.565429688 671.178710938 398.21875 678.2578125 388.6953125 684.205078125 c 0
 379.171875 690.15234375 367.529296875 694.7734375 353.775390625 698.0703125 c 0
 340.069335938 701.35546875 324.782226562 703.001953125 307.921875 703.013671875 c 2
 242.998046875 703.013671875 l 1
 242.998046875 937.6640625 l 1
 307.921875 937.6640625 l 1
 307.921875 761.494140625 l 1
 334.681640625 761.47265625 358.944335938 758.392578125 380.697265625 752.244140625 c 0
 402.526367188 746.073242188 421.005859375 737.421875 436.12109375 726.291015625 c 0
 451.235351562 715.16015625 462.896484375 701.912109375 471.10546875 686.546875 c 0
 479.314453125 671.181640625 483.423828125 654.424804688 483.423828125 636.27734375 c 0
 483.423828125 617.887695312 479.314453125 601.009765625 471.10546875 585.64453125 c 0
 462.896484375 570.279296875 451.235351562 557.03125 436.12109375 545.900390625 c 0
 421.005859375 534.76953125 402.526367188 526.05859375 380.697265625 519.767578125 c 0
 358.944335938 513.499023438 334.681640625 510.356445312 321.30078125 510.344726562 c 2
 68.576171875 510.333984375 l 1
 68.576171875 937.6640625 l 1
EndSplineSet
EndChar

StartChar: uF1944
Encoding: 989508 989508 62
Width: 1000
Flags: H
LayerCount: 2
Fore
SplineSet
0 448 m 1
 552 448 l 1
 552 1000 l 1
 0 1000 l 1
 0 448 l 1
275.5 642.620117188 m 0
 240.030273438 642.620117188 211.280273438 612.120117188 211.280273438 574.5 c 0
 211.280273438 536.879882812 240.030273438 506.379882812 275.5 506.379882812 c 0
 310.969726562 506.379882812 339.719726562 536.879882812 339.719726562 574.5 c 0
 339.719726562 612.120117188 310.969726562 642.620117188 275.5 642.620117188 c 0
275.5 701 m 0
 345.360351562 701 402 644.360351562 402 574.5 c 0
 402 504.639648438 345.360351562 448 275.5 448 c 0
 205.639648438 448 149 504.639648438 149 574.5 c 0
 149 644.360351562 205.639648438 701 275.5 701 c 0
243 734 m 1
 243 1000 l 1
 308 1000 l 1
 308 734 l 1
 243 734 l 1
EndSplineSet
EndChar

StartChar: uF1946
Encoding: 989510 989510 63
Width: 1000
Flags: H
LayerCount: 2
Fore
SplineSet
-0 1000 m 1
 -0 448 l 1
 553 448 l 1
 553 1000 l 1
 -0 1000 l 1
406.48046875 869 m 0
 406.51953125 869 406.549804688 869 406.58984375 869 c 0
 406.639648438 869 406.690429688 869 406.75 869 c 0
 428.959960938 869 449.080078125 865.440429688 467.120117188 858.309570312 c 0
 485.16015625 851.190429688 500.419921875 841.200195312 512.919921875 828.349609375 c 0
 525.41015625 815.490234375 535.040039062 800.200195312 541.8203125 782.459960938 c 0
 548.610351562 764.709960938 552 745.360351562 552 724.41015625 c 0
 552 724.3203125 551.990234375 724.23046875 551.990234375 724.139648438 c 0
 551.990234375 724.08984375 552 724.049804688 552 724 c 0
 552 723.83984375 551.98046875 723.690429688 551.98046875 723.530273438 c 0
 551.889648438 702.629882812 548.51953125 683.440429688 541.8203125 665.940429688 c 0
 535.040039062 648.200195312 525.41015625 632.91015625 512.919921875 620.049804688 c 0
 500.419921875 607.200195312 485.16015625 597.139648438 467.120117188 589.879882812 c 0
 458.099609375 586.240234375 448.559570312 583.51953125 438.5 581.700195312 c 2
 437.73046875 581.629882812 l 2
 427.990234375 579.900390625 417.759765625 579.01953125 407.049804688 579.009765625 c 2
 406.98046875 579 l 1
 406.98046875 579 l 1
 406.900390625 579 406.830078125 579 406.75 579 c 0
 406.700195312 579 406.639648438 579 406.58984375 579 c 0
 406.549804688 579 406.51953125 579 406.48046875 579 c 0
 406.290039062 579 406.099609375 579.01953125 405.91015625 579.01953125 c 0
 396 579.059570312 386.540039062 579.860351562 377.5 581.370117188 c 0
 348.049804688 583.700195312 307.900390625 589.330078125 264.240234375 604.219726562 c 0
 226.879882812 616.959960938 191.629882812 634.799804688 158.099609375 658.280273438 c 0
 124.900390625 681.530273438 96.6396484375 708.030273438 72.3701171875 734.559570312 c 0
 39.5 770.490234375 13.080078125 807.780273438 1 825.120117188 c 1
 51.6201171875 860.110351562 l 1
 63.259765625 843.16015625 87.5595703125 808.4296875 117.330078125 775.370117188 c 0
 139.200195312 751.099609375 164.040039062 727.58984375 192.66015625 707.219726562 c 0
 221.450195312 686.740234375 251.559570312 671.23046875 283.509765625 660.08984375 c 0
 286.469726562 659.059570312 289.370117188 658.200195312 292.290039062 657.259765625 c 1
 283.950195312 664.780273438 277.219726562 673.280273438 272.110351562 682.76953125 c 0
 268.719726562 689.0703125 266.1796875 695.6796875 264.48046875 702.599609375 c 2
 263.780273438 708.530273438 l 2
 262.599609375 713.5703125 261.969726562 718.73046875 261.969726562 724 c 0
 261.969726562 724.08984375 261.98046875 724.1796875 261.98046875 724.26953125 c 2
 261.969726562 724.41015625 l 2
 261.969726562 745.360351562 265.360351562 764.709960938 272.150390625 782.459960938 c 0
 278.9296875 800.200195312 288.559570312 815.490234375 301.049804688 828.349609375 c 0
 313.540039062 841.200195312 328.740234375 851.190429688 346.620117188 858.309570312 c 0
 364.299804688 865.360351562 384.080078125 868.900390625 405.969726562 868.98046875 c 0
 406.139648438 868.990234375 406.309570312 869 406.48046875 869 c 0
406.8203125 810.219726562 m 0
 394.5703125 810.219726562 383.51953125 808.099609375 373.650390625 803.83984375 c 0
 363.780273438 799.599609375 355.400390625 793.639648438 348.509765625 785.969726562 c 0
 341.620117188 778.299804688 336.309570312 769.1796875 332.559570312 758.599609375 c 0
 328.8203125 748.009765625 326.940429688 736.469726562 326.940429688 723.969726562 c 0
 326.940429688 711.299804688 328.8203125 699.6796875 332.559570312 689.099609375 c 0
 336.309570312 678.509765625 341.620117188 669.389648438 348.509765625 661.719726562 c 0
 355.400390625 654.049804688 363.780273438 648.049804688 373.650390625 643.719726562 c 0
 383.51953125 639.389648438 394.5703125 637.219726562 406.8203125 637.219726562 c 0
 419.080078125 637.219726562 430.1796875 639.389648438 440.129882812 643.719726562 c 0
 450.08984375 648.049804688 458.509765625 654.049804688 465.400390625 661.719726562 c 0
 472.290039062 669.389648438 477.599609375 678.509765625 481.349609375 689.099609375 c 0
 485.08984375 699.6796875 486.959960938 711.299804688 486.959960938 723.969726562 c 0
 486.959960938 736.469726562 485.08984375 748.009765625 481.349609375 758.599609375 c 0
 477.599609375 769.1796875 472.290039062 778.299804688 465.400390625 785.969726562 c 0
 458.509765625 793.639648438 450.08984375 799.599609375 440.129882812 803.83984375 c 0
 430.1796875 808.099609375 419.080078125 810.219726562 406.8203125 810.219726562 c 0
EndSplineSet
EndChar

StartChar: uF1947
Encoding: 989511 989511 64
Width: 1000
Flags: H
LayerCount: 2
Fore
SplineSet
0 448 m 1
 552 448 l 1
 552 1000 l 1
 0 1000 l 1
 0 448 l 1
114.3203125 659.549804688 m 1
 114.3203125 522.48046875 l 1
 438.139648438 522.48046875 l 1
 438.139648438 659.549804688 l 1
 114.3203125 659.549804688 l 1
49.4697265625 984 m 1
 114.3203125 984 l 1
 114.3203125 718.030273438 l 1
 438.139648438 718.030273438 l 1
 438.139648438 984 l 1
 503 984 l 1
 503 464.190429688 l 1
 503 464 l 1
 49 464 l 1
 49.4697265625 984 l 1
EndSplineSet
EndChar

StartChar: uF1948
Encoding: 989512 989512 65
Width: 1000
Flags: H
LayerCount: 2
Fore
SplineSet
0 448 m 1
 552 448 l 1
 552 1000 l 1
 0 1000 l 1
 0 448 l 1
51 949 m 1
 501 949 l 1
 501 499 l 1
 51 499 l 1
 51 949 l 1
115.921875 890.51953125 m 1
 115.921875 557.48046875 l 1
 238.39453125 557.48046875 l 1
 304.685546875 695.384765625 l 1
 151.341796875 695.384765625 l 1
 245.14453125 890.51953125 l 1
 115.921875 890.51953125 l 1
313.60546875 890.51953125 m 1
 247.31640625 752.6171875 l 1
 400.658203125 752.6171875 l 1
 306.85546875 557.48046875 l 1
 436.07421875 557.48046875 l 1
 436.07421875 890.51953125 l 1
 313.60546875 890.51953125 l 1
EndSplineSet
EndChar

StartChar: uF1949
Encoding: 989513 989513 66
Width: 1000
Flags: H
LayerCount: 2
Fore
SplineSet
0 447.999023438 m 1
 553 447.999023438 l 1
 553 999.999023438 l 1
 0 999.999023438 l 1
 0 447.999023438 l 1
315.469726562 1000 m 2
 315.477539062 1000 l 2
 340.317382812 1000 362.838867188 996.169921875 383.028320312 988.509765625 c 0
 403.208984375 980.849609375 420.298828125 970.098632812 434.268554688 956.279296875 c 0
 448.249023438 942.458984375 459.028320312 926.009765625 466.618164062 906.9296875 c 0
 474.208984375 887.849609375 478.008789062 867.0390625 478.008789062 844.509765625 c 0
 478.008789062 821.669921875 474.208984375 800.71875 466.618164062 781.638671875 c 0
 459.028320312 762.55859375 448.249023438 746.108398438 434.268554688 732.2890625 c 2
 423.381835938 723.65234375 l 1
 423.381835938 723.76171875 l 1
 403.393554688 717.619140625 l 1
 422.903320312 710.40625 l 1
 422.903320312 710.41796875 l 1
 434.264648438 701.05859375 l 2
 448.245117188 686.658203125 459.024414062 669.518554688 466.614257812 649.6484375 c 0
 474.205078125 629.768554688 478.004882812 608.098632812 478.004882812 584.62890625 c 2
 477.793945312 582.05859375 l 1
 478.004882812 582.05859375 l 1
 478.004882812 470 l 1
 436.053710938 470 l 1
 413.094726562 470 l 1
 413.094726562 582.05859375 l 1
 412.903320312 582.05859375 l 1
 413.094726562 584.458984375 l 2
 413.094726562 599.478515625 410.815429688 613.350585938 406.264648438 626.0703125 c 0
 401.705078125 638.790039062 395.234375 649.758789062 386.854492188 658.96875 c 0
 378.46484375 668.188476562 368.21484375 675.348632812 356.104492188 680.458984375 c 0
 343.995117188 685.55859375 330.483398438 688.119140625 315.573242188 688.119140625 c 0
 300.673828125 688.119140625 287.21484375 685.55859375 275.204101562 680.458984375 c 0
 263.194335938 675.348632812 252.994140625 668.188476562 244.614257812 658.96875 c 0
 236.224609375 649.758789062 229.754882812 638.790039062 225.204101562 626.0703125 c 0
 220.64453125 613.350585938 218.364257812 599.478515625 218.364257812 584.458984375 c 2
 218.553710938 582.05859375 l 1
 218.364257812 582.05859375 l 1
 218.364257812 470 l 1
 144.903320312 470 l 1
 19.0048828125 629.80859375 l 1
 67.9345703125 668.439453125 l 1
 112.893554688 611.369140625 l 1
 160.448242188 527.298828125 l 1
 153.463867188 577.3359375 l 1
 153.463867188 582.05859375 l 1
 153.674804688 582.05859375 l 1
 153.463867188 584.62890625 l 2
 153.463867188 608.098632812 157.254882812 629.768554688 164.844726562 649.6484375 c 0
 172.434570312 669.518554688 183.224609375 686.658203125 197.194335938 701.05859375 c 2
 208.065429688 710.0390625 l 1
 208.055664062 709.89453125 l 1
 228.041992188 716.037109375 l 1
 208.573242188 723.234375 l 1
 197.190429688 732.2890625 l 2
 183.220703125 746.109375 172.430664062 762.55859375 164.840820312 781.638671875 c 0
 157.250976562 800.71875 153.459960938 821.669921875 153.459960938 844.509765625 c 0
 153.459960938 867.040039062 157.250976562 887.849609375 164.840820312 906.9296875 c 0
 172.430664062 926.009765625 183.220703125 942.458984375 197.190429688 956.279296875 c 0
 211.169921875 970.099609375 228.161132812 980.849609375 248.180664062 988.509765625 c 0
 268.190429688 996.169921875 290.620117188 1000 315.469726562 1000 c 2
315.569335938 941.51953125 m 0
 300.669921875 941.51953125 287.2109375 939.129882812 275.200195312 934.33984375 c 0
 263.190429688 929.549804688 252.991210938 922.838867188 244.610351562 914.19921875 c 0
 236.220703125 905.559570312 229.750976562 895.279296875 225.200195312 883.349609375 c 0
 220.640625 871.4296875 218.360351562 858.4296875 218.360351562 844.33984375 c 0
 218.360351562 830.0703125 220.640625 816.96875 225.200195312 805.048828125 c 0
 229.750976562 793.119140625 236.220703125 782.838867188 244.610351562 774.19921875 c 0
 252.991210938 765.559570312 263.190429688 758.799804688 275.200195312 753.919921875 c 0
 287.2109375 749.040039062 300.669921875 746.599609375 315.569335938 746.599609375 c 0
 330.479492188 746.599609375 343.991210938 749.040039062 356.100585938 753.919921875 c 0
 368.2109375 758.799804688 378.4609375 765.559570312 386.850585938 774.19921875 c 0
 395.231445312 782.838867188 401.701171875 793.119140625 406.260742188 805.048828125 c 0
 410.811523438 816.96875 413.090820312 830.0703125 413.090820312 844.33984375 c 0
 413.090820312 858.4296875 410.811523438 871.4296875 406.260742188 883.349609375 c 0
 401.701171875 895.279296875 395.231445312 905.559570312 386.850585938 914.19921875 c 0
 378.4609375 922.838867188 368.2109375 929.549804688 356.100585938 934.33984375 c 0
 343.991210938 939.129882812 330.479492188 941.51953125 315.569335938 941.51953125 c 0
EndSplineSet
EndChar

StartChar: uF194B
Encoding: 989515 989515 67
Width: 1000
Flags: H
LayerCount: 2
Fore
SplineSet
0 448 m 1
 552 448 l 1
 552 1000 l 1
 0 1000 l 1
 0 448 l 1
155.236328125 634.3671875 m 1
 273.500976562 516.94921875 l 1
 391.76171875 634.3671875 l 1
 435.236328125 590.58203125 l 1
 273.500976562 430 l 1
 111.76171875 590.58203125 l 1
 155.236328125 634.3671875 l 1
155.236328125 817.18359375 m 1
 273.500976562 699.765625 l 1
 391.76171875 817.18359375 l 1
 435.236328125 773.3984375 l 1
 273.500976562 612.81640625 l 1
 111.76171875 773.3984375 l 1
 155.236328125 817.18359375 l 1
155.236328125 1000 m 1
 273.500976562 882.58203125 l 1
 391.76171875 1000 l 1
 435.236328125 956.21484375 l 1
 273.500976562 795.6328125 l 1
 111.76171875 956.21484375 l 1
 155.236328125 1000 l 1
EndSplineSet
EndChar

StartChar: uF194C
Encoding: 989516 989516 68
Width: 1000
Flags: H
LayerCount: 2
Fore
SplineSet
0 448 m 1
 552 448 l 1
 552 1000 l 1
 0 1000 l 1
 0 448 l 1
314.999023438 806 m 0
 342.359375 806 367.16015625 801.610351562 389.389648438 792.830078125 c 0
 411.629882812 784.05078125 430.439453125 771.740234375 445.829101562 755.91015625 c 0
 461.21875 740.0703125 473.099609375 721.219726562 481.459960938 699.359375 c 0
 489.8203125 677.5 493.999023438 653.66015625 493.999023438 627.83984375 c 2
 493.829101562 625.83984375 l 1
 493.999023438 625.83984375 l 1
 493.999023438 470 l 1
 429.040039062 470 l 1
 429.040039062 625.83984375 l 1
 428.870117188 625.83984375 l 1
 429.010742188 627.669921875 l 2
 429.010742188 645.040039062 426.349609375 661.079101562 421.030273438 675.779296875 c 0
 415.709960938 690.489257812 408.151367188 703.170898438 398.361328125 713.8203125 c 0
 388.560546875 724.48046875 376.590820312 732.760742188 362.44140625 738.66015625 c 0
 348.30078125 744.5703125 332.521484375 747.51953125 315.100585938 747.51953125 c 0
 297.69140625 747.51953125 281.970703125 744.5703125 267.94140625 738.66015625 c 0
 253.920898438 732.760742188 242.009765625 724.48046875 232.209960938 713.8203125 c 0
 222.419921875 703.170898438 214.860351562 690.489257812 209.540039062 675.779296875 c 0
 204.219726562 661.079101562 201.559570312 645.040039062 201.559570312 627.669921875 c 2
 201.700195312 625.83984375 l 1
 201.579101562 625.83984375 l 1
 201.579101562 470 l 1
 189.809570312 470 l 1
 128.049804688 470 l 1
 1.9990234375 629.810546875 l 1
 50.9892578125 668.4296875 l 1
 95.609375 611.86328125 l 1
 143.443359375 527.298828125 l 1
 136.620117188 576.1875 l 1
 136.620117188 625.83984375 l 1
 136.739257812 625.83984375 l 1
 136.5703125 627.83984375 l 2
 136.5703125 653.66015625 140.750976562 677.5 149.111328125 699.359375 c 0
 157.470703125 721.219726562 169.348632812 740.0703125 184.739257812 755.91015625 c 0
 200.12890625 771.740234375 218.849609375 784.05078125 240.889648438 792.830078125 c 0
 262.9296875 801.610351562 287.638671875 806 314.999023438 806 c 0
283 865 m 1
 283 1000 l 1
 348 1000 l 1
 348 865 l 1
 283 865 l 1
498.169921875 968.040039062 m 1
 552.1796875 936.860351562 l 1
 484.290039062 819.26953125 l 1
 430.280273438 850.450195312 l 1
 498.169921875 968.040039062 l 1
200.100585938 850.450195312 m 1
 146.092773438 819.268554688 l 1
 78.203125 936.858398438 l 1
 132.209960938 968.040039062 l 1
 200.100585938 850.450195312 l 1
EndSplineSet
EndChar

StartChar: uF194D
Encoding: 989517 989517 69
Width: 1000
Flags: H
LayerCount: 2
Fore
SplineSet
0 448 m 1
 552 448 l 1
 552 1000 l 1
 0 1000 l 1
 0 448 l 1
68 984 m 1
 132.879882812 984 l 1
 132.879882812 522.5 l 1
 490 522.5 l 1
 490 464 l 1
 68 464 l 1
 68 984 l 1
EndSplineSet
EndChar

StartChar: uF1950
Encoding: 989520 989520 70
Width: 1000
Flags: H
LayerCount: 2
Fore
SplineSet
0 448 m 1
 552 448 l 1
 552 1000 l 1
 0 1000 l 1
 0 448 l 1
124 984 m 1
 427 984 l 1
 427 925.5 l 1
 308.009765625 925.5 l 1
 308.009765625 522.5 l 1
 427 522.5 l 1
 427 464 l 1
 124 464 l 1
 124 522.5 l 1
 242.990234375 522.5 l 1
 242.990234375 925.5 l 1
 124 925.5 l 1
 124 984 l 1
EndSplineSet
EndChar

StartChar: uF1951
Encoding: 989521 989521 71
Width: 1000
Flags: H
LayerCount: 2
Fore
SplineSet
0 448 m 1
 552 448 l 1
 552 1000 l 1
 0 1000 l 1
 0 448 l 1
126 955 m 0
 126 979.849609375 145.919921875 1000 170.5 1000 c 0
 195.080078125 1000 215 979.849609375 215 955 c 0
 215 930.150390625 195.080078125 910 170.5 910 c 0
 145.919921875 910 126 930.150390625 126 955 c 0
337 955 m 0
 337 979.849609375 356.919921875 1000 381.5 1000 c 0
 406.080078125 1000 426 979.849609375 426 955 c 0
 426 930.150390625 406.080078125 910 381.5 910 c 0
 356.919921875 910 337 930.150390625 337 955 c 0
244.094726562 889.5 m 1
 309.018554688 889.5 l 1
 309.018554688 820.978515625 l 1
 403.610351562 820.978515625 l 1
 403.610351562 761.04296875 l 1
 309.018554688 761.04296875 l 1
 309.018554688 698.078125 l 1
 403.610351562 698.078125 l 1
 403.610351562 638.142578125 l 1
 309.018554688 638.142578125 l 1
 309.018554688 575.177734375 l 1
 403.610351562 575.177734375 l 1
 403.610351562 515.2421875 l 1
 309.018554688 515.2421875 l 1
 309.018554688 446.720703125 l 1
 244.094726562 446.720703125 l 1
 244.094726562 515.2421875 l 1
 149.502929688 515.2421875 l 1
 149.502929688 575.177734375 l 1
 244.094726562 575.177734375 l 1
 244.094726562 638.142578125 l 1
 149.502929688 638.142578125 l 1
 149.502929688 698.078125 l 1
 244.094726562 698.078125 l 1
 244.094726562 761.04296875 l 1
 149.502929688 761.04296875 l 1
 149.502929688 820.978515625 l 1
 244.094726562 820.978515625 l 1
 244.094726562 889.5 l 1
EndSplineSet
EndChar

StartChar: uF1952
Encoding: 989522 989522 72
Width: 1000
Flags: H
LayerCount: 2
Fore
SplineSet
0 448 m 1
 552 448 l 1
 552 1000 l 1
 0 1000 l 1
 0 448 l 1
476 723 m 0
 476 747.852539062 496.150390625 768 521 768 c 0
 545.849609375 768 566 747.852539062 566 723 c 0
 566 698.147460938 545.849609375 678 521 678 c 0
 496.150390625 678 476 698.147460938 476 723 c 0
16 851 m 1
 81.0595703125 851 l 1
 81.0595703125 664.408203125 l 1
 350.940429688 664.408203125 l 1
 350.940429688 851 l 1
 416 851 l 1
 416 606 l 1
 16 606 l 1
 16 851 l 1
EndSplineSet
EndChar

StartChar: uF1953
Encoding: 989523 989523 73
Width: 1000
Flags: H
LayerCount: 2
Fore
SplineSet
0 448 m 1
 552 448 l 1
 552 1000 l 1
 0 1000 l 1
 0 448 l 1
49.4677734375 984 m 1
 114.467773438 984 l 1
 114.467773438 522.48046875 l 1
 439 522.48046875 l 1
 439 984 l 1
 504 984 l 1
 504 464.190429688 l 1
 504 464 l 1
 49 464 l 1
 49.4677734375 984 l 1
EndSplineSet
EndChar

StartChar: uF1954
Encoding: 989524 989524 74
Width: 1000
Flags: H
LayerCount: 2
Fore
SplineSet
0 448 m 1
 552 448 l 1
 552 1000 l 1
 0 1000 l 1
 0 448 l 1
463.3203125 812 m 1
 526 797.639648438 l 1
 515.73046875 760.169921875 l 1
 476.1796875 654.290039062 383.580078125 580 275.669921875 580 c 0
 167.75 580 75.16015625 654.290039062 35.6103515625 760.169921875 c 1
 26 795.209960938 l 1
 88.6396484375 809.559570312 l 1
 95.4697265625 782.9296875 l 1
 125.16015625 698.040039062 194.66015625 638.48046875 275.669921875 638.48046875 c 0
 356.669921875 638.48046875 426.169921875 698.040039062 455.860351562 782.9296875 c 1
 463.3203125 812 l 1
EndSplineSet
EndChar

StartChar: uF1955
Encoding: 989525 989525 75
Width: 1000
Flags: H
LayerCount: 2
Fore
SplineSet
0 448 m 1
 552 448 l 1
 552 1000 l 1
 0 1000 l 1
 0 448 l 1
58.7646484375 974.236328125 m 1
 494.235351562 974.236328125 l 1
 494.235351562 472.763671875 l 1
 58.7646484375 472.763671875 l 1
 58.7646484375 974.236328125 l 1
104.235351562 928.763671875 m 1
 104.235351562 518.236328125 l 1
 448.764648438 518.236328125 l 1
 448.764648438 928.763671875 l 1
 104.235351562 928.763671875 l 1
215.14453125 810.3515625 m 0
 233.670898438 817.243164062 254.163085938 820.528320312 276.05859375 820.528320312 c 0
 297.954101562 820.5234375 318.490234375 817.23046875 337.274414062 810.307617188 c 0
 355.791992188 803.482421875 372.166992188 793.578125 385.626953125 780.65625 c 1
 385.626953125 780.65625 l 1
 385.626953125 780.65625 l 1
 398.939453125 767.86328125 409.330078125 752.4140625 416.450195312 735.036132812 c 0
 423.637695312 717.495117188 427.134765625 698.45703125 427.134765625 678.556640625 c 0
 427.134765625 658.461914062 423.65625 639.307617188 416.493164062 621.83203125 c 0
 409.330078125 604.35546875 398.940429688 588.907226562 385.62890625 576.115234375 c 0
 372.1875 563.19921875 355.861328125 553.274414062 337.405273438 546.338867188 c 0
 318.58984375 539.268554688 297.999023438 535.893554688 276.069335938 535.893554688 c 0
 254.1328125 535.893554688 233.586914062 539.264648438 214.873046875 546.361328125 c 0
 196.555664062 553.3046875 180.3203125 563.228515625 166.91015625 576.115234375 c 0
 153.59765625 588.909179688 143.20703125 604.357421875 136.04296875 621.834960938 c 0
 128.87890625 639.313476562 125.3984375 658.46875 125.3984375 678.565429688 c 0
 125.3984375 698.465820312 128.895507812 717.50390625 136.08203125 735.044921875 c 0
 143.202148438 752.421875 153.592773438 767.87109375 166.963867188 780.713867188 c 0
 180.334960938 793.555664062 196.618164062 803.4609375 215.14453125 810.3515625 c 0
321.506835938 767.67578125 m 0
 308.408203125 772.502929688 293.384765625 775.084960938 276.05078125 775.083984375 c 0
 258.717773438 775.083007812 243.77734375 772.499023438 230.872070312 767.698242188 c 1
 230.872070312 767.698242188 l 1
 230.872070312 767.698242188 l 1
 217.646484375 762.782226562 207.08984375 756.19921875 198.446289062 747.90234375 c 2
 198.435546875 747.891601562 l 1
 198.435546875 747.891601562 l 1
 189.69921875 739.495117188 183.055664062 729.705078125 178.184570312 717.81640625 c 0
 173.37890625 706.086914062 170.891601562 693.211914062 170.891601562 678.5546875 c 0
 170.891601562 663.631835938 173.397460938 650.622070312 178.182617188 638.951171875 c 1
 178.182617188 638.951171875 l 1
 178.182617188 638.951171875 l 1
 183.055664062 627.05859375 189.701171875 617.266601562 198.44140625 608.8671875 c 0
 207.10546875 600.541015625 217.7109375 593.890625 230.793945312 588.9296875 c 0
 243.875976562 583.969726562 258.759765625 581.340820312 276.0546875 581.340820312 c 0
 293.337890625 581.340820312 308.305664062 583.966796875 321.374023438 588.876953125 c 0
 334.799804688 593.921875 345.443359375 600.573242188 354.076171875 608.869140625 c 0
 362.81640625 617.268554688 369.459960938 627.060546875 374.2890625 638.842773438 c 0
 379.118164062 650.624023438 381.625 663.634765625 381.625 678.556640625 c 0
 381.625 693.213867188 379.13671875 706.088867188 374.331054688 717.818359375 c 0
 369.458984375 729.708007812 362.817382812 739.498046875 354.080078125 747.896484375 c 0
 345.466796875 756.165039062 334.87109375 762.75 321.506835938 767.67578125 c 0
256.655273438 911.111328125 m 1
 302.151367188 911.111328125 l 1
 302.151367188 839.625 l 1
 256.655273438 839.625 l 1
 256.655273438 911.111328125 l 1
162.545898438 901.09765625 m 1
 206.09375 839.190429688 l 1
 168.87109375 813.057617188 l 1
 125.322265625 874.96484375 l 1
 162.545898438 901.09765625 l 1
390.454101562 901.09765625 m 1
 427.677734375 874.966796875 l 1
 384.12890625 813.052734375 l 1
 346.903320312 839.184570312 l 1
 390.454101562 901.09765625 l 1
196.581054688 689.771484375 m 1
 211.515625 692.422851562 226.450195312 695.075195312 241.383789062 697.727539062 c 1
 245.245117188 676.026367188 257.870117188 661.700195312 267.706054688 658.5 c 0
 277.54296875 655.298828125 284.602539062 656.8046875 292.495117188 663.037109375 c 0
 300.392578125 669.274414062 307.965820312 680.956054688 310.985351562 696.90625 c 1
 355.6875 688.459960938 l 1
 350.8828125 663.0859375 338.596679688 641.508789062 320.709960938 627.3828125 c 0
 302.823242188 613.255859375 278.178710938 607.291015625 250.80078125 616.200195312 c 0
 223.422851562 625.109375 202.758789062 655.0546875 196.581054688 689.771484375 c 1
EndSplineSet
EndChar

StartChar: uF1956
Encoding: 989526 989526 76
Width: 1000
Flags: H
LayerCount: 2
Fore
SplineSet
0 448 m 1
 552 448 l 1
 552 1000 l 1
 0 1000 l 1
 0 448 l 1
98.58203125 859.958007812 m 1
 453.41796875 859.958007812 l 1
 453.41796875 801.477539062 l 1
 98.58203125 801.477539062 l 1
 98.58203125 859.958007812 l 1
98.58203125 646.522460938 m 1
 453.41796875 646.522460938 l 1
 453.41796875 588.041992188 l 1
 98.58203125 588.041992188 l 1
 98.58203125 646.522460938 l 1
EndSplineSet
EndChar

StartChar: uF1957
Encoding: 989527 989527 77
Width: 1000
Flags: H
LayerCount: 2
Fore
SplineSet
0 448 m 1
 552 448 l 1
 552 1000 l 1
 0 1000 l 1
 0 448 l 1
321 515.740234375 m 0
 321 490.887695312 300.852539062 470.740234375 276 470.740234375 c 0
 251.147460938 470.740234375 231 490.887695312 231 515.740234375 c 0
 231 540.59375 251.147460938 560.740234375 276 560.740234375 c 0
 300.852539062 560.740234375 321 540.59375 321 515.740234375 c 0
243.5390625 971.5390625 m 1
 308.461914062 971.5390625 l 1
 308.461914062 642.390625 l 1
 243.5390625 642.390625 l 1
 243.5390625 971.5390625 l 1
88.73046875 846.537109375 m 1
 207.961914062 637.25390625 l 1
 152.951171875 605.912109375 l 1
 33.7177734375 815.197265625 l 1
 88.73046875 846.537109375 l 1
463.271484375 847.09765625 m 1
 518.283203125 815.755859375 l 1
 399.049804688 606.47265625 l 1
 344.0390625 637.8125 l 1
 463.271484375 847.09765625 l 1
EndSplineSet
EndChar

StartChar: uF1958
Encoding: 989528 989528 78
Width: 1000
Flags: H
LayerCount: 2
Fore
SplineSet
0 448 m 1
 552 448 l 1
 552 1000 l 1
 0 1000 l 1
 0 448 l 1
16 843 m 1
 536 843 l 1
 536 597 l 1
 471 597 l 1
 471 784.349609375 l 1
 403.08984375 784.349609375 l 1
 403.08984375 597 l 1
 338.08984375 597 l 1
 338.08984375 784.349609375 l 1
 213.91015625 784.349609375 l 1
 213.91015625 597 l 1
 148.91015625 597 l 1
 148.91015625 784.349609375 l 1
 81 784.349609375 l 1
 81 597 l 1
 16 597 l 1
 16 843 l 1
EndSplineSet
EndChar

StartChar: uF1959
Encoding: 989529 989529 79
Width: 1000
Flags: H
LayerCount: 2
Fore
SplineSet
0 448 m 1
 552 448 l 1
 552 1000 l 1
 0 1000 l 1
 0 448 l 1
277.13671875 999.212890625 m 1
 277.134765625 999.216796875 l 1
 295.333984375 999.391601562 314.250976562 997.828125 332.66015625 993.62890625 c 0
 347.837890625 990.166015625 363.173828125 984.793945312 377.474609375 976.75390625 c 0
 391.01953125 969.138671875 403.903320312 958.969726562 414.55859375 945.599609375 c 0
 424.696289062 932.877929688 432.5546875 917.575195312 436.986328125 899.638671875 c 0
 439.584960938 889.120117188 440.961914062 877.848632812 441.01171875 865.845703125 c 0
 441.0390625 858.758789062 440.604492188 851.172851562 439.587890625 843.0625 c 0
 437.044921875 822.786132812 430.314453125 802.909179688 419.05078125 783.830078125 c 0
 408.918945312 766.669921875 395.6171875 750.998046875 379.8515625 736.708984375 c 0
 364.837890625 723.103515625 347.810546875 710.94921875 329.6171875 700.080078125 c 0
 319.1640625 693.8359375 297.392578125 682.712890625 297.392578125 682.712890625 c 1
 297.392578125 607.185546875 l 1
 232.466796875 607.185546875 l 1
 232.466796875 721.783203125 l 1
 237.868164062 723.969726562 243.274414062 726.221679688 248.658203125 728.599609375 c 0
 265.712890625 736.1328125 282.169921875 744.48046875 297.419921875 753.759765625 c 0
 312.670898438 763.038085938 326.146484375 772.900390625 337.447265625 783.259765625 c 0
 349.28515625 794.111328125 358.213867188 805.029296875 364.583984375 815.892578125 c 0
 371.564453125 827.798828125 375.38671875 839.483398438 376.86328125 850.990234375 c 0
 377.569335938 856.502929688 377.860351562 861.4140625 377.87109375 865.767578125 c 0
 377.893554688 873.1328125 377.134765625 879.484375 375.890625 884.962890625 c 0
 373.805664062 894.14453125 370.2109375 901.522460938 365.716796875 907.59765625 c 0
 360.915039062 914.090820312 354.653320312 919.669921875 347.03515625 924.345703125 c 0
 338.9296875 929.3203125 329.3828125 933.20703125 318.78125 935.9453125 c 0
 305.93359375 939.263671875 291.904296875 940.805664062 277.56640625 940.736328125 c 0
 266.602539062 940.68359375 254.98828125 939.6953125 243.052734375 937.7109375 c 0
 225.737304688 934.83203125 209.805664062 930.206054688 195.98828125 924.90234375 c 0
 182.360351562 919.671875 172.252929688 914.344726562 166.1328125 910.9140625 c 1
 137.126953125 963.541015625 l 1
 145.165039062 967.913085938 158.131835938 974.373046875 175.271484375 980.587890625 c 0
 192.586914062 986.866210938 212.31640625 992.229492188 233.751953125 995.580078125 c 0
 248.5546875 997.89453125 263.096679688 999.078125 277.126953125 999.212890625 c 2
 277.13671875 999.212890625 l 1
220.34765625 492.756835938 m 0
 220.34765625 517.606445312 240.270507812 537.756835938 264.84765625 537.756835938 c 0
 289.424804688 537.756835938 309.34765625 517.606445312 309.34765625 492.756835938 c 0
 309.34765625 467.90625 289.424804688 447.756835938 264.84765625 447.756835938 c 0
 240.270507812 447.756835938 220.34765625 467.90625 220.34765625 492.756835938 c 0
EndSplineSet
EndChar

StartChar: uF195B
Encoding: 989531 989531 80
Width: 1000
Flags: H
LayerCount: 2
Fore
SplineSet
0 448 m 1
 553 448 l 1
 553 1000 l 1
 0 1000 l 1
 0 448 l 1
17 984 m 1
 536 984 l 1
 536 464 l 1
 471.120117188 464 l 1
 471.120117188 925.5 l 1
 308.940429688 925.5 l 1
 308.940429688 464 l 1
 244.059570312 464 l 1
 244.059570312 925.5 l 1
 81.8798828125 925.5 l 1
 81.8798828125 464 l 1
 17 464 l 1
 17 984 l 1
EndSplineSet
EndChar

StartChar: uF195C
Encoding: 989532 989532 81
Width: 1000
Flags: H
LayerCount: 2
Fore
SplineSet
0 448 m 1
 552 448 l 1
 552 1000 l 1
 0 1000 l 1
 0 448 l 1
275.66015625 941.552734375 m 0
 243.349609375 941.552734375 214.169921875 936.208984375 188.139648438 925.518554688 c 0
 162.110351562 914.830078125 140.009765625 899.84375 121.830078125 880.563476562 c 0
 103.650390625 861.280273438 89.6298828125 838.330078125 79.75 811.709960938 c 0
 69.8798828125 785.08984375 64.9404296875 756.0703125 64.9404296875 724.629882812 c 0
 64.9404296875 692.76953125 69.8798828125 663.530273438 79.75 636.919921875 c 0
 89.6298828125 610.299804688 103.650390625 587.349609375 121.830078125 568.0703125 c 0
 140.009765625 548.780273438 162.110351562 533.690429688 188.139648438 522.799804688 c 0
 214.169921875 511.900390625 243.349609375 506.450195312 275.66015625 506.450195312 c 0
 307.98046875 506.450195312 337.259765625 511.900390625 363.51953125 522.799804688 c 0
 389.780273438 533.690429688 411.990234375 548.780273438 430.169921875 568.0703125 c 0
 448.349609375 587.349609375 462.370117188 610.299804688 472.25 636.919921875 c 0
 482.120117188 663.530273438 487.059570312 692.76953125 487.059570312 724.629882812 c 0
 487.059570312 756.0703125 482.120117188 785.08984375 472.25 811.709960938 c 0
 462.370117188 838.330078125 448.349609375 861.280273438 430.169921875 880.563476562 c 0
 411.990234375 899.84375 389.780273438 914.830078125 363.51953125 925.518554688 c 0
 337.259765625 936.208984375 307.98046875 941.552734375 275.66015625 941.552734375 c 0
275.559570312 1000 m 0
 317.8203125 1000 356.110351562 993.219726562 390.450195312 979.659179688 c 0
 424.780273438 966.09765625 453.83984375 947.0859375 477.610351562 922.624023438 c 0
 501.379882812 898.162109375 519.719726562 869.049804688 532.629882812 835.280273438 c 0
 545.540039062 801.509765625 552 764.6796875 552 724.799804688 c 0
 552 684.379882812 545.540039062 647.290039062 532.629882812 613.51953125 c 0
 519.719726562 579.75 501.379882812 550.639648438 477.610351562 526.169921875 c 0
 453.83984375 501.709960938 424.780273438 482.5703125 390.450195312 468.740234375 c 0
 356.110351562 454.91015625 317.8203125 448 275.559570312 448 c 0
 233.299804688 448 195.150390625 454.91015625 161.110351562 468.740234375 c 0
 127.0703125 482.5703125 98.16015625 501.709960938 74.3896484375 526.169921875 c 0
 50.6201171875 550.639648438 32.2802734375 579.75 19.3701171875 613.51953125 c 0
 6.4599609375 647.290039062 0 684.379882812 0 724.799804688 c 0
 0 764.6796875 6.4599609375 801.509765625 19.3701171875 835.280273438 c 0
 32.2802734375 869.049804688 50.6201171875 898.162109375 74.3896484375 922.624023438 c 0
 98.16015625 947.0859375 127.0703125 966.09765625 161.110351562 979.659179688 c 0
 195.150390625 993.219726562 233.299804688 1000 275.559570312 1000 c 0
275.870117188 813.5 m 0
 263.150390625 813.5 251.66015625 811.299804688 241.41015625 806.900390625 c 0
 231.169921875 802.509765625 222.459960938 796.33984375 215.309570312 788.41015625 c 0
 208.150390625 780.48046875 202.629882812 771.030273438 198.740234375 760.080078125 c 0
 194.860351562 749.129882812 192.91015625 737.190429688 192.91015625 724.259765625 c 0
 192.91015625 711.150390625 194.860351562 699.120117188 198.740234375 688.169921875 c 0
 202.629882812 677.219726562 208.150390625 667.780273438 215.309570312 659.849609375 c 0
 222.459960938 651.919921875 231.169921875 645.709960938 241.41015625 641.23046875 c 0
 251.66015625 636.740234375 263.150390625 634.5 275.870117188 634.5 c 0
 288.58984375 634.5 300.120117188 636.740234375 310.450195312 641.23046875 c 0
 320.790039062 645.709960938 329.540039062 651.919921875 336.690429688 659.849609375 c 0
 343.849609375 667.780273438 349.370117188 677.219726562 353.259765625 688.169921875 c 0
 357.139648438 699.120117188 359.08984375 711.150390625 359.08984375 724.259765625 c 0
 359.08984375 737.190429688 357.139648438 749.129882812 353.259765625 760.080078125 c 0
 349.370117188 771.030273438 343.849609375 780.48046875 336.690429688 788.41015625 c 0
 329.540039062 796.33984375 320.790039062 802.509765625 310.450195312 806.900390625 c 0
 300.120117188 811.299804688 288.58984375 813.5 275.870117188 813.5 c 0
275.759765625 872 m 0
 298.419921875 872 318.959960938 868.360351562 337.370117188 861.08984375 c 0
 355.780273438 853.8203125 371.360351562 843.629882812 384.110351562 830.509765625 c 0
 396.849609375 817.389648438 406.690429688 801.780273438 413.610351562 783.669921875 c 0
 420.540039062 765.559570312 424 745.8203125 424 724.4296875 c 0
 424 702.759765625 420.540039062 682.870117188 413.610351562 664.759765625 c 0
 406.690429688 646.650390625 396.849609375 631.040039062 384.110351562 617.919921875 c 0
 371.360351562 604.799804688 355.780273438 594.540039062 337.370117188 587.120117188 c 0
 318.959960938 579.709960938 298.419921875 576 275.759765625 576 c 0
 253.099609375 576 232.650390625 579.709960938 214.389648438 587.120117188 c 0
 196.139648438 594.540039062 180.639648438 604.799804688 167.889648438 617.919921875 c 0
 155.150390625 631.040039062 145.309570312 646.650390625 138.389648438 664.759765625 c 0
 131.459960938 682.870117188 128 702.759765625 128 724.4296875 c 0
 128 745.8203125 131.459960938 765.559570312 138.389648438 783.669921875 c 0
 145.309570312 801.780273438 155.150390625 817.389648438 167.889648438 830.509765625 c 0
 180.639648438 843.629882812 196.139648438 853.8203125 214.389648438 861.08984375 c 0
 232.650390625 868.360351562 253.099609375 872 275.759765625 872 c 0
EndSplineSet
EndChar

StartChar: uF195D
Encoding: 989533 989533 82
Width: 1000
Flags: H
LayerCount: 2
Fore
SplineSet
0 448 m 1
 552 448 l 1
 552 1000 l 1
 0 1000 l 1
 0 448 l 1
17 606 m 1
 17 664 l 1
 202 664 l 1
 202 606 l 1
 17 606 l 1
350 606 m 1
 350 664 l 1
 536 664 l 1
 536 606 l 1
 350 606 l 1
244 714 m 1
 244 891 l 1
 309 891 l 1
 309 714 l 1
 244 714 l 1
EndSplineSet
EndChar

StartChar: uF195E
Encoding: 989534 989534 83
Width: 1000
Flags: H
LayerCount: 2
Fore
SplineSet
0 1000 m 1
 0 448 l 1
 551.999023438 448 l 1
 551.999023438 1000 l 1
 0 1000 l 1
275.909179688 709.98046875 m 0
 261.489257812 709.98046875 248.478515625 707.530273438 236.869140625 702.620117188 c 0
 225.258789062 697.709960938 215.399414062 690.83984375 207.2890625 681.990234375 c 0
 199.178710938 673.129882812 192.918945312 662.599609375 188.518554688 650.379882812 c 0
 184.109375 638.16015625 181.911132812 624.83984375 181.911132812 610.400390625 c 0
 181.911132812 595.780273438 184.109375 582.360351562 188.518554688 570.139648438 c 0
 192.918945312 557.919921875 199.178710938 547.389648438 207.2890625 538.540039062 c 0
 215.399414062 529.690429688 225.258789062 522.759765625 236.869140625 517.759765625 c 0
 248.478515625 512.759765625 261.489257812 510.25 275.909179688 510.25 c 0
 290.319335938 510.25 303.388671875 512.759765625 315.098632812 517.759765625 c 0
 326.80859375 522.759765625 336.71875 529.690429688 344.829101562 538.540039062 c 0
 352.939453125 547.389648438 359.19921875 557.919921875 363.598632812 570.139648438 c 0
 367.999023438 582.360351562 370.208984375 595.780273438 370.208984375 610.400390625 c 0
 370.208984375 624.83984375 367.999023438 638.16015625 363.598632812 650.379882812 c 0
 359.19921875 662.599609375 352.939453125 673.129882812 344.829101562 681.990234375 c 0
 336.71875 690.83984375 326.80859375 697.709960938 315.098632812 702.620117188 c 0
 303.388671875 707.530273438 290.319335938 709.98046875 275.909179688 709.98046875 c 0
250.649414062 999.780273438 m 1
 301.138671875 964.98046875 l 1
 291.508789062 951.080078125 275.388671875 927.08984375 259.088867188 897.669921875 c 0
 242.37890625 867.509765625 226.869140625 834.23046875 214.268554688 797.25 c 0
 207.94921875 778.709960938 202.758789062 760.4296875 198.529296875 742.419921875 c 2
 196.149414062 729.790039062 l 1
 208.989257812 741.530273438 l 2
 216.44921875 746.959960938 224.569335938 751.610351562 233.348632812 755.490234375 c 0
 250.909179688 763.23046875 270.588867188 767.110351562 292.388671875 767.110351562 c 0
 314.189453125 767.110351562 333.939453125 763.23046875 351.649414062 755.490234375 c 0
 369.369140625 747.740234375 384.348632812 736.879882812 396.619140625 722.91015625 c 0
 408.87890625 708.9296875 418.338867188 692.299804688 424.999023438 673.009765625 c 0
 431.659179688 653.719726562 434.989257812 632.6796875 434.989257812 609.900390625 c 2
 434.978515625 609.799804688 l 1
 435.029296875 609.440429688 l 1
 434.80859375 607.700195312 l 1
 432.19921875 576.690429688 l 2
 430.348632812 566.099609375 427.55859375 555.98046875 423.838867188 546.330078125 c 0
 416.409179688 527.040039062 405.848632812 510.41015625 392.168945312 496.440429688 c 0
 378.489257812 482.459960938 361.768554688 471.530273438 341.999023438 463.629882812 c 0
 322.239257812 455.73046875 300.19921875 451.780273438 275.87890625 451.780273438 c 0
 251.548828125 451.780273438 229.588867188 455.73046875 209.999023438 463.629882812 c 0
 190.409179688 471.530273438 173.765625 482.459960938 160.083984375 496.440429688 c 0
 146.40234375 510.41015625 135.844726562 527.040039062 128.413085938 546.330078125 c 0
 124.697265625 555.98046875 121.91015625 566.099609375 120.051757812 576.690429688 c 2
 117.302734375 609.440429688 l 1
 117.326171875 609.620117188 l 1
 117.029296875 609.629882812 l 1
 117.69921875 628.830078125 119.422851562 660.889648438 125.1171875 698.400390625 c 0
 130.944335938 736.799804688 140.224609375 776.58984375 154.583007812 817.580078125 c 0
 168.89453125 858.4296875 186.319335938 894.919921875 204.768554688 927.610351562 c 0
 222.71875 959.400390625 240.319335938 985.139648438 250.649414062 999.780273438 c 1
EndSplineSet
EndChar

StartChar: uF195F
Encoding: 989535 989535 84
Width: 1000
Flags: H
LayerCount: 2
Fore
SplineSet
0 448 m 1
 552 448 l 1
 552 1000 l 1
 0 1000 l 1
 0 448 l 1
408 724 m 0
 408 748.849609375 427.922851562 769 452.5 769 c 0
 477.077148438 769 497 748.849609375 497 724 c 0
 497 699.150390625 477.077148438 679 452.5 679 c 0
 427.922851562 679 408 699.150390625 408 724 c 0
102 984 m 1
 347 984 l 1
 347 464 l 1
 347 464 l 1
 102 464 l 1
 102 522.5 l 1
 282.184570312 522.5 l 1
 282.184570312 925.5 l 1
 102 925.5 l 1
 102 984 l 1
EndSplineSet
EndChar

StartChar: uF1960
Encoding: 989536 989536 85
Width: 1000
Flags: H
LayerCount: 2
Fore
SplineSet
0 448 m 1
 553 448 l 1
 553 1000 l 1
 0 1000 l 1
 0 448 l 1
135 730.5 m 0
 135 755.080078125 152.459960938 775 174 775 c 0
 195.540039062 775 213 755.080078125 213 730.5 c 0
 213 705.919921875 195.540039062 686 174 686 c 0
 152.459960938 686 135 705.919921875 135 730.5 c 0
341 730.5 m 0
 341 755.080078125 358.240234375 775 379.5 775 c 0
 400.759765625 775 418 755.080078125 418 730.5 c 0
 418 705.919921875 400.759765625 686 379.5 686 c 0
 358.240234375 686 341 705.919921875 341 730.5 c 0
238 730.5 m 0
 238 755.080078125 255.459960938 775 277 775 c 0
 298.540039062 775 316 755.080078125 316 730.5 c 0
 316 705.919921875 298.540039062 686 277 686 c 0
 255.459960938 686 238 705.919921875 238 730.5 c 0
114.0703125 925.51953125 m 1
 114.0703125 522.48046875 l 1
 438.9296875 522.48046875 l 1
 438.9296875 925.51953125 l 1
 114.0703125 925.51953125 l 1
49 984 m 1
 504 984 l 1
 504 983.809570312 l 1
 504 464 l 1
 49 464 l 1
 49 983.809570312 l 1
 49 984 l 1
EndSplineSet
EndChar

StartChar: uF1961
Encoding: 989537 989537 86
Width: 1000
Flags: H
LayerCount: 2
Fore
SplineSet
0 448 m 1
 552 448 l 1
 552 1000 l 1
 0 1000 l 1
 0 448 l 1
157.330078125 783.009765625 m 1
 157.330078125 519.990234375 l 1
 393.669921875 519.990234375 l 1
 393.669921875 783.009765625 l 1
 157.330078125 783.009765625 l 1
95 839 m 1
 157.330078125 839 l 1
 393.669921875 839 l 1
 456 839 l 1
 456 783.009765625 l 1
 456 519.990234375 l 1
 456 464 l 1
 393.669921875 464 l 1
 157.330078125 464 l 1
 95 464 l 1
 95 519.990234375 l 1
 95 783.009765625 l 1
 95 839 l 1
243 864 m 1
 243 1000 l 1
 308 1000 l 1
 308 864 l 1
 243 864 l 1
430.009765625 999.905273438 m 1
 484.009765625 968.723632812 l 1
 416.120117188 851.133789062 l 1
 362.120117188 882.315429688 l 1
 430.009765625 999.905273438 l 1
184.55078125 882.315429688 m 1
 130.54296875 851.133789062 l 1
 62.65234375 968.723632812 l 1
 116.66015625 999.905273438 l 1
 184.55078125 882.315429688 l 1
243 864 m 1
 243 1000 l 1
 308 1000 l 1
 308 864 l 1
 243 864 l 1
EndSplineSet
EndChar

StartChar: uF1962
Encoding: 989538 989538 87
Width: 1000
Flags: H
LayerCount: 2
Fore
SplineSet
0 448 m 1
 552 448 l 1
 552 1000 l 1
 0 1000 l 1
 0 448 l 1
16 481.703125 m 1
 16 659.265625 l 1
 67.982421875 659.265625 l 1
 67.982421875 481.703125 l 1
 16 481.703125 l 1
119.96484375 481.703125 m 1
 119.96484375 659.265625 l 1
 171.947265625 659.265625 l 1
 171.947265625 481.703125 l 1
 119.96484375 481.703125 l 1
223.928710938 481.703125 m 1
 223.928710938 659.265625 l 1
 275.911132812 659.265625 l 1
 275.911132812 481.703125 l 1
 223.928710938 481.703125 l 1
379.875976562 966.297851562 m 1
 379.875976562 966.299804688 l 1
 406.168945312 966.299804688 430 961.810546875 451.358398438 952.831054688 c 0
 472.717773438 943.8515625 490.795898438 931.260742188 505.584960938 915.063476562 c 0
 520.374023438 898.865234375 531.784179688 879.5859375 539.817382812 857.225585938 c 0
 547.849609375 834.865234375 551.868164062 810.48046875 551.868164062 784.071289062 c 0
 551.868164062 757.30859375 547.849609375 732.748046875 539.817382812 710.387695312 c 0
 531.784179688 688.02734375 520.374023438 668.749023438 505.584960938 652.551757812 c 0
 490.795898438 636.353515625 472.717773438 623.67578125 451.358398438 614.520507812 c 0
 430 605.365234375 406.168945312 600.788085938 379.875976562 600.788085938 c 1
 379.875976562 481.706054688 l 1
 327.893554688 481.706054688 l 1
 327.893554688 659.268554688 l 1
 379.875976562 659.268554688 l 2
 396.244140625 659.268554688 411.078125 662.380859375 424.374023438 668.606445312 c 0
 437.670898438 674.83203125 448.927734375 683.453125 458.133789062 694.467773438 c 0
 467.33984375 705.482421875 474.44140625 718.592773438 479.442382812 733.797851562 c 0
 484.442382812 749.002929688 486.944335938 765.705078125 486.944335938 783.903320312 c 0
 486.944335938 801.862304688 484.442382812 818.444335938 479.442382812 833.649414062 c 0
 474.44140625 848.854492188 467.33984375 861.96484375 458.133789062 872.979492188 c 0
 448.927734375 883.994140625 437.670898438 892.552734375 424.374023438 898.659179688 c 0
 411.078125 904.765625 396.244140625 907.819335938 379.875976562 907.819335938 c 2
 119.963867188 907.819335938 l 1
 119.963867188 966.297851562 l 1
 379.875976562 966.297851562 l 1
 379.875976562 966.297851562 l 1
333.25 783.541015625 m 0
 333.25 808.391601562 353.172851562 828.541015625 377.75 828.541015625 c 0
 402.327148438 828.541015625 422.25 808.391601562 422.25 783.541015625 c 0
 422.25 758.69140625 402.327148438 738.541015625 377.75 738.541015625 c 0
 353.172851562 738.541015625 333.25 758.69140625 333.25 783.541015625 c 0
204.887695312 783.541015625 m 0
 204.887695312 808.391601562 224.810546875 828.541015625 249.387695312 828.541015625 c 0
 273.96484375 828.541015625 293.887695312 808.391601562 293.887695312 783.541015625 c 0
 293.887695312 758.69140625 273.96484375 738.541015625 249.387695312 738.541015625 c 0
 224.810546875 738.541015625 204.887695312 758.69140625 204.887695312 783.541015625 c 0
EndSplineSet
EndChar

StartChar: uF1963
Encoding: 989539 989539 88
Width: 1000
Flags: H
LayerCount: 2
Fore
SplineSet
552 1000 m 1
 0 1000 l 1
 0 448 l 1
 552 448 l 1
 552 1000 l 1
41.50390625 998.997070312 m 2
 42.521484375 998.173828125 44.3037109375 996.778320312 46.41796875 995.108398438 c 2
 47.9326171875 993.913085938 l 1
 50.0068359375 991.41015625 l 2
 62.93359375 975.823242188 77.3466796875 958.440429688 91.95703125 940.79296875 c 2
 92.3662109375 940.298828125 l 1
 92.8251953125 939.685546875 l 2
 145.239257812 869.79296875 183.7734375 796.153320312 215.564453125 720.866210938 c 0
 238.231445312 667.185546875 257.771484375 611.654296875 276.004882812 557.247070312 c 1
 294.254882812 611.689453125 313.7890625 667.186523438 336.455078125 720.856445312 c 0
 368.416015625 796.532226562 406.977539062 870.03125 459.202148438 939.662109375 c 2
 459.665039062 940.279296875 l 1
 460.068359375 940.765625 l 2
 475.020507812 958.807617188 489.561523438 976.331054688 502.041015625 991.3671875 c 2
 504.131835938 993.887695312 l 1
 505.62109375 995.055664062 l 2
 507.418945312 996.465820312 508.852539062 997.590820312 509.546875 998.172851562 c 0
 510.060546875 998.603515625 510.333984375 998.860351562 510.491210938 998.997070312 c 1
 550.998046875 952.467773438 l 2
 550.840820312 952.331054688 550.551757812 952.095703125 550.055664062 951.645507812 c 0
 549.8203125 951.432617188 549.5078125 951.139648438 549.130859375 950.780273438 c 0
 537.825195312 936.877929688 523.643554688 919.438476562 509.0234375 901.485351562 c 0
 460.939453125 837.120117188 424.9140625 768.557617188 394.489257812 696.32421875 c 0
 363.59375 622.975585938 338.443359375 545.606445312 313.602539062 469.801757812 c 2
 306.544921875 448.265625 l 1
 283.5859375 448.040039062 l 2
 280.922851562 448.014648438 278.366210938 447.998046875 275.997070312 447.997070312 c 0
 273.619140625 447.99609375 271.06640625 448.0078125 268.409179688 448.028320312 c 2
 245.458007812 448.21484375 l 1
 238.3828125 469.797851562 l 2
 213.581054688 545.466796875 188.400390625 622.9296875 157.484375 696.314453125 c 0
 127.2109375 768.17578125 91.2060546875 836.856445312 42.9443359375 901.452148438 c 0
 29.30078125 918.189453125 15.3740234375 935.298828125 2.826171875 950.721679688 c 0
 2.0849609375 951.434570312 1.4609375 952.032226562 0.998046875 952.467773438 c 2
 41.50390625 998.997070312 l 2
EndSplineSet
EndChar

StartChar: uF1964
Encoding: 989540 989540 89
Width: 1000
Flags: H
LayerCount: 2
Fore
SplineSet
0 448 m 1
 552 448 l 1
 552 1000 l 1
 0 1000 l 1
 0 448 l 1
275.809570312 850.75 m 0
 257.41015625 850.75 240.809570312 847.639648438 225.990234375 841.41015625 c 0
 211.169921875 835.1796875 198.58984375 826.450195312 188.240234375 815.219726562 c 0
 177.889648438 803.98046875 169.91015625 790.610351562 164.290039062 775.099609375 c 0
 158.669921875 759.599609375 155.860351562 742.6796875 155.860351562 724.370117188 c 0
 155.860351562 705.799804688 158.669921875 688.76953125 164.290039062 673.259765625 c 0
 169.91015625 657.75 177.889648438 644.379882812 188.240234375 633.150390625 c 0
 198.58984375 621.91015625 211.169921875 613.120117188 225.990234375 606.76953125 c 0
 240.809570312 600.419921875 257.41015625 597.25 275.809570312 597.25 c 0
 294.200195312 597.25 310.870117188 600.419921875 325.8203125 606.76953125 c 0
 340.76953125 613.120117188 353.41015625 621.91015625 363.759765625 633.150390625 c 0
 374.110351562 644.379882812 382.08984375 657.75 387.709960938 673.259765625 c 0
 393.330078125 688.76953125 396.139648438 705.799804688 396.139648438 724.370117188 c 0
 396.139648438 742.6796875 393.330078125 759.599609375 387.709960938 775.099609375 c 0
 382.08984375 790.610351562 374.110351562 803.98046875 363.759765625 815.219726562 c 0
 353.41015625 826.450195312 340.76953125 835.1796875 325.8203125 841.41015625 c 0
 310.870117188 847.639648438 294.200195312 850.75 275.809570312 850.75 c 0
243.530273438 991 m 1
 308.469726562 991 l 1
 308.469726562 906.490234375 l 1
 316.219726562 905.83984375 l 2
 329.059570312 903.559570312 341.240234375 900.150390625 352.75 895.599609375 c 0
 375.76953125 886.5 395.259765625 873.740234375 411.200195312 857.3203125 c 0
 427.139648438 840.900390625 439.440429688 821.360351562 448.08984375 798.690429688 c 0
 452.419921875 787.360351562 455.669921875 775.509765625 457.83984375 763.150390625 c 2
 458.669921875 753.25 l 1
 552 753.25 l 1
 552 694.75 l 1
 458.599609375 694.75 l 1
 457.83984375 685.51953125 l 2
 455.669921875 673.0703125 452.419921875 661.1796875 448.08984375 649.83984375 c 0
 439.440429688 627.1796875 427.139648438 607.639648438 411.200195312 591.219726562 c 0
 395.259765625 574.799804688 375.76953125 561.950195312 352.75 552.669921875 c 0
 341.240234375 548.030273438 329.059570312 544.549804688 316.219726562 542.23046875 c 2
 308.469726562 541.559570312 l 1
 308.469726562 457 l 1
 243.530273438 457 l 1
 243.530273438 541.51953125 l 1
 235.259765625 542.23046875 l 2
 222.469726562 544.549804688 210.370117188 548.030273438 198.959960938 552.669921875 c 0
 176.129882812 561.950195312 156.740234375 574.799804688 140.799804688 591.219726562 c 0
 124.860351562 607.639648438 112.559570312 627.1796875 103.91015625 649.83984375 c 0
 99.580078125 661.1796875 96.330078125 673.0703125 94.169921875 685.51953125 c 2
 93.400390625 694.75 l 1
 0 694.75 l 1
 0 753.25 l 1
 93.330078125 753.25 l 1
 94.169921875 763.150390625 l 2
 96.330078125 775.509765625 99.580078125 787.360351562 103.91015625 798.690429688 c 0
 112.559570312 821.360351562 124.860351562 840.900390625 140.799804688 857.3203125 c 0
 156.740234375 873.740234375 176.129882812 886.5 198.959960938 895.599609375 c 0
 210.370117188 900.150390625 222.469726562 903.559570312 235.259765625 905.83984375 c 2
 243.530273438 906.540039062 l 1
 243.530273438 991 l 1
EndSplineSet
EndChar

StartChar: uF1965
Encoding: 989541 989541 90
Width: 1000
Flags: H
LayerCount: 2
Fore
SplineSet
0 448 m 1
 552 448 l 1
 552 1000 l 1
 0 1000 l 1
 0 448 l 1
16 843 m 1
 536 843 l 1
 536 784.4296875 l 1
 434.049804688 784.4296875 l 1
 434.049804688 597 l 1
 369.049804688 597 l 1
 369.049804688 784.4296875 l 1
 182.950195312 784.4296875 l 1
 182.950195312 597 l 1
 117.950195312 597 l 1
 117.950195312 784.4296875 l 1
 16 784.4296875 l 1
 16 843 l 1
EndSplineSet
EndChar

StartChar: uF1966
Encoding: 989542 989542 91
Width: 1000
Flags: H
LayerCount: 2
Fore
SplineSet
0 448 m 1
 552 448 l 1
 552 1000 l 1
 0 1000 l 1
 0 448 l 1
231.499023438 600.651367188 m 0
 231.499023438 625.501953125 251.421875 645.651367188 275.999023438 645.651367188 c 0
 300.576171875 645.651367188 320.499023438 625.501953125 320.499023438 600.651367188 c 0
 320.499023438 575.801757812 300.576171875 555.651367188 275.999023438 555.651367188 c 0
 251.421875 555.651367188 231.499023438 575.801757812 231.499023438 600.651367188 c 0
121.873046875 904.348632812 m 1
 243.74609375 747.633789062 l 1
 195.0390625 709.754882812 l 1
 121.873046875 803.838867188 l 1
 48.70703125 709.754882812 l 1
 0 747.633789062 l 1
 121.873046875 904.348632812 l 1
430.126953125 904.348632812 m 1
 552 747.633789062 l 1
 503.29296875 709.754882812 l 1
 430.126953125 803.838867188 l 1
 356.9609375 709.754882812 l 1
 308.25390625 747.633789062 l 1
 430.126953125 904.348632812 l 1
EndSplineSet
EndChar

StartChar: uF1968
Encoding: 989544 989544 92
Width: 1000
Flags: H
LayerCount: 2
Fore
SplineSet
0 448 m 1
 552 448 l 1
 552 1000 l 1
 0 1000 l 1
 0 448 l 1
344.950195312 984 m 1
 410 984 l 1
 410 464 l 1
 344.950195312 464 l 1
 344.950195312 694.75 l 1
 119 694.75 l 1
 119 753.25 l 1
 344.950195312 753.25 l 1
 344.950195312 984 l 1
EndSplineSet
EndChar

StartChar: uF1969
Encoding: 989545 989545 93
Width: 1000
Flags: H
LayerCount: 2
Fore
SplineSet
552 448 m 1
 552 1000 l 1
 0 1000 l 1
 0 448 l 1
 552 448 l 1
290.763671875 1000 m 1
 406.163085938 522.462890625 l 1
 535 522.462890625 l 1
 535 464 l 1
 356.092773438 464 l 1
 254.198242188 909.9609375 l 1
 93.09375 522.462890625 l 1
 236.2890625 522.462890625 l 1
 236.2890625 464 l 1
 0 464 l 1
 230.697265625 1000 l 1
 290.763671875 1000 l 1
EndSplineSet
EndChar

